<svg id="Calque_1" data-name="Calque 1" xmlns="http://www.w3.org/2000/svg" width="281.19" height="122.57" viewBox="0 0 281.19 122.57"><defs><style>.cls-1{fill:#333330;}</style></defs><title>elsadlms</title><path class="cls-1" d="M161.56,114.16h-9.64v-1.4c0-7.28.05-14.56,0-21.84a25.91,25.91,0,0,0-.72-5.68c-.74-3.11-2.65-4.79-5.15-4.91-3.51-.16-6,1.23-7,4.44a27.27,27.27,0,0,0-1.16,7.17c-.15,7,0,13.91,0,20.87v1.34h-9.55V72.8h9.55v3.35l.21.2c2.84-3.34,6.29-5.1,10.72-4.74a13.07,13.07,0,0,1,10.07,6l1.34-1.5c4.37-4.71,12.78-6,18.37-2.81,3.63,2.08,5.28,5.45,6,9.36a31.35,31.35,0,0,1,.5,5.47c.05,8.2,0,16.4,0,24.6v1.4h-9.64v-1.36c0-7.4,0-14.79,0-22.19a28.41,28.41,0,0,0-.64-5.58c-.61-2.93-2.26-4.42-4.75-4.63-3.39-.3-5.79.93-7,3.64a21.05,21.05,0,0,0-1.43,8.81c0,6.64,0,13.28,0,19.91Z"/><path class="cls-1" d="M33.89,77.33V42.42h9.62v71.72H34v-4a4.4,4.4,0,0,0-.62.39c-9,8.57-25.29,6.09-30.32-8.2-3-8.46-2.29-16.75,3.6-24,6.75-8.3,18.29-9.09,26.24-1.93ZM11.12,93.51a49.54,49.54,0,0,0,.94,5,11.13,11.13,0,0,0,9.33,8.22c5.16.48,9.41-1.69,11.58-6.16a15.61,15.61,0,0,0,.33-13.35,11.18,11.18,0,0,0-17.92-4A14.49,14.49,0,0,0,11.12,93.51Z"/><path class="cls-1" d="M106.93,1.84h9.51v120h-9.51Z"/><path class="cls-1" d="M210.8,61.36h-9.55v-4a5.65,5.65,0,0,0-.79.52c-10,9.1-26.48,5-30.67-9.76-2.09-7.33-1.53-14.52,2.89-21,5-7.4,14.29-10.29,22-7A20.66,20.66,0,0,1,198.06,22c1,.71,2,1.57,3.13,2.49V20h9.61ZM178.39,40.68a51.41,51.41,0,0,0,1,5.15A11.11,11.11,0,0,0,188.88,54c5.24.36,9.4-1.87,11.47-6.36a15.78,15.78,0,0,0,.33-12.92,11.19,11.19,0,0,0-18-4.31A14.56,14.56,0,0,0,178.39,40.68Z"/><path class="cls-1" d="M229.28,77.36V72.8h9.61v41.34h-9.57v-4a9.08,9.08,0,0,0-.88.62c-9.56,8.59-25.2,5.3-30-8.27-3-8.31-2.34-16.48,3.23-23.75a18,18,0,0,1,26.5-2.38C228.44,76.63,228.76,76.9,229.28,77.36Zm-11.08,3a10.15,10.15,0,0,0-8.68,4.27c-3.59,4.86-3.74,10.19-1.45,15.55a10.28,10.28,0,0,0,10.05,6.66,10.78,10.78,0,0,0,10.45-6.68,16.32,16.32,0,0,0,1.14-9.26C228.87,84.58,224.23,80.33,218.2,80.32Z"/><path class="cls-1" d="M95.16,43H65.42c-.09,4.5,2.91,10.37,9.38,11,3.86.36,7.1-.77,9.5-3.93l3-4a3.89,3.89,0,0,1,.42.19l7.8,4.34c-1.35,1.81-2.58,3.6-4,5.27-7.64,9.2-23.18,8.38-29.94,1.59a20.3,20.3,0,0,1-5.55-9.64,29.1,29.1,0,0,1,.22-15c2.42-8.5,9.23-13.73,18.09-14,5.28-.14,10.16,1,14.2,4.65a19.12,19.12,0,0,1,6,11.83C94.92,37.76,95,40.28,95.16,43ZM66.09,35H84.93c-1-4.9-4.61-7.57-10-7.44C70.7,27.63,66.71,31,66.09,35Z"/><path class="cls-1" d="M94.94,95.77H65.42c-.08,4.55,2.93,10.38,9.39,11,3.86.36,7.1-.77,9.49-3.94l3-3.94c.17.08.35.15.52.24l7.53,4.21a27.13,27.13,0,0,1-5.94,7.46c-4.71,4.08-10.3,5-16.27,4.51-10.53-1-17.47-9-17.89-20.24A27.35,27.35,0,0,1,57,83.42c3.33-8,10.68-12.4,19.62-11.81,6.89.46,12.29,3.29,15.64,9.47C94.75,85.61,95.19,90.55,94.94,95.77Zm-28.85-8H84.94c-1.08-5-4.69-7.62-10.13-7.43C70.64,80.48,66.63,83.87,66.09,87.76Z"/><path class="cls-1" d="M154.91,27.1l-7.78,4.15c-.57-.8-1-1.58-1.63-2.27a3.78,3.78,0,0,0-4.63-1.15,2.72,2.72,0,0,0-.73,4.51,17.8,17.8,0,0,0,3.67,2.42c2.54,1.34,5.16,2.52,7.71,3.84,8.88,4.57,6.91,15.41,2,20-6.25,5.87-20.32,6.39-25.28-5.81a2.64,2.64,0,0,1-.07-.47l8.05-3.74c.64,1,1.21,1.91,1.86,2.8a6.1,6.1,0,0,0,6.78,2.38,4,4,0,0,0,2.36-6.07,11.36,11.36,0,0,0-3.4-2.91c-1.88-1.12-3.92-2-5.89-2.92-.54-.27-1.07-.55-1.59-.85-5-2.9-6.75-6.41-5.93-12a12.25,12.25,0,0,1,9.23-9.8C146.32,17.59,152.64,20.8,154.91,27.1Z"/><path class="cls-1" d="M277.56,79.89,269.77,84c-.56-.78-1-1.56-1.62-2.25a3.82,3.82,0,0,0-3.6-1.48,3,3,0,0,0-2.48,2,2.41,2.41,0,0,0,.77,2.92,23.46,23.46,0,0,0,3.59,2.33c2.51,1.32,5.17,2.37,7.6,3.8,7.46,4.4,8.46,13.59,2.36,19.8s-20.69,6.73-25.56-5.62a1.71,1.71,0,0,1,0-.37l8-3.74c.63,1,1.2,1.9,1.85,2.79a6.11,6.11,0,0,0,6.77,2.4,4,4,0,0,0,2.39-6.06,11.41,11.41,0,0,0-3.39-2.93c-1.88-1.12-3.93-2-5.9-2.92-.61-.29-1.2-.62-1.79-1-4.48-2.55-6.83-5.82-5.59-12.5a12.06,12.06,0,0,1,10.59-9.51C270.25,71.06,275.31,74,277.56,79.89Z"/></svg>