<svg id="Calque_1" data-name="Calque 1" xmlns="http://www.w3.org/2000/svg" width="509.57" height="165.18" viewBox="0 0 509.57 165.18"><defs><style>.cls-1{fill:#1d3461;}.cls-2{fill:#7cccc8;}.cls-3{fill:#cffff6;}.cls-4{fill:#fdfdfd;}.cls-5{fill:#8fe5d7;}.cls-6{fill:#d0dfff;}.cls-7{fill:#ffff92;}</style></defs><title>metroprofilok</title><g id="ok"><path class="cls-1" d="M76.19,141.85H46.79v12.5a5.38,5.38,0,0,0,5.4,5.4h18.5a5.38,5.38,0,0,0,5.4-5.4v-12.5Z"/><path class="cls-1" d="M115.49,141.85H86.09v12.5a5.38,5.38,0,0,0,5.4,5.4h18.6a5.38,5.38,0,0,0,5.4-5.4Z"/><path class="cls-1" d="M196,141.85h-29.4v12.5a5.38,5.38,0,0,0,5.4,5.4h18.5a5.38,5.38,0,0,0,5.4-5.4v-12.5Z"/><path class="cls-1" d="M235.39,141.85H206v12.5a5.38,5.38,0,0,0,5.4,5.4h18.5a5.38,5.38,0,0,0,5.4-5.4v-12.5Z"/><path class="cls-1" d="M315.79,141.85h-29.4v12.5a5.38,5.38,0,0,0,5.4,5.4h18.5a5.38,5.38,0,0,0,5.4-5.4v-12.5Z"/><path class="cls-1" d="M355.19,141.85h-29.4v12.5a5.38,5.38,0,0,0,5.4,5.4h18.5a5.38,5.38,0,0,0,5.4-5.4v-12.5Z"/><path class="cls-1" d="M435.69,141.85h-29.4v12.5a5.38,5.38,0,0,0,5.4,5.4h18.5a5.38,5.38,0,0,0,5.4-5.4v-12.5Z"/><path class="cls-1" d="M475,141.85h-29.4v12.5a5.38,5.38,0,0,0,5.4,5.4h18.5a5.38,5.38,0,0,0,5.4-5.4v-12.5Z"/><rect class="cls-2" x="35.79" y="5.45" width="432.1" height="4.9"/><path class="cls-3" d="M477.09,148.75H31.79A21.85,21.85,0,0,1,10,127V32.15a21.85,21.85,0,0,1,21.8-21.8h445.3a21.85,21.85,0,0,1,21.8,21.8V127A21.79,21.79,0,0,1,477.09,148.75Z"/><rect class="cls-4" x="9.89" y="80.05" width="488.9" height="42.6"/><path class="cls-5" d="M95.29,37.15H47a13.44,13.44,0,0,0-13.5,13.5v98.2h75.3V50.65A13.44,13.44,0,0,0,95.29,37.15Z"/><path class="cls-6" d="M55.29,45.35c-7.5,0-13.5,8-13.5,17.9v51h24.4V45.35Z"/><path class="cls-6" d="M100.49,63.25c0-9.9-6-17.9-13.5-17.9H76.09v68.9h24.4Z"/><path class="cls-6" d="M135.69,86.45a7.7,7.7,0,0,1-7.7-7.7V47.85a7.7,7.7,0,0,1,7.7-7.7h26.8a7.7,7.7,0,0,1,7.7,7.7v30.9a7.7,7.7,0,0,1-7.7,7.7Z"/><path class="cls-5" d="M162.49,43.15a4.69,4.69,0,0,1,4.7,4.7v30.9a4.69,4.69,0,0,1-4.7,4.7h-26.8a4.69,4.69,0,0,1-4.7-4.7V47.85a4.69,4.69,0,0,1,4.7-4.7h26.8m0-6h-26.8A10.71,10.71,0,0,0,125,47.85v30.9a10.71,10.71,0,0,0,10.7,10.7h26.8a10.71,10.71,0,0,0,10.7-10.7V47.85a10.71,10.71,0,0,0-10.7-10.7Z"/><path class="cls-6" d="M291.39,86.45a7.7,7.7,0,0,1-7.7-7.7V47.85a7.7,7.7,0,0,1,7.7-7.7h26.8a7.7,7.7,0,0,1,7.7,7.7v30.9a7.7,7.7,0,0,1-7.7,7.7Z"/><path class="cls-5" d="M318.29,43.15a4.69,4.69,0,0,1,4.7,4.7v30.9a4.69,4.69,0,0,1-4.7,4.7h-26.8a4.69,4.69,0,0,1-4.7-4.7V47.85a4.69,4.69,0,0,1,4.7-4.7h26.8m0-6h-26.8a10.71,10.71,0,0,0-10.7,10.7v30.9a10.71,10.71,0,0,0,10.7,10.7h26.8A10.71,10.71,0,0,0,329,78.75V47.85a10.71,10.71,0,0,0-10.7-10.7Z"/><path class="cls-5" d="M251.09,37.15h-48.3a13.44,13.44,0,0,0-13.5,13.5v98.2h75.3V50.65A13.44,13.44,0,0,0,251.09,37.15Z"/><path class="cls-6" d="M211.09,45c-7.5,0-13.5,8-13.5,17.9v51H222V45Z"/><path class="cls-6" d="M256.29,62.85c0-9.9-6-17.9-13.5-17.9h-10.9v68.9h24.4Z"/><path class="cls-5" d="M406.89,37.15h-48.3a13.44,13.44,0,0,0-13.5,13.5v98.2h75.3V50.65A13.51,13.51,0,0,0,406.89,37.15Z"/><path class="cls-6" d="M366.89,45.55c-7.5,0-13.5,8-13.5,17.9v51h24.4V45.55Z"/><path class="cls-6" d="M412.09,63.45c0-9.9-6-17.9-13.5-17.9h-10.9v68.9h24.4Z"/><path class="cls-5" d="M463.89,37.15h0a13.44,13.44,0,0,0-13.5,13.5v98.2h27V50.65A13.51,13.51,0,0,0,463.89,37.15Z"/><path class="cls-6" d="M463.89,45.55h0a8.28,8.28,0,0,0-8.3,8.3v60.7h16.5V53.85A8.26,8.26,0,0,0,463.89,45.55Z"/><path class="cls-1" d="M498.89,127.35V32.55a21.93,21.93,0,0,0-9.9-18.3v131.4A21.79,21.79,0,0,0,498.89,127.35Z"/><path class="cls-6" d="M497.21,118.19h1.7v-86h-1.7a2.05,2.05,0,0,0-2.1,2.1v81.8A2.11,2.11,0,0,0,497.21,118.19Z"/><path class="cls-7" d="M498.89,121.75a7.86,7.86,0,0,0-5.8,7.7,8,8,0,0,0,4,6.9,21.83,21.83,0,0,0,1.9-8.9v-5.7Z"/></g></svg>