<?xml version="1.0" encoding="utf-8"?>
<!-- Generator: Adobe Illustrator 23.0.2, SVG Export Plug-In . SVG Version: 6.00 Build 0)  -->
<svg version="1.1" xmlns="http://www.w3.org/2000/svg" xmlns:xlink="http://www.w3.org/1999/xlink" x="0px" y="0px"
	 viewBox="0 0 1000 1000" style="enable-background:new 0 0 1000 1000;" xml:space="preserve">
<style type="text/css">
	.st0{display:none;}
	.st1{display:inline;fill:#CFFFF6;}
	.st2{display:inline;fill:#8FE5D7;}
	.st3{display:inline;}
	.st4{fill:#D0DFFF;}
	.st5{fill:#E1EDFF;}
	.st6{fill:#7CCCC8;}
	.st7{display:inline;fill:#1D3461;}
	.st8{display:inline;fill:none;}
	.st9{display:inline;fill:#FFFF92;}
	.st10{display:inline;fill:#FFFDE1;}
	.st11{fill:#8FE5D7;}
	.st12{fill:#CFFFF6;}
	.st13{fill:#1D3461;}
	.st14{fill:none;}
	.st15{fill:#FFFF92;}
	.st16{fill:#FFFDE1;}
	.st17{fill:#FDFDFD;}
</style>
<g id="Calque_1" class="st0">
	<path class="st1" d="M539.8,707.1"/>
	<path class="st2" d="M635.2,678.9l0.2-128l72.2-43.2c5.7-3.2,12.8,0.8,12.8,7.4l0.5,114L635.2,678.9z"/>
	<g class="st3">
		<path class="st4" d="M662.9,645.6c-10.4,6.1-19.1,1.3-19.2-10.8l-0.7-61c-0.1-12.1,8.4-26.9,18.9-32.9l34.2-19.5
			c10.5-6,19.1-1,19.1,11.1v60.3c0,12.1-8.5,27-19,33.2L662.9,645.6z"/>
	</g>
	<g class="st3">
		<path class="st5" d="M682.5,630.8c-10.5,6.1-19.1,1.1-19.2-11l-0.5-52.5c-0.1-12.1,8.5-26.8,19-32.7l14.3-7.9
			c10.6-5.9,19.2-0.8,19.2,11.3l-0.1,51.8c0,12.1-8.6,27-19.1,33L682.5,630.8z"/>
	</g>
	<polygon class="st1" points="270.8,338.9 635.4,550.9 635.2,678.9 271.5,467.4 	"/>
	<polygon class="st2" points="715.4,507.3 350.8,293 270.8,338.9 635.4,550.9 	"/>
	<g class="st3">
		<g>
			<path class="st6" d="M317.5,333c-5.7,3.2-5.8,8.6-0.1,12l304.9,178.4c5.7,3.3,15.1,3.4,20.8,0.2l32.3-18.2
				c5.8-3.2,5.8-8.6,0.1-12l-305-178.4c-5.7-3.3-15.1-3.4-20.8-0.1L317.5,333z"/>
		</g>
	</g>
	<path class="st7" d="M643.6,622.6l71.7-41.9v19.6c0,0-0.1,14.3-17,24.8c-16.8,10.6-35.8,21.6-35.8,21.6s-17.4,13.3-18.7-6.2"/>
	<line class="st8" x1="632.2" y1="628.3" x2="632.2" y2="628.3"/>
	<ellipse transform="matrix(0.866 -0.5 0.5 0.866 -234.0966 417.3146)" class="st9" cx="661.7" cy="645.5" rx="8.7" ry="5"/>
	<ellipse transform="matrix(0.866 -0.5 0.5 0.866 -229.7175 414.9524)" class="st10" cx="659.4" cy="636.1" rx="6.1" ry="2.6"/>
	<ellipse transform="matrix(0.866 -0.5 0.5 0.866 -216.3379 435.0855)" class="st9" cx="703.7" cy="621.2" rx="8.7" ry="5"/>
	<ellipse transform="matrix(0.866 -0.5 0.5 0.866 -211.9588 432.7232)" class="st10" cx="701.5" cy="611.9" rx="6.1" ry="2.6"/>
	<path class="st7" d="M643,570.6l72.3-41.5c0,0,1.4-19.4-14.4-10.4c-15.8,9-41.1,23.4-41.1,23.4S642.8,549.4,643,570.6z"/>
	<g class="st3">
		<g>
			<path class="st11" d="M501.5,524.2c0-12.1,8.6-17,19.1-11l9.9,5.7c10.5,6.1,19,20.9,19,33l0,23.1c0,12.1-8.6,17-19.1,11l-9.9-5.7
				c-10.5-6.1-19-20.9-19-33L501.5,524.2z"/>
		</g>
		<g>
			<path class="st4" d="M511.7,530.5c0.3-12.1,8.9-17.2,19.1-11.2s18.7,20.7,18.7,32.8v12.7c0,12.1-8.7,17.2-19.2,11.3l-0.1-0.1
				c-10.6-5.9-19-20.6-18.7-32.7L511.7,530.5z"/>
		</g>
	</g>
	<g class="st3">
		<g>
			<path class="st11" d="M366.9,446.2c0-12.1,8.6-17,19.1-11l9.9,5.7c10.5,6.1,19,20.9,19,33l0,23.1c0,12.1-8.6,17-19.1,11l-9.9-5.7
				c-10.5-6.1-19-20.9-19-33L366.9,446.2z"/>
		</g>
		<g>
			<path class="st4" d="M377.1,452.5c0.3-12.1,8.9-17.2,19.1-11.2s18.6,20.6,18.6,32.8v12.7c0,12.1-8.6,17.2-19.2,11.3l-0.1-0.1
				c-10.6-5.9-19-20.6-18.7-32.7L377.1,452.5z"/>
		</g>
	</g>
	<g class="st3">
		<g>
			<path class="st11" d="M615.2,667.2c0.1,0,0.1-9.8,0.1-21.9l0-60.6c0-12.1-8.6-27-19-33l-6.4-3.7c-10.5-6.1-19-1.1-19,11l0.1,60.6
				c0,12.1,0,22,0.1,22s8.6,5,19,11.1l6,3.5C606.5,662.2,615.1,667.2,615.2,667.2z"/>
		</g>
		<g>
			<path class="st4" d="M597,552.1c0,0-4-2.4-9-5.3s-9,4.6-9,16.7l0,22.7c0,12.1,0,22,0,22c0,0,4,2.4,8.9,5.2s8.9,5.2,8.9,5.2"/>
		</g>
		<path class="st4" d="M601.1,554.5c0,0,14.2,8.6,14.2,25.4s0,49.3,0,49.3l-14.2-7.9V554.5z"/>
	</g>
	<g class="st3">
		<g>
			<path class="st11" d="M482,589.8c0.1,0,0.1-9.8,0.1-21.9l-0.1-61.5c0-12.1-8.6-27-19.1-33l-6.4-3.7c-10.5-6.1-19-1.1-19,11
				l0.1,61.4c0,12.1,0,22,0.1,22s8.6,5,19,11.1l6.2,3.6C473.3,584.8,482,589.8,482,589.8z"/>
		</g>
		<g>
			<path class="st4" d="M463.7,473.8c0,0-4-2.4-9-5.3s-9,4.6-9,16.7l0,22.6c0,12.1,0,22,0,22c0,0,4,2.4,8.9,5.2s8.9,5.2,8.9,5.2"/>
		</g>
		<path class="st4" d="M467.8,476.2c0,0,14.2,8.6,14.2,25.4c0,16.9,0,49.3,0,49.3l-14.2-7.9V476.2z"/>
	</g>
	<g class="st3">
		<g>
			<path class="st11" d="M343.9,509.5c0.1,0,0.1-9.8,0.1-21.9l0-60.5c0-12.1-8.6-27-19-33l-6.4-3.7c-10.5-6.1-19-1.1-19,11l0.1,60.4
				c0,12.1,0,22,0,22s8.6,5,19,11.1l6,3.5C335.3,504.5,343.9,509.5,343.9,509.5z"/>
		</g>
		<g>
			<path class="st4" d="M325.7,394.5c0,0-4-2.4-9-5.3s-9,4.6-9,16.7l0,22.6c0,12.1,0,22,0,22c0,0,4,2.4,8.9,5.2
				c4.9,2.9,8.9,5.2,8.9,5.2"/>
		</g>
		<path class="st4" d="M329.9,396.9c0,0,14.2,8.6,14.2,25.4s0,49.3,0,49.3l-14.2-7.9V396.9z"/>
	</g>
	<polygon class="st7" points="640.4,675.2 657.2,673.7 715.3,640.4 718.4,630.5 	"/>
</g>
<g id="Calque_2">
	<path class="st12" d="M541.1,706.1"/>
	<path class="st11" d="M636.3,677.9l0.2-127.8l72.1-43.2c5.7-3.2,12.8,0.8,12.8,7.4l0.5,113.9L636.3,677.9z"/>
	<g>
		<path class="st4" d="M664,644.7c-10.4,6.1-19.1,1.3-19.2-10.8l-0.7-60.8c-0.1-12.1,8.4-26.9,18.9-32.9l34.1-19.5
			c10.5-6,19.1-1,19.1,11.1v60.2c0,12.1-8.5,27-19,33.2L664,644.7z"/>
	</g>
	<g>
		<path class="st5" d="M683.7,629.9c-10.5,6.1-19.1,1.1-19.2-11l-0.5-52.3c-0.1-12.1,8.5-26.8,19-32.6l14.2-7.9
			c10.6-5.9,19.2-0.7,19.2,11.4l-0.1,51.7c0,12.1-8.6,27-19.1,33L683.7,629.9z"/>
	</g>
	<polygon class="st12" points="272.4,338.4 636.5,550.1 636.3,677.9 273.1,466.8 	"/>
	<polygon class="st11" points="716.4,506.6 352.4,292.6 272.4,338.4 636.5,550.1 	"/>
	<g>
		<g>
			<path class="st6" d="M319.1,332.5c-5.7,3.2-5.8,8.6-0.1,12l304.5,178.1c5.7,3.3,15.1,3.4,20.8,0.2l32.2-18.2
				c5.7-3.2,5.8-8.6,0.1-12L372.1,314.5c-5.7-3.3-15.1-3.4-20.8-0.1L319.1,332.5z"/>
		</g>
	</g>
	<path class="st13" d="M644.7,621.7l71.6-41.8v19.6c0,0-0.1,14.2-16.9,24.8s-35.8,21.6-35.8,21.6s-17.4,13.3-18.7-6.2"/>
	<line class="st14" x1="633.3" y1="627.4" x2="633.3" y2="627.4"/>
	<ellipse transform="matrix(0.866 -0.5 0.5 0.866 -233.4992 417.7568)" class="st15" cx="662.8" cy="644.6" rx="8.7" ry="5"/>
	<ellipse transform="matrix(0.866 -0.5 0.5 0.866 -229.126 415.3947)" class="st16" cx="660.6" cy="635.3" rx="6.1" ry="2.6"/>
	<ellipse transform="matrix(0.866 -0.5 0.5 0.866 -215.7661 435.5007)" class="st15" cx="704.8" cy="620.4" rx="8.7" ry="5"/>
	<ellipse transform="matrix(0.866 -0.5 0.5 0.866 -211.393 433.1386)" class="st16" cx="702.6" cy="611" rx="6.1" ry="2.6"/>
	<path class="st13" d="M644.1,569.8l72.2-41.5c0,0,1.4-19.4-14.4-10.4c-15.7,9-41,23.4-41,23.4S643.9,548.6,644.1,569.8z"/>
	<polygon class="st17" points="636.5,618.8 272.8,407.4 273,446.3 636.3,655.6 	"/>
	<g>
		<g>
			<path class="st11" d="M502.9,523.5c0-12.1,8.6-17,19.1-11l9.8,5.7c10.5,6.1,19,20.9,19,33l0,23c0,12.1-8.6,17-19.1,11l-9.8-5.7
				c-10.5-6.1-19-20.9-19-33L502.9,523.5z"/>
		</g>
		<g>
			<path class="st4" d="M513.1,529.8c0.3-12.1,8.9-17.2,19.1-11.3c10.2,5.9,18.6,20.6,18.6,32.7v12.6c0,12.1-8.6,17.2-19.2,11.3
				l-0.1,0c-10.6-5.9-19-20.6-18.7-32.7L513.1,529.8z"/>
		</g>
	</g>
	<g>
		<g>
			<path class="st11" d="M368.4,445.6c0-12.1,8.6-17,19.1-11l9.8,5.7c10.5,6.1,19,20.9,19,33l0,23c0,12.1-8.6,17-19.1,11l-9.8-5.7
				c-10.5-6.1-19-20.9-19-33L368.4,445.6z"/>
		</g>
		<g>
			<path class="st4" d="M378.6,451.9c0.3-12.1,8.9-17.2,19.1-11.3c10.2,5.9,18.6,20.6,18.6,32.7V486c0,12.1-8.6,17.2-19.2,11.3
				l-0.1,0c-10.6-5.9-19-20.6-18.7-32.7L378.6,451.9z"/>
		</g>
	</g>
	<g>
		<g>
			<path class="st11" d="M616.4,666.3c0.1,0,0.1-9.8,0.1-21.9l0-60.5c0-12.1-8.6-27-19-33l-6.3-3.7c-10.5-6.1-19-1.1-19,11l0.1,60.4
				c0,12.1,0,22,0.1,22c0,0,8.6,5,19,11.1l6,3.5C607.7,661.3,616.3,666.3,616.4,666.3z"/>
		</g>
		<g>
			<path class="st4" d="M598.2,551.3c0,0-4-2.4-9-5.2c-4.9-2.9-9,4.7-9,16.8l0,22.6c0,12.1,0,22,0,22s4,2.4,8.9,5.2
				c4.9,2.9,8.9,5.2,8.9,5.2"/>
		</g>
		<path class="st4" d="M602.3,553.7c0,0,14.1,8.5,14.2,25.4c0,16.9,0,49.2,0,49.2l-14.2-7.9V553.7z"/>
	</g>
	<g>
		<g>
			<path class="st11" d="M483.4,589c0.1,0,0.1-9.8,0.1-21.9l-0.1-61.4c0-12.1-8.6-27-19.1-33L458,469c-10.5-6.1-19-1.1-19,11
				l0.1,61.2c0,12.1,0,22,0.1,22c0,0,8.6,5,19,11.1l6.1,3.5C474.7,583.9,483.3,588.9,483.4,589z"/>
		</g>
		<g>
			<path class="st4" d="M465.1,473.1c0,0-4-2.4-9-5.2c-4.9-2.9-9,4.7-9,16.8l0,22.6c0,12.1,0,22,0,22c0,0,4,2.4,8.9,5.2
				c4.9,2.9,8.9,5.2,8.9,5.2"/>
		</g>
		<path class="st4" d="M469.2,475.5c0,0,14.1,8.5,14.2,25.4s0,49.2,0,49.2l-14.2-7.9V475.5z"/>
	</g>
	<g>
		<g>
			<path class="st11" d="M345.5,508.8c0.1,0,0.1-9.8,0.1-21.9l0-60.4c0-12.1-8.6-27-19-33l-6.3-3.7c-10.5-6.1-19-1.1-19,11l0.1,60.3
				c0,12.1,0,22,0.1,22s8.6,5,19,11.1l6,3.5C336.8,503.8,345.4,508.8,345.5,508.8z"/>
		</g>
		<g>
			<path class="st4" d="M327.3,394c0,0-4-2.4-9-5.2c-4.9-2.9-9,4.7-9,16.8l0,22.6c0,12.1,0,22,0,22c0,0,4,2.4,8.9,5.2
				c4.9,2.9,8.9,5.2,8.9,5.2"/>
		</g>
		<path class="st4" d="M331.4,396.4c0,0,14.1,8.5,14.2,25.4c0,16.9,0,49.2,0,49.2l-14.2-7.9V396.4z"/>
	</g>
	<polygon class="st13" points="641.6,674.2 658.3,672.7 716.3,639.5 719.5,629.6 	"/>
</g>
</svg>
