<svg id="Calque_5" data-name="Calque 5" xmlns="http://www.w3.org/2000/svg" viewBox="0 0 455.53 746.28"><defs><style>.cls-1,.cls-4,.cls-6,.cls-7,.cls-9{fill:none;}.cls-2{fill:#a2a2a2;}.cls-3{fill:#d2d2d2;}.cls-4{stroke:#a2a2a2;stroke-width:5px;}.cls-4,.cls-7,.cls-9{stroke-miterlimit:10;}.cls-5{fill:#efefef;}.cls-6,.cls-7,.cls-9{stroke:#303030;}.cls-6{stroke-linejoin:round;stroke-width:1.5px;}.cls-7{stroke-width:4px;}.cls-8{fill:#303030;}.cls-9{stroke-width:3px;}</style></defs><title>ripticket</title><polygon class="cls-1" points="473.97 488.5 473.97 488.5 473.97 488.5 473.97 488.5 473.97 488.5"/><line class="cls-1" x1="473.97" y1="488.5" x2="473.97" y2="488.5"/><line class="cls-1" x1="473.97" y1="488.5" x2="473.97" y2="488.5"/><line class="cls-1" x1="473.97" y1="488.5" x2="473.97" y2="488.5"/><line class="cls-1" x1="473.97" y1="488.5" x2="473.97" y2="488.5"/><line class="cls-1" x1="473.97" y1="488.5" x2="473.97" y2="488.5"/><line class="cls-1" x1="473.97" y1="488.5" x2="473.97" y2="488.5"/><line class="cls-1" x1="473.97" y1="488.5" x2="473.97" y2="488.5"/><line class="cls-1" x1="473.97" y1="488.5" x2="473.97" y2="488.5"/><line class="cls-1" x1="473.97" y1="488.5" x2="473.97" y2="488.5"/><line class="cls-1" x1="473.97" y1="488.5" x2="473.97" y2="488.5"/><polygon class="cls-2" points="46.31 746.28 0 725.58 25.41 699.01 83 713.88 46.31 746.28"/><path class="cls-2" d="M285,53.42h0C172,67.1,80.41,180.61,80.41,307v470.7l409.22-49.53V257.42C489.63,131.08,398,39.74,285,53.42Z" transform="translate(-80.41 -52.07)"/><polygon class="cls-2" points="355.47 41.49 290.42 12.01 287.64 58.09 355.47 41.49"/><path class="cls-3" d="M331.33,74.12h0c-113,13.67-204.61,127.19-204.61,253.53V798.34l409.22-49.53V278.12C535.94,151.78,444.33,60.44,331.33,74.12Z" transform="translate(-80.41 -52.07)"/><polyline class="cls-4" points="387.46 418.71 411.5 458.59 406.59 481.37 429.99 504.55 434.41 538.63"/><polyline class="cls-4" points="177.25 404.26 149.65 361.97 88.17 326.07 81.13 299.97"/><polyline class="cls-4" points="149.65 361.97 154.75 326.07 140.34 299.97"/><polyline class="cls-4" points="99.65 115.08 129.19 133.58 125.17 196 154.75 243.51"/><polyline class="cls-4" points="125.17 196 112.05 219.68 127.2 248.84 119.63 274.71"/><polyline class="cls-4" points="406.59 481.37 390.11 500.21 399.57 519.25 380.24 544.89"/><polyline class="cls-5" points="455.53 353.07 224.17 665.17 56.59 540.95 343.51 153.89 455.53 236.94 455.53 353.07"/><polyline class="cls-3" points="455.53 306.98 203.35 649.74 166.51 622.43 452.51 234.69 455.53 236.94"/><path class="cls-3" d="M535.94,289" transform="translate(-80.41 -52.07)"/><path class="cls-6" d="M317.54,378.52s4.14-9.4,14-11l6.1-7.26,2.71,2.73,2.31-2.43.68,1.84,1.92-2.22.81,1.73s2.74-2.47,3.67-2-1.06,11.6,8.51,11.63l10.14.84" transform="translate(-80.41 -52.07)"/><path class="cls-7" d="M325.9,363.41a20.46,20.46,0,0,1,4.63-11.36c6.42-7.72,17-8.57,23.61-1.91a18.56,18.56,0,0,1,4.92,15.33" transform="translate(-80.41 -52.07)"/><path class="cls-7" d="M354.49,376.16c-6.41,7.71-17,8.57-23.6,1.91a16.67,16.67,0,0,1-2.72-3.62" transform="translate(-80.41 -52.07)"/><path class="cls-8" d="M228.34,515l23.11,17.13,11.1-15L283,532.28l-11.1,15,25.82,19.13c3.1,2.3,5.37,3.54,6.8,3.7q3.33.39,5.8-3,2.24-3,4.46-9.75l20.77,12.29a107.82,107.82,0,0,1-11.71,20.53q-7.54,10.17-13.78,13a20.14,20.14,0,0,1-13.4,1.1q-7.16-1.74-19.35-10.77l-25.63-19h0l-20.45-15.16h0l-13.38-9.92Z" transform="translate(-80.41 -52.07)"/><path class="cls-8" d="M301.89,544.72l7.81-10.54-10.87-8.07,6.59-8.89,10.88,8.06,7.85-10.6,9.13,6.77-7.86,10.6,10.82,8L329.65,549l-10.82-8L311,551.49Z" transform="translate(-80.41 -52.07)"/><path class="cls-8" d="M290.86,645.41l-14.6-10.82,2.84-3.84,4.9,3.63,8.68-11.7,4.8,3.56-8.67,11.7,4.89,3.63Z" transform="translate(-80.41 -52.07)"/><path class="cls-8" d="M273.9,632.84l-4.82-3.57,11.52-15.54,4.82,3.57Z" transform="translate(-80.41 -52.07)"/><path class="cls-8" d="M262.09,609.86l-3.26-4.39a9.65,9.65,0,0,1,3.53-2,7.16,7.16,0,0,1,3.59-.11,10.42,10.42,0,0,1,3.89,2,12.46,12.46,0,0,1,3.59,3.8,8.13,8.13,0,0,1,.85,4.65,10.86,10.86,0,0,1-2.35,5.61c-1.91,2.57-4.05,4-6.44,4.4s-4.84-.37-7.34-2.23a9.74,9.74,0,0,1-3.74-4.61,8.72,8.72,0,0,1,.2-5.5l4.95,2.21a4.31,4.31,0,0,0-.31,1.38,3.52,3.52,0,0,0,.36,1.58,3.41,3.41,0,0,0,1.08,1.26,3.5,3.5,0,0,0,3.48.54,6.89,6.89,0,0,0,2.92-2.57c1.28-1.72,1.89-3.1,1.85-4.12a3.86,3.86,0,0,0-4.16-3.37A6,6,0,0,0,262.09,609.86Z" transform="translate(-80.41 -52.07)"/><path class="cls-8" d="M248.73,614.18l-4.81-3.56,4.36-5.87-9.39,2.14-6.39-4.73,10-1.67,1.25-14.07,5.92,4.39-1.47,8.82,4.41-.76,2.81-3.79,4.81,3.56Z" transform="translate(-80.41 -52.07)"/><path class="cls-8" d="M230.67,600.8l-12.87-9.55,2.46-3.31,8.06,6,1.83-2.47-7.48-5.54,2.35-3.17,7.48,5.54,2.27-3.07-8.29-6.14,2.61-3.52,13.1,9.71Z" transform="translate(-80.41 -52.07)"/><path class="cls-8" d="M216.07,590l-14.6-10.82,2.84-3.84,4.9,3.63,8.68-11.7,4.8,3.56L214,582.5l4.9,3.64Z" transform="translate(-80.41 -52.07)"/><path class="cls-8" d="M379.19,324.15l-3.45,4.66-4.71-.92a21.54,21.54,0,0,0-3.31-.48,3.6,3.6,0,0,0-1.68.23,3.38,3.38,0,0,0-1,1l-.48.64,6.22,6.25-3.13,4.22-14.88-14.78,4.82-6.51q2.64-3.54,5.14-3.66a6.55,6.55,0,0,1,4.32,1.24,5.05,5.05,0,0,1,2.2,3.26,6.1,6.1,0,0,1-.87,3.92,5.66,5.66,0,0,1,2.4-.53,19.32,19.32,0,0,1,3.25.48Zm-15.56-3.78a2.94,2.94,0,0,0-2.2-.54c-.82.12-1.77.89-2.83,2.32l-.49.66,4.3,4.26,1.25-1.68a4.2,4.2,0,0,0,1.1-3.06A2.92,2.92,0,0,0,363.63,320.37Z" transform="translate(-80.41 -52.07)"/><path class="cls-8" d="M393.18,305.28l-3.29,4.44-4-2.29-3.78,5.08,2.45,4.43-3.23,4.35-10.41-20.8,3.34-4.52Zm-9.87.69-7-3.93,4.23,7.63Z" transform="translate(-80.41 -52.07)"/><path class="cls-8" d="M391.07,273.27l3,3-4,5.39,11.8,11.84-3.14,4.24-11.83-11.81-4,5.37-3-3Z" transform="translate(-80.41 -52.07)"/><path class="cls-8" d="M409.62,258.84a7.81,7.81,0,0,1,2.34,2.7,6,6,0,0,1,.61,3.5,8.18,8.18,0,0,1-1.71,4l-2.56,3.45,5.31,5.26-3.18,4.3-14.87-14.81L400.2,261c1.52-2.06,3.1-3.19,4.75-3.42A6.23,6.23,0,0,1,409.62,258.84Zm-3.05,4.58a3.49,3.49,0,0,0-1.75-.7,3.19,3.19,0,0,0-1.87.39,5.25,5.25,0,0,0-1.74,1.56l-.29.4,5.23,5.22.88-1.19a4.85,4.85,0,0,0,1.14-3.09A3.46,3.46,0,0,0,406.57,263.42Z" transform="translate(-80.41 -52.07)"/><circle class="cls-9" cx="275.56" cy="414.18" r="24.9"/><path class="cls-8" d="M339.36,474.51l3-4a6.25,6.25,0,0,1,2.08-2,3.67,3.67,0,0,1,2.17-.12,6.51,6.51,0,0,1,2.53,1.17,6.23,6.23,0,0,1,1.74,1.9,3.75,3.75,0,0,1,.59,2,3.58,3.58,0,0,1,2.4-.36,6.44,6.44,0,0,1,2.75,1.26,7.43,7.43,0,0,1,2.4,2.77,3.51,3.51,0,0,1,.33,2.58,15.4,15.4,0,0,1-1.89,2.94L354.91,486Zm4.07-.09,3.6,2.67,1-1.32a13.33,13.33,0,0,0,1-1.52,1.5,1.5,0,0,0,0-1.21,3.39,3.39,0,0,0-2.31-1.79,1.28,1.28,0,0,0-1,.17,13,13,0,0,0-1.53,1.84Zm6.19,4.59,4.15,3.07,1.38-1.86a5.85,5.85,0,0,0,1-1.7,1.66,1.66,0,0,0-.21-1.06,3.35,3.35,0,0,0-1.05-1.14,3.29,3.29,0,0,0-1.44-.68,1.69,1.69,0,0,0-1.17.17,6.33,6.33,0,0,0-1.46,1.57Z" transform="translate(-80.41 -52.07)"/><path class="cls-8" d="M346.78,464.5l1.49-2,8.42,6.24c1.31,1,2.18,1.58,2.61,1.82a3.66,3.66,0,0,0,2.06.55,2.1,2.1,0,0,0,1.54-.91,2,2,0,0,0,.45-1.43,2.6,2.6,0,0,0-.66-1.42,21.27,21.27,0,0,0-2.91-2.41l-8.6-6.37,1.48-2,8.17,6.05a34.54,34.54,0,0,1,4.33,3.61,5.11,5.11,0,0,1,1.39,2.85,4.22,4.22,0,0,1-.92,3.06,4.67,4.67,0,0,1-2.52,1.89,5,5,0,0,1-2.95-.23,23.93,23.93,0,0,1-5.08-3.15Z" transform="translate(-80.41 -52.07)"/><path class="cls-8" d="M364.33,462.73l1.16-2.18c2.15,1.25,3.68,1.27,4.59,0a2.24,2.24,0,0,0,.45-1.88,2.79,2.79,0,0,0-1.13-1.64,2.4,2.4,0,0,0-1-.49,1.86,1.86,0,0,0-1,.1,16.84,16.84,0,0,0-2.14,1.21,7,7,0,0,1-2.47,1.08,5,5,0,0,1-2.24-.19,7.23,7.23,0,0,1-2.3-1.16,6.8,6.8,0,0,1-1.95-2.15,4.27,4.27,0,0,1-.62-2.38,4.39,4.39,0,0,1,.94-2.35,4.14,4.14,0,0,1,3.25-1.83,7.09,7.09,0,0,1,4.26,1.54l-1.35,2.12a4.07,4.07,0,0,0-2.18-.73,2,2,0,0,0-1.42.88,2.08,2.08,0,0,0-.49,1.57,1.8,1.8,0,0,0,.75,1.24,1.91,1.91,0,0,0,1.36.39,6.18,6.18,0,0,0,2.31-1.12,8.46,8.46,0,0,1,2.81-1.31,4.93,4.93,0,0,1,2.36.16,8.77,8.77,0,0,1,2.64,1.41,7.12,7.12,0,0,1,2.69,3.49,4.31,4.31,0,0,1-.88,4.07Q370,466.27,364.33,462.73Z" transform="translate(-80.41 -52.07)"/><circle class="cls-9" cx="391.65" cy="257.56" r="24.9"/><path class="cls-8" d="M470.49,330.11l-15.55-11.52,3.13-4.23a5.9,5.9,0,0,1,2.14-2,3.75,3.75,0,0,1,2.3-.07,7.74,7.74,0,0,1,2.81,1.39,7,7,0,0,1,2.43,2.86,3.72,3.72,0,0,1,0,3,7.06,7.06,0,0,1,2.09-.1,22.91,22.91,0,0,1,3.38.72l3.93,1-1.77,2.4-4.46-1.06a31.22,31.22,0,0,0-3.09-.64,2.1,2.1,0,0,0-1.08.13,2.6,2.6,0,0,0-.92.88l-.31.41,6.5,4.81ZM463,321.46l1.11-1.49a7.23,7.23,0,0,0,1.13-1.85,1.54,1.54,0,0,0-.17-1.06,3.53,3.53,0,0,0-1.07-1.15,3.28,3.28,0,0,0-1.37-.66,1.59,1.59,0,0,0-1.09.17,8.48,8.48,0,0,0-1.32,1.54l-1.17,1.58Z" transform="translate(-80.41 -52.07)"/><path class="cls-8" d="M477.92,320.09l-15.55-11.53,5.47-7.38,2.63,1.95-4,5.38,3.44,2.56,3.71-5,2.62,1.94-3.71,5,4.23,3.13,4.12-5.56,2.63,1.95Z" transform="translate(-80.41 -52.07)"/><path class="cls-8" d="M484.79,310.83,469.24,299.3l3.13-4.23a5.82,5.82,0,0,1,2.14-2,3.75,3.75,0,0,1,2.3-.07,7.82,7.82,0,0,1,2.81,1.39,7,7,0,0,1,2.43,2.86,3.72,3.72,0,0,1,0,3,7.06,7.06,0,0,1,2.09-.1,22.91,22.91,0,0,1,3.38.72l3.93,1-1.77,2.4-4.46-1.06a31.22,31.22,0,0,0-3.09-.64,2.2,2.2,0,0,0-1.08.13,2.6,2.6,0,0,0-.92.88l-.31.41,6.49,4.81Zm-7.49-8.66,1.1-1.49a7.07,7.07,0,0,0,1.14-1.85,1.49,1.49,0,0,0-.18-1.06,3.32,3.32,0,0,0-1.07-1.15,3.2,3.2,0,0,0-1.36-.66,1.59,1.59,0,0,0-1.09.17,8.48,8.48,0,0,0-1.32,1.54l-1.17,1.58Z" transform="translate(-80.41 -52.07)"/><circle class="cls-9" cx="314.25" cy="361.97" r="24.9"/><path class="cls-8" d="M404,423.2l-16.36-12.13-3.87,5.22-3.33-2.47,10.35-14,3.33,2.47-3.86,5.21,16.36,12.13Z" transform="translate(-80.41 -52.07)"/><circle class="cls-9" cx="352.95" cy="309.77" r="24.9"/><path class="cls-8" d="M437.44,378.14l-19.69-14.6,3.93-5.31,12.23,4.1-7.51-10.46,4-5.34,19.69,14.6-2.45,3.31-15.51-11.5,9.32,12.32-2.53,3.42-14.5-5.35,15.51,11.5Z" transform="translate(-80.41 -52.07)"/><path class="cls-2" d="M283.46,186.28c23.41-2.84,28.44,8.46,28.44,22.17,0,10.78-3.72,18.31-11.76,23.55l16.38,31.38L294,266.11l-11.75-26.66-9.65,1.16V268.7L253.32,271v-81.1Zm-10.85,37.48,8.64-1c7.74-.94,9.05-3.57,9.05-10.64,0-6.86-1.61-8.68-9.05-7.78l-8.64,1Z" transform="translate(-80.41 -52.07)"/><path class="cls-2" d="M362,176.77v81.1l-19.29,2.34V179.1Z" transform="translate(-80.41 -52.07)"/><path class="cls-2" d="M422,169.51c23.41-2.84,29.64,7.64,29.64,24.16,0,18.42-6,29.15-29.64,32l-9.14,1.1v24.94l-19.3,2.34V173ZM412.88,209l8.34-1c8.14-1,9-3.45,9-11.43,0-7.52-.9-10.22-9-9.24l-8.34,1Z" transform="translate(-80.41 -52.07)"/><path class="cls-2" d="M179.87,736.68v-9.44l7.83-1V694.76l-9.44,9.68L173,697.6l15.87-16.08,9.25-1.12V725l7-.86v9.44Z" transform="translate(-80.41 -52.07)"/><path class="cls-2" d="M246.25,700.33c0,19-5,29.89-18.83,31.56a17.63,17.63,0,0,1-15.67-5.81l5-7.8a11.49,11.49,0,0,0,10.12,3.79c5.22-.63,7.57-3.31,8.37-11.12a28.78,28.78,0,0,1-7.3,1.93c-10.11,1.23-15.88-2.87-15.88-15.45,0-12.13,4.89-20.44,17.42-22C242.83,673.86,246.25,682.21,246.25,700.33Zm-10.59,1.36v-.23c0-14.9-1.8-17.23-6.7-16.63s-6.29,3.38-6.29,10.19c0,7.57,1.94,9.13,6.5,8.58A19.85,19.85,0,0,0,235.66,701.69Z" transform="translate(-80.41 -52.07)"/><path class="cls-2" d="M286.84,696.77c0,18.12-4.42,28.47-17.62,30.07s-17.75-7.67-17.75-25.79c0-18.95,5.36-28.88,17.69-30.38S286.84,677.82,286.84,696.77Zm-24.79,2.85c0,13.78,1.81,17.83,7.17,17.18s7-5.11,7-18.89c0-14.46-1.68-17.92-7-17.27S262.05,685.16,262.05,699.62Z" transform="translate(-80.41 -52.07)"/><path class="cls-2" d="M327.1,691.9c0,18.12-4.42,28.47-17.62,30.06s-17.75-7.66-17.75-25.78c0-18.95,5.36-28.89,17.68-30.38S327.1,673,327.1,691.9Zm-24.79,2.85c0,13.78,1.81,17.83,7.17,17.18s7-5.11,7-18.89c0-14.46-1.68-17.93-7-17.28S302.31,680.29,302.31,694.75Z" transform="translate(-80.41 -52.07)"/><path class="cls-2" d="M350.07,690.91v9.44l-16.48,2v-9.43Z" transform="translate(-80.41 -52.07)"/><path class="cls-2" d="M357,670.16c4.15-6,10.65-11.4,18.42-12.34,10.72-1.3,15.07,4.46,15.07,14.72,0,7.12-1.81,12.73-8.91,20.33l-9.77,10.54,20-2.41v10l-34,4.12v-9.21l15-16c5.7-6.08,6.57-9.93,6.57-14.28,0-4.19-1.61-7-5.56-6.51-3.75.45-7.44,2.62-11.26,8Z" transform="translate(-80.41 -52.07)"/><path class="cls-2" d="M432.13,679.18c0,18.13-4.42,28.47-17.62,30.07s-17.75-7.66-17.75-25.79c0-18.94,5.36-28.88,17.68-30.37S432.13,660.24,432.13,679.18ZM407.34,682c0,13.78,1.81,17.83,7.17,17.18s7-5.11,7-18.89c0-14.45-1.68-17.92-7-17.27S407.34,667.58,407.34,682Z" transform="translate(-80.41 -52.07)"/><path class="cls-2" d="M437.49,660.41c4.15-6,10.65-11.4,18.42-12.34,10.72-1.3,15.07,4.47,15.07,14.73,0,7.11-1.81,12.72-8.91,20.32l-9.78,10.55,20-2.42v10l-34,4.12v-9.22l15-16c5.69-6.08,6.56-9.93,6.56-14.27s-1.6-7-5.56-6.52c-3.75.46-7.43,2.63-11.25,8Z" transform="translate(-80.41 -52.07)"/><path class="cls-2" d="M486.19,699.6v-9.44l7.83-.94V657.69l-9.44,9.68-5.29-6.85,15.87-16.08,9.24-1.11V688l7-.85v9.43Z" transform="translate(-80.41 -52.07)"/></svg>