<svg id="Calque_1" data-name="Calque 1" xmlns="http://www.w3.org/2000/svg" xmlns:xlink="http://www.w3.org/1999/xlink" width="611" height="270" viewBox="0 0 611 270"><defs><style>.cls-1{fill:none;}.cls-2{clip-path:url(#clip-path);}.cls-3{fill:#f7f7f7;}.cls-4{fill:#c5e2ff;}.cls-5{fill:#303030;}.cls-6{fill:#4f3f36;}.cls-7{fill:#546;stroke:#546;stroke-miterlimit:10;stroke-width:0.25px;}</style><clipPath id="clip-path"><rect class="cls-1" x="5.4" y="6.2" width="600.7" height="260.9"/></clipPath></defs><title>testticketarr_Plan de travail2</title><g class="cls-2"><rect class="cls-3" x="-10.1" y="-0.7" width="628.7" height="276"/></g><g class="cls-2"><path class="cls-4" d="M568.2,193.3H537.9a9,9,0,0,0-9,9v30.8a9,9,0,0,0,9,9h30.3a9,9,0,0,0,9-9V202.3A9,9,0,0,0,568.2,193.3Z"/><ellipse class="cls-3" cx="552.99" cy="203.79" rx="5.5" ry="4.5" transform="translate(226.12 694.18) rotate(-76.54)"/><path class="cls-3" d="M538.5,219.6s2.5-7.5,17.6-8.3c0,0,6.4.2,10.7-3.6,0,0,.9,3.5-11.9,7.7C554.9,215.4,542.1,216.6,538.5,219.6Z"/><path class="cls-3" d="M538.3,236.9s8-12.2,11.3-15,3.6-2.8,5.2-2.7a5.75,5.75,0,0,1,2.8,1l12.6,16.7-6-.2s-1.6.4-4.8-3.8l-3.8-5.9s-3-3.3-5.5-3.2-7.2,8.8-7.2,8.8S540.5,236.3,538.3,236.9Z"/><path class="cls-4" d="M326.1,191.1h4.7l3.6,5.2h-4.1l-2-2.8-2,2.8h-4.1Zm-1.1,7.5h6.7v19.2H325Z"/><path class="cls-4" d="M336.2,191.3h6.7v26.5h-6.7Z"/><path class="cls-4" d="M366.5,210H353.1a4.19,4.19,0,0,0,.9,2.6,3,3,0,0,0,2.5,1.2,4.14,4.14,0,0,0,1.9-.5,4.46,4.46,0,0,0,1.2-1.2l6.6.7a10.82,10.82,0,0,1-3.6,4.2,12.57,12.57,0,0,1-6.1,1.3,11.45,11.45,0,0,1-5.4-1.1,9,9,0,0,1-3.3-3.4,10.92,10.92,0,0,1-1.3-5.5,10.51,10.51,0,0,1,2.6-7.3,9.27,9.27,0,0,1,7.2-2.8,12.08,12.08,0,0,1,5.9,1.2,8.27,8.27,0,0,1,3.3,3.6,13.78,13.78,0,0,1,1.1,6.2v.8Zm-6.8-3.5a6,6,0,0,0-1-3.1,2.94,2.94,0,0,0-2.2-.9,2.85,2.85,0,0,0-2.5,1.4,5.32,5.32,0,0,0-.8,2.6Z"/><path class="cls-4" d="M378,217.8V216a4.1,4.1,0,0,1-3.8,2.2,4.72,4.72,0,0,1-3-1,7.05,7.05,0,0,1-2.1-2.7,11.78,11.78,0,0,1,0-8,5.79,5.79,0,0,1,2-2.8,5.39,5.39,0,0,1,3-1,4.29,4.29,0,0,1,3.7,2.1v-7.3h2.3V218H378Zm-7.2-7.4a7.36,7.36,0,0,0,1.1,4.3,3.28,3.28,0,0,0,2.6,1.4,3,3,0,0,0,2.5-1.3,6.71,6.71,0,0,0,1-4.1,7.84,7.84,0,0,0-1.1-4.5,3.28,3.28,0,0,0-2.6-1.4,3,3,0,0,0-2.5,1.4C371.1,207,370.8,208.5,370.8,210.4Z"/><path class="cls-4" d="M392.9,213.1l2.4.3a6.5,6.5,0,0,1-2.1,3.5,6.38,6.38,0,0,1-8.5-.7c-1.2-1.3-1.7-3.2-1.7-5.6a9.1,9.1,0,0,1,1.7-5.8,5.68,5.68,0,0,1,4.5-2.1,5.56,5.56,0,0,1,4.4,2,8.62,8.62,0,0,1,1.7,5.7v.7h-10a5.66,5.66,0,0,0,1.3,3.7,3.54,3.54,0,0,0,2.8,1.3,3.14,3.14,0,0,0,2.1-.7A7,7,0,0,0,392.9,213.1Zm-7.5-4.1h7.5a5.15,5.15,0,0,0-.9-2.8,3.39,3.39,0,0,0-5.4-.3A5.1,5.1,0,0,0,385.4,209Z"/><path class="cls-4" d="M398.9,191.3h18.4V197H406.4v4.6h9.3V207h-9.3v10.8h-7.5Z"/><path class="cls-4" d="M419.7,198.6h6.2v3.1a6.45,6.45,0,0,1,1.9-2.8,3.85,3.85,0,0,1,2.4-.8,6,6,0,0,1,3.2,1l-2.1,5.2a4.11,4.11,0,0,0-1.9-.5,2.1,2.1,0,0,0-2,1.2c-.7,1.1-1,3.2-1,6.3v6.4h-6.7Z"/><path class="cls-4" d="M441.2,204.8l-6.4-.7a8.89,8.89,0,0,1,1-2.9,5.86,5.86,0,0,1,2-1.8,7.28,7.28,0,0,1,2.5-.9,19,19,0,0,1,3.5-.3,20.93,20.93,0,0,1,4.8.4,6.1,6.1,0,0,1,3,1.5,4.65,4.65,0,0,1,1.3,2.3,9.75,9.75,0,0,1,.5,2.8v8.5a10.61,10.61,0,0,0,.2,2.1,8,8,0,0,0,.7,2H448a8,8,0,0,1-.5-1.1,3.73,3.73,0,0,1-.2-1.2,9.08,9.08,0,0,1-2.6,2,10.7,10.7,0,0,1-4.1.8c-2.1,0-3.7-.5-4.7-1.6a5.28,5.28,0,0,1-1.6-3.9,5.22,5.22,0,0,1,1.2-3.6,8.19,8.19,0,0,1,4.3-2.1c2.5-.6,4.1-.9,4.9-1.2a18.63,18.63,0,0,0,2.4-.9,3.09,3.09,0,0,0-.5-1.9c-.3-.4-.9-.5-1.8-.5a4.4,4.4,0,0,0-2.5.6C441.8,203.4,441.5,204,441.2,204.8Zm5.8,3.9a24.69,24.69,0,0,1-2.9,1,6.24,6.24,0,0,0-2.6,1.2,2.06,2.06,0,0,0-.1,2.8,2.36,2.36,0,0,0,1.6.6,4.2,4.2,0,0,0,2.1-.6,4,4,0,0,0,1.4-1.5,4.81,4.81,0,0,0,.4-2.2v-1.3Z"/><path class="cls-4" d="M457.5,198.6h6.2v3.1a8.77,8.77,0,0,1,2.8-2.7,7.24,7.24,0,0,1,3.5-.8,5.37,5.37,0,0,1,4.3,1.8,8.69,8.69,0,0,1,1.6,5.6v12.2h-6.7V207.2a4.33,4.33,0,0,0-.6-2.6,2.14,2.14,0,0,0-1.7-.8,2.33,2.33,0,0,0-2,1,6.37,6.37,0,0,0-.8,3.6v9.2h-6.7v-19Z"/><path class="cls-4" d="M492.9,210.3l6.3.8a11,11,0,0,1-1.7,3.8,7.65,7.65,0,0,1-3.1,2.5,10.94,10.94,0,0,1-4.7.9,15.1,15.1,0,0,1-4.6-.6,9.16,9.16,0,0,1-3.2-1.8,8.13,8.13,0,0,1-2.1-3,13.71,13.71,0,0,1,.1-9.5,9.31,9.31,0,0,1,1.8-2.6,8.86,8.86,0,0,1,2.4-1.7,12.09,12.09,0,0,1,5-.9,10.94,10.94,0,0,1,6.5,1.7,8.88,8.88,0,0,1,3.1,4.9l-6.3.9a4,4,0,0,0-1.1-1.9,3.28,3.28,0,0,0-2.1-.6,3.23,3.23,0,0,0-2.7,1.3,6.39,6.39,0,0,0-1,4,5.34,5.34,0,0,0,1,3.6,3.58,3.58,0,0,0,4.8.5A3.51,3.51,0,0,0,492.9,210.3Z"/><path class="cls-4" d="M521.7,210H508.3a4.19,4.19,0,0,0,.9,2.6,3,3,0,0,0,2.5,1.2,4.14,4.14,0,0,0,1.9-.5,4.46,4.46,0,0,0,1.2-1.2l6.6.7a10.82,10.82,0,0,1-3.6,4.2,12.57,12.57,0,0,1-6.1,1.3,11.45,11.45,0,0,1-5.4-1.1,9,9,0,0,1-3.3-3.4,10.67,10.67,0,0,1-1.3-5.5,10.51,10.51,0,0,1,2.6-7.3,9.27,9.27,0,0,1,7.2-2.8,12.08,12.08,0,0,1,5.9,1.2,8.27,8.27,0,0,1,3.3,3.6,13.78,13.78,0,0,1,1.1,6.2v.8Zm-6.8-3.5a6,6,0,0,0-1-3.1,2.5,2.5,0,0,0-2.2-.9,2.85,2.85,0,0,0-2.5,1.4,5.32,5.32,0,0,0-.8,2.6Z"/><path class="cls-5" d="M434.3,226.2v2.1a4,4,0,0,1,3.7-2.5,2.49,2.49,0,0,1,2.6,2.5,4.21,4.21,0,0,1,3.8-2.5c1.7,0,2.6,1.2,2.6,3.1v8.3h-2v-7.7c0-1.4-.4-2.2-1.5-2.2-1.4,0-2.8,1.7-2.8,3.3v6.5h-2v-7.7c0-1.4-.4-2.2-1.5-2.2-1.4,0-2.8,1.7-2.8,3.3V237h-2V225.9h1.9Z"/><path class="cls-5" d="M459.9,231.8c0,4.1-2,5.9-5,5.9s-5-1.7-5-5.9,1.9-5.9,5-5.9S459.9,227.5,459.9,231.8Zm-7.8,0c0,3.4,1.1,4.2,2.8,4.2s2.8-.8,2.8-4.2c0-3.1-.8-4.3-2.8-4.3S452.1,228.7,452.1,231.8Z"/><path class="cls-5" d="M464.7,220.2v7.3a4.16,4.16,0,0,1,3.4-1.7c2.7,0,4.2,1.9,4.2,5.9s-1.5,5.9-4.2,5.9a4,4,0,0,1-3.4-1.6v1.3h-2V220.2Zm0,13.3a2.67,2.67,0,0,0,2.8,2.5c1.6,0,2.6-1,2.6-4.2,0-2.9-.7-4.3-2.6-4.3a2.6,2.6,0,0,0-2.8,2.3Z"/><path class="cls-5" d="M477.2,221.9v1.9h-2v-1.9Zm0,4.3v11.1h-2V226.2Z"/><path class="cls-5" d="M482.9,220.2v14.7c0,.8.5,1.2,1.6,1.3l-.3,1.4c-2.2-.2-3.3-.8-3.3-2.2V220.2Z"/><path class="cls-5" d="M488.7,221.9v1.9h-2v-1.9Zm0,4.3v11.1h-2V226.2Z"/><path class="cls-5" d="M492.7,226.2v-3.1h2v3.1h2.9v1.5h-2.9v6.8c0,1.1.2,1.5,1,1.5a2.36,2.36,0,0,0,1.6-.7l.7,1.1a3.22,3.22,0,0,1-2.7,1.1c-1.7,0-2.6-.9-2.6-2.8v-7.1h-1.6v-1.5h1.6Z"/><path class="cls-5" d="M501.6,231.7h0c0,3.2,1.1,4.3,2.8,4.3a3.91,3.91,0,0,0,3.3-2l1.3.9a5.3,5.3,0,0,1-4.7,2.7c-2.9,0-4.9-1.9-4.9-5.9,0-3.7,1.7-5.9,4.9-5.9s4.5,1.8,4.5,5.1v.8Zm.1-1.4h5.2c0-2.2-.7-3-2.5-3C502.8,227.3,501.9,228.2,501.7,230.3Zm5.6-9.6-3.3,4.1-1-.2,2-3.9Z"/><path class="cls-5" d="M511.6,234.1a3.91,3.91,0,0,0,3.6,2c1.4,0,2.4-.5,2.4-1.8,0-3.2-6.7-.7-6.7-5.3,0-1.9,1.6-3.1,4-3.1a4.77,4.77,0,0,1,4.5,2.4l-1.1.9a4.07,4.07,0,0,0-3.5-1.9c-1.3,0-2,.5-2,1.5,0,2.7,6.7.4,6.7,5.3,0,2.3-1.7,3.5-4.4,3.5a4.87,4.87,0,0,1-4.7-2.7Z"/></g><g class="cls-2"><path class="cls-4" d="M188.2,188.7H157.9a9,9,0,0,0-9,9v30.8a9,9,0,0,0,9,9h30.3a9,9,0,0,0,9-9V197.7A9,9,0,0,0,188.2,188.7Z"/><ellipse class="cls-3" cx="172.93" cy="199.22" rx="5.5" ry="4.5" transform="translate(-61.06 321.05) rotate(-76.54)"/><path class="cls-3" d="M158.4,214.9s2.5-7.5,17.6-8.3c0,0,6.4.2,10.7-3.6,0,0,.9,3.5-11.9,7.7C174.8,210.7,162.1,212,158.4,214.9Z"/><path class="cls-3" d="M158.2,232.3s8-12.2,11.3-15,3.6-2.8,5.2-2.7a5.75,5.75,0,0,1,2.8,1l12.6,16.7-6-.2s-1.6.4-4.8-3.8l-3.8-5.9s-3-3.3-5.5-3.2-7.2,8.8-7.2,8.8S160.4,231.7,158.2,232.3Z"/><path class="cls-4" d="M12.8,208.4l2.4.3a6.5,6.5,0,0,1-2.1,3.5,6,6,0,0,1-3.8,1.3,6,6,0,0,1-4.7-2c-1.2-1.3-1.7-3.2-1.7-5.6a9.1,9.1,0,0,1,1.7-5.8A5.68,5.68,0,0,1,9.1,198a5.56,5.56,0,0,1,4.4,2,8.62,8.62,0,0,1,1.7,5.7v.7H5.2a5.66,5.66,0,0,0,1.3,3.7,3.54,3.54,0,0,0,2.8,1.3,3.14,3.14,0,0,0,2.1-.7A4.54,4.54,0,0,0,12.8,208.4Zm-7.5-4h7.5a5.15,5.15,0,0,0-.9-2.8,3.39,3.39,0,0,0-5.4-.3A4.86,4.86,0,0,0,5.3,204.4Z"/><path class="cls-4" d="M18.8,186.7H37.2v5.7H26.3V197h9.3v5.4H26.3v10.8H18.8Z"/><path class="cls-4" d="M39.6,194h6.2v3.1a6.45,6.45,0,0,1,1.9-2.8,3.85,3.85,0,0,1,2.4-.8,6,6,0,0,1,3.2,1l-2.1,5.2a4.11,4.11,0,0,0-1.9-.5,2.1,2.1,0,0,0-2,1.2c-.7,1.1-1,3.2-1,6.3v6.4H39.6Z"/><path class="cls-4" d="M61.1,200.2l-6.4-.7a8.89,8.89,0,0,1,1-2.9,5.86,5.86,0,0,1,2-1.8,7.28,7.28,0,0,1,2.5-.9,19,19,0,0,1,3.5-.3,20.93,20.93,0,0,1,4.8.4,6.1,6.1,0,0,1,3,1.5,4.65,4.65,0,0,1,1.3,2.3,9.75,9.75,0,0,1,.5,2.8v8.5a10.61,10.61,0,0,0,.2,2.1,8,8,0,0,0,.7,2H68a8,8,0,0,1-.5-1.1,3.73,3.73,0,0,1-.2-1.2,9.08,9.08,0,0,1-2.6,2,10.7,10.7,0,0,1-4.1.8c-2.1,0-3.7-.5-4.7-1.6a5.28,5.28,0,0,1-1.6-3.9,5.22,5.22,0,0,1,1.2-3.6,8.19,8.19,0,0,1,4.3-2.1c2.5-.6,4.1-.9,4.9-1.2a18.63,18.63,0,0,0,2.4-.9,3.09,3.09,0,0,0-.5-1.9c-.3-.4-.9-.5-1.8-.5a4.4,4.4,0,0,0-2.5.6A2.62,2.62,0,0,0,61.1,200.2Zm5.8,3.9a24.69,24.69,0,0,1-2.9,1,6.24,6.24,0,0,0-2.6,1.2,2.06,2.06,0,0,0-.1,2.8,2.36,2.36,0,0,0,1.6.6,4.2,4.2,0,0,0,2.1-.6,4,4,0,0,0,1.4-1.5,4.81,4.81,0,0,0,.4-2.2v-1.3Z"/><path class="cls-4" d="M77.5,194h6.2v3.1a8.77,8.77,0,0,1,2.8-2.7,7.54,7.54,0,0,1,3.5-.8,5.37,5.37,0,0,1,4.3,1.8,8.69,8.69,0,0,1,1.6,5.6v12.2H89.2V202.6a4.33,4.33,0,0,0-.6-2.6,2.14,2.14,0,0,0-1.7-.8,2.33,2.33,0,0,0-2,1,6.37,6.37,0,0,0-.8,3.6V213H77.4V194Z"/><path class="cls-4" d="M112.9,205.7l6.3.8a11,11,0,0,1-1.7,3.8,7.65,7.65,0,0,1-3.1,2.5,10.94,10.94,0,0,1-4.7.9,15.1,15.1,0,0,1-4.6-.6,9.16,9.16,0,0,1-3.2-1.8,8.13,8.13,0,0,1-2.1-3,13.71,13.71,0,0,1,.1-9.5,9.31,9.31,0,0,1,1.8-2.6,8.86,8.86,0,0,1,2.4-1.7,12.09,12.09,0,0,1,5-.9,10.94,10.94,0,0,1,6.5,1.7,8.88,8.88,0,0,1,3.1,4.9l-6.3.9a4,4,0,0,0-1.1-1.9,3.28,3.28,0,0,0-2.1-.6,3.23,3.23,0,0,0-2.7,1.3,6.39,6.39,0,0,0-1,4,5.34,5.34,0,0,0,1,3.6,3.58,3.58,0,0,0,4.8.5A3.89,3.89,0,0,0,112.9,205.7Z"/><path class="cls-4" d="M141.6,205.4H128.2a4.19,4.19,0,0,0,.9,2.6,3,3,0,0,0,2.5,1.2,4.14,4.14,0,0,0,1.9-.5,4.46,4.46,0,0,0,1.2-1.2l6.6.7a10.82,10.82,0,0,1-3.6,4.2,12.57,12.57,0,0,1-6.1,1.3,11.45,11.45,0,0,1-5.4-1.1,9,9,0,0,1-3.3-3.4,10.92,10.92,0,0,1-1.3-5.5,10.51,10.51,0,0,1,2.6-7.3,9.27,9.27,0,0,1,7.2-2.8,12.08,12.08,0,0,1,5.9,1.2,8.27,8.27,0,0,1,3.3,3.6,13.78,13.78,0,0,1,1.1,6.2v.8Zm-6.8-3.5a6,6,0,0,0-1-3.1,2.94,2.94,0,0,0-2.2-.9,2.85,2.85,0,0,0-2.5,1.4,5.32,5.32,0,0,0-.8,2.6Z"/><path class="cls-5" d="M54.3,221.6v2.1a4,4,0,0,1,3.7-2.5,2.49,2.49,0,0,1,2.6,2.5,4.11,4.11,0,0,1,3.8-2.5c1.7,0,2.6,1.2,2.6,3.1v8.3H65v-7.7c0-1.4-.4-2.2-1.5-2.2-1.4,0-2.8,1.7-2.8,3.3v6.5h-2v-7.7c0-1.4-.4-2.2-1.5-2.2-1.4,0-2.8,1.7-2.8,3.3v6.5h-2V221.3h1.9Z"/><path class="cls-5" d="M79.8,227.2c0,4.1-2,5.9-5,5.9s-5-1.7-5-5.9,1.9-5.9,5-5.9S79.8,222.9,79.8,227.2Zm-7.8,0c0,3.4,1.1,4.2,2.8,4.2s2.8-.8,2.8-4.2c0-3.1-.8-4.3-2.8-4.3S72,224,72,227.2Z"/><path class="cls-5" d="M84.7,215.6v7.3a4.16,4.16,0,0,1,3.4-1.7c2.7,0,4.2,1.9,4.2,5.9s-1.5,5.9-4.2,5.9a4,4,0,0,1-3.4-1.6v1.3h-2V215.6Zm0,13.3a2.67,2.67,0,0,0,2.8,2.5c1.6,0,2.6-1,2.6-4.2,0-2.9-.7-4.3-2.6-4.3a2.6,2.6,0,0,0-2.8,2.3Z"/><path class="cls-5" d="M97.2,217.3v1.9h-2v-1.9Zm0,4.3v11.1h-2V221.6Z"/><path class="cls-5" d="M102.8,215.6v14.7c0,.8.5,1.2,1.6,1.3l-.3,1.4c-2.2-.2-3.3-.8-3.3-2.2V215.6Z"/><path class="cls-5" d="M108.6,217.3v1.9h-2v-1.9Zm0,4.3v11.1h-2V221.6Z"/><path class="cls-5" d="M112.6,221.6v-3.1h2v3.1h2.9v1.5h-2.9v6.8c0,1.1.2,1.5,1,1.5a2.36,2.36,0,0,0,1.6-.7l.7,1.1a3.22,3.22,0,0,1-2.7,1.1c-1.7,0-2.6-.9-2.6-2.8V223H111v-1.5h1.6Z"/><path class="cls-5" d="M121.6,227.1h0c0,3.2,1.1,4.3,2.8,4.3a3.91,3.91,0,0,0,3.3-2l1.3.9a5.42,5.42,0,0,1-4.7,2.7c-2.9,0-4.9-1.9-4.9-5.9,0-3.7,1.7-5.9,4.9-5.9s4.5,1.8,4.5,5.1v.8Zm0-1.4h5.2c0-2.2-.7-3-2.5-3C122.7,222.7,121.9,223.6,121.6,225.7Zm5.6-9.7-3.3,4.1-1-.2,2-3.9Z"/><path class="cls-5" d="M131.6,229.4a3.91,3.91,0,0,0,3.6,2c1.4,0,2.4-.5,2.4-1.8,0-3.2-6.7-.7-6.7-5.3,0-1.9,1.6-3.1,4-3.1a4.77,4.77,0,0,1,4.5,2.4l-1.1.9a4.07,4.07,0,0,0-3.5-1.9c-1.3,0-2,.5-2,1.5,0,2.7,6.7.4,6.7,5.3,0,2.3-1.7,3.5-4.4,3.5a4.87,4.87,0,0,1-4.7-2.7Z"/></g><g class="cls-2"><rect class="cls-6" x="-30.5" y="109.1" width="653.6" height="56.2"/></g><g class="cls-2"><path class="cls-4" d="M348.8,27V41.4h-1.7V27Z"/><path class="cls-4" d="M353.4,32v1.8a3,3,0,0,1,2.8-2.1c1.1,0,1.8.8,2,2.1a3.13,3.13,0,0,1,2.9-2.1c1.3,0,2,1,2,2.6v7h-1.5V35c0-1.2-.3-1.8-1.2-1.8-1.1,0-2.2,1.4-2.2,2.8v5.5h-1.5V35c0-1.2-.3-1.8-1.2-1.8-1.1,0-2.2,1.4-2.2,2.8v5.5h-1.5V32Z"/><path class="cls-4" d="M365.7,33.7a4.47,4.47,0,0,1,3.8-1.9c2.1,0,2.6,1,2.6,2.7v4.9c0,.7.4,1,1.2,1.1l-.2,1.2c-1.7-.2-2.2-.7-2.3-1.7a3.11,3.11,0,0,1-2.8,1.7,2.39,2.39,0,0,1-2.5-2.6c0-2,1.3-3.3,5.2-3.6v-.9c0-1.1-.3-1.5-1.3-1.5a3.34,3.34,0,0,0-2.8,1.5Zm4.9,2.8c-2.8.2-3.6,1-3.6,2.2s.5,1.5,1.3,1.5a2.31,2.31,0,0,0,2.3-2.2V36.5Z"/><path class="cls-4" d="M383.4,32v1.3a16.46,16.46,0,0,1-2.1-.2,3.2,3.2,0,0,1,.8,2.2c0,2.1-1.4,3.1-3.4,3.1a4,4,0,0,1-2.2-.6,1.51,1.51,0,0,0-.7,1.4c0,.9.6,1.2,1.8,1.2.6,0,1.8-.2,2.6-.2,1.9,0,3,.7,3,2.7,0,2.3-1.6,3.6-4.6,3.6q-3.9,0-3.9-2.7a2.87,2.87,0,0,1,1-2.2,2,2,0,0,1-1.2-2.1,2.54,2.54,0,0,1,1.4-2.3,3.28,3.28,0,0,1-.6-2.1,3.08,3.08,0,0,1,3.3-3.4C379.9,31.8,381.8,32,383.4,32Zm-6.5,9.7a2.61,2.61,0,0,0-.7,1.7c0,1.2.7,1.8,2.5,1.8s2.9-.8,2.9-2.1-.5-1.5-1.8-1.5c-.6,0-1.7.1-2.5.1C377.1,41.8,377,41.7,376.9,41.7Zm0-6.6c0,1.7.8,2.2,1.9,2.2s1.8-.4,1.8-2.2c0-1.6-.6-2.1-1.8-2.1S376.9,33.5,376.9,35.1Z"/><path class="cls-4" d="M386.7,28.4V30h-1.5V28.4Zm0,3.6v9.4h-1.5V32Z"/><path class="cls-4" d="M391.2,32v1.8a3.25,3.25,0,0,1,3.1-2c1.5,0,2.2.9,2.2,2.6v7H395V34.9c0-1.1-.4-1.7-1.4-1.7-1.4,0-2.4,1.5-2.4,2.9v5.3h-1.5V32Z"/><path class="cls-4" d="M400.5,36.7h0c0,2.7.9,3.6,2.1,3.6a2.83,2.83,0,0,0,2.5-1.7l1,.8a4.15,4.15,0,0,1-3.6,2.3c-2.2,0-3.7-1.6-3.7-4.9,0-3.1,1.3-5,3.8-5s3.5,1.5,3.5,4.3v.7h-5.6Zm.1-1.2h4c0-1.8-.6-2.5-1.9-2.5S400.7,33.7,400.6,35.5Z"/><path class="cls-4" d="M408.8,40.1h1.7L409,44.3h-1Z"/><path class="cls-4" d="M424.4,36.7c0,3.5-1.5,4.9-3.8,4.9s-3.8-1.5-3.8-4.9c0-3.6,1.5-5,3.8-5S424.4,33.1,424.4,36.7Zm-5.9,0c0,2.9.8,3.6,2.1,3.6s2.1-.7,2.1-3.6c0-2.6-.6-3.6-2.1-3.6S418.5,34.1,418.5,36.7Z"/><path class="cls-4" d="M428.3,32v1.9a2.66,2.66,0,0,1,2.9-2v1.5c-2,0-2.9,1.2-2.9,2.6v5.4h-1.5V32Z"/><path class="cls-4" d="M440.5,32v1.3a16.46,16.46,0,0,1-2.1-.2,3.2,3.2,0,0,1,.8,2.2c0,2.1-1.4,3.1-3.4,3.1a4,4,0,0,1-2.2-.6,1.51,1.51,0,0,0-.7,1.4c0,.9.6,1.2,1.8,1.2.6,0,1.8-.2,2.6-.2,1.9,0,3,.7,3,2.7,0,2.3-1.6,3.6-4.6,3.6q-3.9,0-3.9-2.7a2.87,2.87,0,0,1,1-2.2,2,2,0,0,1-1.2-2.1,2.54,2.54,0,0,1,1.4-2.3,3.28,3.28,0,0,1-.6-2.1,3.08,3.08,0,0,1,3.3-3.4C437,31.8,438.9,32,440.5,32ZM434,41.7a2.61,2.61,0,0,0-.7,1.7c0,1.2.7,1.8,2.5,1.8s2.9-.8,2.9-2.1-.5-1.5-1.8-1.5c-.6,0-1.7.1-2.5.1C434.3,41.8,434.2,41.7,434,41.7Zm0-6.6c0,1.7.8,2.2,1.9,2.2s1.8-.4,1.8-2.2c0-1.6-.6-2.1-1.8-2.1S434,33.5,434,35.1Z"/><path class="cls-4" d="M441.8,33.7a4.47,4.47,0,0,1,3.8-1.9c2.1,0,2.6,1,2.6,2.7v4.9c0,.7.4,1,1.2,1.1l-.2,1.2c-1.7-.2-2.2-.7-2.3-1.7a3.11,3.11,0,0,1-2.8,1.7,2.39,2.39,0,0,1-2.5-2.6c0-2,1.3-3.3,5.2-3.6v-.9c0-1.1-.3-1.5-1.3-1.5a3.34,3.34,0,0,0-2.8,1.5Zm4.9,2.8c-2.8.2-3.6,1-3.6,2.2s.5,1.5,1.3,1.5a2.31,2.31,0,0,0,2.3-2.2V36.5Z"/><path class="cls-4" d="M452.7,32v1.8a3.25,3.25,0,0,1,3.1-2c1.5,0,2.2.9,2.2,2.6v7h-1.5V34.9c0-1.1-.4-1.7-1.4-1.7-1.4,0-2.4,1.5-2.4,2.9v5.3h-1.5V32Z"/><path class="cls-4" d="M462.5,28.4V30H461V28.4Zm0,3.6v9.4H461V32Z"/><path class="cls-4" d="M465.3,38.6a2.92,2.92,0,0,0,2.8,1.7c1.1,0,1.8-.4,1.8-1.5,0-2.7-5.1-.6-5.1-4.5,0-1.6,1.3-2.6,3-2.6a3.52,3.52,0,0,1,3.4,2l-.8.8a3.12,3.12,0,0,0-2.6-1.6q-1.5,0-1.5,1.2c0,2.3,5.1.4,5.1,4.5,0,2-1.3,3-3.4,3a3.75,3.75,0,0,1-3.6-2.3Z"/><path class="cls-4" d="M474.6,36.7h0c0,2.7.9,3.6,2.1,3.6a2.83,2.83,0,0,0,2.5-1.7l1,.8a4.15,4.15,0,0,1-3.6,2.3c-2.2,0-3.7-1.6-3.7-4.9,0-3.1,1.3-5,3.8-5s3.5,1.5,3.5,4.3v.7h-5.6Zm.1-1.2h4c0-1.8-.6-2.5-1.9-2.5S474.9,33.7,474.7,35.5Z"/><path class="cls-4" d="M487.9,36.7h0c0,2.7.9,3.6,2.1,3.6a2.83,2.83,0,0,0,2.5-1.7l1,.8a4.15,4.15,0,0,1-3.6,2.3c-2.2,0-3.7-1.6-3.7-4.9,0-3.1,1.3-5,3.8-5s3.5,1.5,3.5,4.3v.7h-5.6Zm.1-1.2h4c0-1.8-.6-2.5-1.9-2.5S488.2,33.7,488,35.5Z"/><path class="cls-4" d="M496.1,32V29.4h1.5V32h2.2v1.3h-2.2v5.8c0,.9.2,1.3.8,1.3a1.43,1.43,0,0,0,1.2-.6l.5,1a2.66,2.66,0,0,1-2.1,1c-1.3,0-2-.8-2-2.4v-6h-1.2V32Z"/><path class="cls-4" d="M506.7,33.3h-1.2V32h1.2V29.6c0-2.1,1-3,3.1-3s3,1,3,2.8V30h-1.5v-.5a1.32,1.32,0,0,0-1.5-1.5c-1.2,0-1.6.6-1.6,1.7V32h4.6v9.4h-1.5V33.3h-3.1v8.1h-1.5V33.3Z"/><path class="cls-4" d="M517.2,32v1.8a3.25,3.25,0,0,1,3.1-2c1.5,0,2.2.9,2.2,2.6v7H521V34.9c0-1.1-.4-1.7-1.4-1.7-1.4,0-2.4,1.5-2.4,2.9v5.3h-1.5V32Z"/><path class="cls-4" d="M525.2,33.7a4.47,4.47,0,0,1,3.8-1.9c2.1,0,2.6,1,2.6,2.7v4.9c0,.7.4,1,1.2,1.1l-.2,1.2c-1.7-.2-2.2-.7-2.3-1.7a3.11,3.11,0,0,1-2.8,1.7,2.39,2.39,0,0,1-2.5-2.6c0-2,1.3-3.3,5.2-3.6v-.9c0-1.1-.3-1.5-1.3-1.5a3.34,3.34,0,0,0-2.8,1.5Zm4.9,2.8c-2.8.2-3.6,1-3.6,2.2s.5,1.5,1.3,1.5a2.31,2.31,0,0,0,2.3-2.2Z"/><path class="cls-4" d="M536.1,32v1.8a3.25,3.25,0,0,1,3.1-2c1.5,0,2.2.9,2.2,2.6v7H540V34.9c0-1.1-.4-1.7-1.4-1.7-1.4,0-2.4,1.5-2.4,2.9v5.3h-1.5V32Z"/><path class="cls-4" d="M550.9,34l-1.1.8a2.74,2.74,0,0,0-2.3-1.6c-1.5,0-2.1,1.1-2.1,3.5,0,2.6.8,3.5,2.1,3.5a2.73,2.73,0,0,0,2.3-1.7l1.1.8a4,4,0,0,1-3.4,2.4c-2.2,0-3.7-1.6-3.7-4.9,0-3.1,1.2-5,3.7-5A3.76,3.76,0,0,1,550.9,34Z"/><path class="cls-4" d="M554,36.7h0c0,2.7.9,3.6,2.1,3.6a2.83,2.83,0,0,0,2.5-1.7l1,.8a4.15,4.15,0,0,1-3.6,2.3c-2.2,0-3.7-1.6-3.7-4.9,0-3.1,1.3-5,3.8-5s3.5,1.5,3.5,4.3v.7H554Zm.1-1.2h4c0-1.8-.6-2.5-1.9-2.5S554.3,33.7,554.1,35.5Z"/><path class="cls-4" d="M380.4,52V49.4h1.5V52h2.2v1.3h-2.2v5.8c0,.9.2,1.3.8,1.3a1.43,1.43,0,0,0,1.2-.6l.5,1a2.66,2.66,0,0,1-2.1,1c-1.3,0-2-.8-2-2.4v-6h-1.2V52Z"/><path class="cls-4" d="M393.3,56.7c0,3.5-1.5,4.9-3.8,4.9s-3.8-1.5-3.8-4.9c0-3.6,1.5-5,3.8-5S393.3,53.1,393.3,56.7Zm-5.9,0c0,2.9.8,3.6,2.1,3.6s2.1-.7,2.1-3.6c0-2.6-.6-3.6-2.1-3.6S387.4,54.1,387.4,56.7Z"/><path class="cls-4" d="M397.2,52v6.5c0,1.2.4,1.8,1.3,1.8,1.2,0,2.3-1.4,2.3-2.8V52h1.5v9.4h-1.5V59.6a3.31,3.31,0,0,1-3,2.1c-1.5,0-2.2-1-2.2-2.6v-7h1.6Z"/><path class="cls-4" d="M405.5,52V49.4H407V52h2.2v1.3H407v5.8c0,.9.2,1.3.8,1.3a1.43,1.43,0,0,0,1.2-.6l.5,1a2.66,2.66,0,0,1-2.1,1c-1.3,0-2-.8-2-2.4v-6h-1.2V52Z"/><path class="cls-4" d="M412.5,56.7h0c0,2.7.9,3.6,2.1,3.6a2.83,2.83,0,0,0,2.5-1.7l1,.8a4.15,4.15,0,0,1-3.6,2.3c-2.2,0-3.7-1.6-3.7-4.9,0-3.1,1.3-5,3.8-5s3.5,1.5,3.5,4.3v.7h-5.6Zm.1-1.2h4c0-1.8-.6-2.5-1.9-2.5S412.7,53.7,412.6,55.5Z"/><path class="cls-4" d="M420.3,58.6a2.92,2.92,0,0,0,2.8,1.7c1.1,0,1.8-.4,1.8-1.5,0-2.7-5.1-.6-5.1-4.5,0-1.6,1.3-2.6,3-2.6a3.52,3.52,0,0,1,3.4,2l-.8.8a3.12,3.12,0,0,0-2.6-1.6q-1.5,0-1.5,1.2c0,2.3,5.1.4,5.1,4.5,0,2-1.3,3-3.4,3a3.75,3.75,0,0,1-3.6-2.3Z"/><path class="cls-4" d="M434.4,47V59.4c0,.6.4,1,1.2,1.1l-.2,1.2c-1.7-.2-2.5-.6-2.5-1.9V47Z"/><path class="cls-4" d="M438.5,56.7h0c0,2.7.9,3.6,2.1,3.6a2.83,2.83,0,0,0,2.5-1.7l1,.8a4.15,4.15,0,0,1-3.6,2.3c-2.2,0-3.7-1.6-3.7-4.9,0-3.1,1.3-5,3.8-5s3.5,1.5,3.5,4.3v.7h-5.6Zm.1-1.2h4c0-1.8-.6-2.5-1.9-2.5S438.8,53.7,438.6,55.5Z"/><path class="cls-4" d="M446.3,58.6a2.92,2.92,0,0,0,2.8,1.7c1.1,0,1.8-.4,1.8-1.5,0-2.7-5.1-.6-5.1-4.5,0-1.6,1.3-2.6,3-2.6a3.52,3.52,0,0,1,3.4,2l-.8.8a3.12,3.12,0,0,0-2.6-1.6q-1.5,0-1.5,1.2c0,2.3,5.1.4,5.1,4.5,0,2-1.3,3-3.4,3a3.75,3.75,0,0,1-3.6-2.3Z"/><path class="cls-4" d="M460.4,52v1.8a3,3,0,0,1,2.8-2.1c1.1,0,1.8.8,2,2.1a3.13,3.13,0,0,1,2.9-2.1c1.3,0,2,1,2,2.6v7h-1.5V54.8c0-1.2-.3-1.8-1.2-1.8-1.1,0-2.2,1.4-2.2,2.8v5.5h-1.5V54.8c0-1.2-.3-1.8-1.2-1.8-1.1,0-2.2,1.4-2.2,2.8v5.5h-1.5V52Z"/><path class="cls-4" d="M480.1,56.7c0,3.5-1.5,4.9-3.8,4.9s-3.8-1.5-3.8-4.9c0-3.6,1.5-5,3.8-5S480.1,53.1,480.1,56.7Zm-6,0c0,2.9.8,3.6,2.1,3.6s2.1-.7,2.1-3.6c0-2.6-.6-3.6-2.1-3.6S474.1,54.1,474.1,56.7Z"/><path class="cls-4" d="M483.9,47v6.2a3.08,3.08,0,0,1,2.6-1.4c2,0,3.2,1.6,3.2,5s-1.2,4.9-3.2,4.9a2.9,2.9,0,0,1-2.6-1.4v1.1h-1.5V47Zm0,11.1a2.07,2.07,0,0,0,2.2,2.1c1.2,0,2-.8,2-3.5,0-2.5-.5-3.6-2-3.6a2.11,2.11,0,0,0-2.2,1.9Z"/><path class="cls-4" d="M493.6,48.4V50h-1.5V48.4Zm0,3.6v9.4h-1.5V52Z"/><path class="cls-4" d="M498.1,47V59.4c0,.6.4,1,1.2,1.1l-.2,1.2c-1.7-.2-2.5-.6-2.5-1.9V47Z"/><path class="cls-4" d="M502.7,48.4V50h-1.5V48.4Zm0,3.6v9.4h-1.5V52Z"/><path class="cls-4" d="M505.8,52V49.4h1.5V52h2.2v1.3h-2.2v5.8c0,.9.2,1.3.8,1.3a1.43,1.43,0,0,0,1.2-.6l.5,1a2.66,2.66,0,0,1-2.1,1c-1.3,0-2-.8-2-2.4v-6h-1.2V52Z"/><path class="cls-4" d="M512.8,56.7h0c0,2.7.9,3.6,2.1,3.6a2.83,2.83,0,0,0,2.5-1.7l1,.8a4.15,4.15,0,0,1-3.6,2.3c-2.2,0-3.7-1.6-3.7-4.9,0-3.1,1.3-5,3.8-5s3.5,1.5,3.5,4.3v.7h-5.6Zm.1-1.2h4c0-1.8-.6-2.5-1.9-2.5S513.1,53.7,512.9,55.5Zm4.2-8.2-2.6,3.5-.7-.2,1.5-3.3Z"/><path class="cls-4" d="M520.6,58.6a2.92,2.92,0,0,0,2.8,1.7c1.1,0,1.8-.4,1.8-1.5,0-2.7-5.1-.6-5.1-4.5,0-1.6,1.3-2.6,3-2.6a3.52,3.52,0,0,1,3.4,2l-.8.8a3.12,3.12,0,0,0-2.6-1.6q-1.5,0-1.5,1.2c0,2.3,5.1.4,5.1,4.5,0,2-1.3,3-3.4,3a3.75,3.75,0,0,1-3.6-2.3Z"/><path class="cls-4" d="M393.1,76.7h0c0,2.7.9,3.6,2.1,3.6a2.83,2.83,0,0,0,2.5-1.7l1,.8a4.15,4.15,0,0,1-3.6,2.3c-2.2,0-3.7-1.6-3.7-4.9,0-3.1,1.3-5,3.8-5s3.5,1.5,3.5,4.3v.7h-5.6Zm0-1.2h4c0-1.8-.6-2.5-1.9-2.5S393.3,73.7,393.1,75.5Z"/><path class="cls-4" d="M402.5,72v1.8a3.25,3.25,0,0,1,3.1-2c1.5,0,2.2.9,2.2,2.6v7h-1.5V74.9c0-1.1-.4-1.7-1.4-1.7-1.4,0-2.4,1.5-2.4,2.9v5.3H401V72Z"/><path class="cls-4" d="M417.5,66.1l-1.6-2-1.6,2h-1.2l2.2-2.8h1.2l2.2,2.8Zm-.6.9V81.4h-1.7V67Z"/><path class="cls-4" d="M421.5,67V79.4c0,.6.4,1,1.2,1.1l-.2,1.2c-1.7-.2-2.5-.6-2.5-1.9V67Z"/><path class="cls-4" d="M425.6,76.7h0c0,2.7.9,3.6,2.1,3.6a2.83,2.83,0,0,0,2.5-1.7l1,.8a4.15,4.15,0,0,1-3.6,2.3c-2.2,0-3.7-1.6-3.7-4.9,0-3.1,1.3-5,3.8-5s3.5,1.5,3.5,4.3v.7h-5.6Zm0-1.2h4c0-1.8-.6-2.5-1.9-2.5S425.8,73.7,425.6,75.5Z"/><path class="cls-4" d="M437.4,75.1v1.5h-4.2V75.1Z"/><path class="cls-4" d="M446.9,67V81.4h-1.5V80.3a3.26,3.26,0,0,1-2.6,1.4c-2,0-3.2-1.7-3.2-4.9,0-3.4,1.2-5,3.2-5a2.83,2.83,0,0,1,2.6,1.4V67Zm-1.5,8a2,2,0,0,0-2.2-1.9c-1.5,0-2,1.2-2,3.6,0,2.7.8,3.5,2,3.5a2.13,2.13,0,0,0,2.2-2.1Z"/><path class="cls-4" d="M450.9,76.7h0c0,2.7.9,3.6,2.1,3.6a2.83,2.83,0,0,0,2.5-1.7l1,.8a4.15,4.15,0,0,1-3.6,2.3c-2.2,0-3.7-1.6-3.7-4.9,0-3.1,1.3-5,3.8-5s3.5,1.5,3.5,4.3v.7h-5.6Zm0-1.2h4c0-1.8-.6-2.5-1.9-2.5S451.1,73.7,450.9,75.5Z"/><path class="cls-4" d="M462.7,75.1v1.5h-4.2V75.1Z"/><path class="cls-4" d="M473.1,67v1.4h-5.9v5h5.4v1.4h-5.4v6.6h-1.7V67Z"/><path class="cls-4" d="M476.4,72v1.9a2.66,2.66,0,0,1,2.9-2v1.5c-2,0-2.9,1.2-2.9,2.6v5.4h-1.5V72Z"/><path class="cls-4" d="M480.2,73.7a4.47,4.47,0,0,1,3.8-1.9c2.1,0,2.6,1,2.6,2.7v4.9c0,.7.4,1,1.2,1.1l-.2,1.2c-1.7-.2-2.2-.7-2.3-1.7a3.11,3.11,0,0,1-2.8,1.7,2.39,2.39,0,0,1-2.5-2.6c0-2,1.3-3.3,5.2-3.6v-.9c0-1.1-.3-1.5-1.3-1.5a3.34,3.34,0,0,0-2.8,1.5Zm4.9,2.8c-2.8.2-3.6,1-3.6,2.2s.5,1.5,1.3,1.5a2.31,2.31,0,0,0,2.3-2.2V76.5Z"/><path class="cls-4" d="M491.1,72v1.8a3.25,3.25,0,0,1,3.1-2c1.5,0,2.2.9,2.2,2.6v7H495V74.9c0-1.1-.4-1.7-1.4-1.7-1.4,0-2.4,1.5-2.4,2.9v5.3h-1.5V72Z"/><path class="cls-4" d="M505.9,74l-1.1.8a2.74,2.74,0,0,0-2.3-1.6c-1.5,0-2.1,1.1-2.1,3.5,0,2.6.8,3.5,2.1,3.5a2.73,2.73,0,0,0,2.3-1.7l1.1.8a4,4,0,0,1-3.4,2.4c-2.2,0-3.7-1.6-3.7-4.9,0-3.1,1.2-5,3.7-5A3.45,3.45,0,0,1,505.9,74Z"/><path class="cls-4" d="M509.1,76.7h0c0,2.7.9,3.6,2.1,3.6a2.83,2.83,0,0,0,2.5-1.7l1,.8a4.15,4.15,0,0,1-3.6,2.3c-2.2,0-3.7-1.6-3.7-4.9,0-3.1,1.3-5,3.8-5s3.5,1.5,3.5,4.3v.7h-5.6Zm0-1.2h4c0-1.8-.6-2.5-1.9-2.5S509.3,73.7,509.1,75.5Z"/></g><g class="cls-2"><path class="cls-4" d="M1.2,32v1.3a16.46,16.46,0,0,1-2.1-.2,3.2,3.2,0,0,1,.8,2.2c0,2.1-1.4,3.1-3.4,3.1a4,4,0,0,1-2.2-.6,1.61,1.61,0,0,0-.6,1.3c0,.9.6,1.2,1.8,1.2.6,0,1.8-.2,2.6-.2,1.9,0,3,.7,3,2.7,0,2.3-1.6,3.6-4.6,3.6q-3.9,0-3.9-2.7a2.87,2.87,0,0,1,1-2.2,2,2,0,0,1-1.2-2.1,2.54,2.54,0,0,1,1.4-2.3A3.28,3.28,0,0,1-6.8,35a3.08,3.08,0,0,1,3.3-3.4A33,33,0,0,0,1.2,32Zm-6.5,9.7A2.61,2.61,0,0,0-6,43.4c0,1.2.7,1.8,2.5,1.8s2.9-.8,2.9-2.1-.5-1.5-1.8-1.5c-.6,0-1.7.1-2.5.1C-5,41.8-5.1,41.7-5.3,41.7Zm0-6.6c0,1.7.8,2.2,1.9,2.2s1.8-.4,1.8-2.2c0-1.6-.6-2.1-1.8-2.1S-5.3,33.5-5.3,35.1Z"/><path class="cls-4" d="M4.6,28.4V30H3.1V28.4Zm0,3.6v9.4H3.1V32Z"/><path class="cls-4" d="M9,32v1.8a3.25,3.25,0,0,1,3.1-2c1.5,0,2.2.9,2.2,2.6v7H12.8V34.9c0-1.1-.4-1.7-1.4-1.7C10,33.2,9,34.7,9,36.1v5.3H7.5V32Z"/><path class="cls-4" d="M18.4,36.7h0c0,2.7.9,3.6,2.1,3.6A2.83,2.83,0,0,0,23,38.6l1,.8a4.15,4.15,0,0,1-3.6,2.3c-2.2,0-3.7-1.6-3.7-4.9,0-3.1,1.3-5,3.8-5S24,33.3,24,36.1v.7H18.4Zm0-1.2h4c0-1.8-.6-2.5-1.9-2.5S18.6,33.7,18.4,35.5Z"/><path class="cls-4" d="M26.7,40.1h1.7l-1.5,4.2H25.8Z"/><path class="cls-4" d="M42.3,36.7c0,3.5-1.5,4.9-3.8,4.9s-3.8-1.5-3.8-4.9c0-3.6,1.5-5,3.8-5S42.3,33.1,42.3,36.7Zm-5.9,0c0,2.9.8,3.6,2.1,3.6s2.1-.7,2.1-3.6c0-2.6-.6-3.6-2.1-3.6S36.4,34.1,36.4,36.7Z"/><path class="cls-4" d="M46.2,32v1.9a2.66,2.66,0,0,1,2.9-2v1.5c-2,0-2.9,1.2-2.9,2.6v5.4H44.7V32Z"/><path class="cls-4" d="M58.4,32v1.3a16.46,16.46,0,0,1-2.1-.2,3.2,3.2,0,0,1,.8,2.2c0,2.1-1.4,3.1-3.4,3.1a4,4,0,0,1-2.2-.6,1.51,1.51,0,0,0-.7,1.4c0,.9.6,1.2,1.8,1.2.6,0,1.8-.2,2.6-.2,1.9,0,3,.7,3,2.7,0,2.3-1.6,3.6-4.6,3.6q-3.9,0-3.9-2.7a2.87,2.87,0,0,1,1-2.2,2,2,0,0,1-1.2-2.1,2.54,2.54,0,0,1,1.4-2.3,3.28,3.28,0,0,1-.6-2.1,3.08,3.08,0,0,1,3.3-3.4C54.9,31.8,56.8,32,58.4,32Zm-6.5,9.7a2.61,2.61,0,0,0-.7,1.7c0,1.2.7,1.8,2.5,1.8s2.9-.8,2.9-2.1-.5-1.5-1.8-1.5c-.6,0-1.7.1-2.5.1C52.1,41.8,52,41.7,51.9,41.7Zm0-6.6c0,1.7.8,2.2,1.9,2.2s1.8-.4,1.8-2.2c0-1.6-.6-2.1-1.8-2.1S51.9,33.5,51.9,35.1Z"/><path class="cls-4" d="M59.6,33.7a4.47,4.47,0,0,1,3.8-1.9c2.1,0,2.6,1,2.6,2.7v4.9c0,.7.4,1,1.2,1.1L67,41.6c-1.7-.2-2.2-.7-2.3-1.7a3.11,3.11,0,0,1-2.8,1.7A2.39,2.39,0,0,1,59.4,39c0-2,1.3-3.3,5.2-3.6v-.9c0-1.1-.3-1.5-1.3-1.5a3.34,3.34,0,0,0-2.8,1.5Zm5,2.8c-2.8.2-3.6,1-3.6,2.2s.5,1.5,1.3,1.5A2.31,2.31,0,0,0,64.6,38Z"/><path class="cls-4" d="M70.6,32v1.8a3.25,3.25,0,0,1,3.1-2c1.5,0,2.2.9,2.2,2.6v7H74.4V34.9c0-1.1-.4-1.7-1.4-1.7-1.4,0-2.4,1.5-2.4,2.9v5.3H69.1V32Z"/><path class="cls-4" d="M80.4,28.4V30H78.9V28.4Zm0,3.6v9.4H78.9V32Z"/><path class="cls-4" d="M83.2,38.6A2.92,2.92,0,0,0,86,40.3c1.1,0,1.8-.4,1.8-1.5,0-2.7-5.1-.6-5.1-4.5,0-1.6,1.3-2.6,3-2.6a3.52,3.52,0,0,1,3.4,2l-.8.8a3.12,3.12,0,0,0-2.6-1.6q-1.5,0-1.5,1.2c0,2.3,5.1.4,5.1,4.5,0,2-1.3,3-3.4,3a3.75,3.75,0,0,1-3.6-2.3Z"/><path class="cls-4" d="M92.5,36.7h0c0,2.7.9,3.6,2.1,3.6a2.83,2.83,0,0,0,2.5-1.7l1,.8a4.15,4.15,0,0,1-3.6,2.3c-2.2,0-3.7-1.6-3.7-4.9,0-3.1,1.3-5,3.8-5s3.5,1.5,3.5,4.3v.7H92.5Zm.1-1.2h4c0-1.8-.6-2.5-1.9-2.5S92.7,33.7,92.6,35.5Z"/><path class="cls-4" d="M105.8,36.7h0c0,2.7.9,3.6,2.1,3.6a2.83,2.83,0,0,0,2.5-1.7l1,.8a4.15,4.15,0,0,1-3.6,2.3c-2.2,0-3.7-1.6-3.7-4.9,0-3.1,1.3-5,3.8-5s3.5,1.5,3.5,4.3v.7h-5.6Zm.1-1.2h4c0-1.8-.6-2.5-1.9-2.5S106,33.7,105.9,35.5Z"/><path class="cls-4" d="M113.9,32V29.4h1.5V32h2.2v1.3h-2.2v5.8c0,.9.2,1.3.8,1.3a1.43,1.43,0,0,0,1.2-.6l.5,1a2.66,2.66,0,0,1-2.1,1c-1.3,0-2-.8-2-2.4v-6h-1.2V32Z"/><path class="cls-4" d="M124.5,33.3h-1.2V32h1.2V29.6c0-2.1,1-3,3.1-3s3,1,3,2.8V30h-1.5v-.5a1.32,1.32,0,0,0-1.5-1.5c-1.2,0-1.6.6-1.6,1.7V32h4.6v9.4h-1.5V33.3H126v8.1h-1.5Z"/><path class="cls-4" d="M135.1,32v1.8a3.25,3.25,0,0,1,3.1-2c1.5,0,2.2.9,2.2,2.6v7h-1.5V34.9c0-1.1-.4-1.7-1.4-1.7-1.4,0-2.4,1.5-2.4,2.9v5.3h-1.5V32Z"/><path class="cls-4" d="M143.1,33.7a4.47,4.47,0,0,1,3.8-1.9c2.1,0,2.6,1,2.6,2.7v4.9c0,.7.4,1,1.2,1.1l-.2,1.2c-1.7-.2-2.2-.7-2.3-1.7a3.11,3.11,0,0,1-2.8,1.7,2.39,2.39,0,0,1-2.5-2.6c0-2,1.3-3.3,5.2-3.6v-.9c0-1.1-.3-1.5-1.3-1.5a3.34,3.34,0,0,0-2.8,1.5Zm4.9,2.8c-2.8.2-3.6,1-3.6,2.2s.5,1.5,1.3,1.5A2.31,2.31,0,0,0,148,38Z"/><path class="cls-4" d="M154,32v1.8a3.25,3.25,0,0,1,3.1-2c1.5,0,2.2.9,2.2,2.6v7h-1.5V34.9c0-1.1-.4-1.7-1.4-1.7-1.4,0-2.4,1.5-2.4,2.9v5.3h-1.5V32Z"/><path class="cls-4" d="M168.8,34l-1.1.8a2.74,2.74,0,0,0-2.3-1.6c-1.5,0-2.1,1.1-2.1,3.5,0,2.6.8,3.5,2.1,3.5a2.73,2.73,0,0,0,2.3-1.7l1.1.8a4,4,0,0,1-3.4,2.4c-2.2,0-3.7-1.6-3.7-4.9,0-3.1,1.2-5,3.7-5A3.87,3.87,0,0,1,168.8,34Z"/><path class="cls-4" d="M171.9,36.7h0c0,2.7.9,3.6,2.1,3.6a2.83,2.83,0,0,0,2.5-1.7l1,.8a4.15,4.15,0,0,1-3.6,2.3c-2.2,0-3.7-1.6-3.7-4.9,0-3.1,1.3-5,3.8-5s3.5,1.5,3.5,4.3v.7h-5.6Zm.1-1.2h4c0-1.8-.6-2.5-1.9-2.5S172.1,33.7,172,35.5Z"/><path class="cls-4" d="M-1.8,52V49.4H-.3V52H2v1.3H-.2v5.8c0,.9.2,1.3.8,1.3a1.43,1.43,0,0,0,1.2-.6l.5,1a2.66,2.66,0,0,1-2.1,1c-1.3,0-2-.8-2-2.4v-6H-3V52Z"/><path class="cls-4" d="M11.2,56.7c0,3.5-1.5,4.9-3.8,4.9s-3.8-1.5-3.8-4.9c0-3.6,1.5-5,3.8-5S11.2,53.1,11.2,56.7Zm-6,0c0,2.9.8,3.6,2.1,3.6s2.1-.7,2.1-3.6c0-2.6-.6-3.6-2.1-3.6S5.2,54.1,5.2,56.7Z"/><path class="cls-4" d="M15,52v6.5c0,1.2.4,1.8,1.3,1.8,1.2,0,2.3-1.4,2.3-2.8V52h1.5v9.4H18.6V59.6a3.31,3.31,0,0,1-3,2.1c-1.5,0-2.2-1-2.2-2.6v-7H15Z"/><path class="cls-4" d="M23.4,52V49.4h1.5V52h2.2v1.3H24.9v5.8c0,.9.2,1.3.8,1.3a1.43,1.43,0,0,0,1.2-.6l.5,1a2.66,2.66,0,0,1-2.1,1c-1.3,0-2-.8-2-2.4v-6H22.1V52Z"/><path class="cls-4" d="M30.4,56.7h0c0,2.7.9,3.6,2.1,3.6A2.83,2.83,0,0,0,35,58.6l1,.8a4.15,4.15,0,0,1-3.6,2.3c-2.2,0-3.7-1.6-3.7-4.9,0-3.1,1.3-5,3.8-5S36,53.3,36,56.1v.7H30.4Zm0-1.2h4c0-1.8-.6-2.5-1.9-2.5S30.6,53.7,30.4,55.5Z"/><path class="cls-4" d="M38.1,58.6a2.92,2.92,0,0,0,2.8,1.7c1.1,0,1.8-.4,1.8-1.5,0-2.7-5.1-.6-5.1-4.5,0-1.6,1.3-2.6,3-2.6a3.52,3.52,0,0,1,3.4,2l-.8.8a3.12,3.12,0,0,0-2.6-1.6q-1.5,0-1.5,1.2c0,2.3,5.1.4,5.1,4.5,0,2-1.3,3-3.4,3a3.75,3.75,0,0,1-3.6-2.3Z"/><path class="cls-4" d="M52.3,47V59.4c0,.6.4,1,1.2,1.1l-.2,1.2c-1.7-.2-2.5-.6-2.5-1.9V47Z"/><path class="cls-4" d="M56.4,56.7h0c0,2.7.9,3.6,2.1,3.6A2.83,2.83,0,0,0,61,58.6l1,.8a4.15,4.15,0,0,1-3.6,2.3c-2.2,0-3.7-1.6-3.7-4.9,0-3.1,1.3-5,3.8-5S62,53.3,62,56.1v.7H56.4Zm0-1.2h4c0-1.8-.6-2.5-1.9-2.5S56.6,53.7,56.4,55.5Z"/><path class="cls-4" d="M64.2,58.6A2.92,2.92,0,0,0,67,60.3c1.1,0,1.8-.4,1.8-1.5,0-2.7-5.1-.6-5.1-4.5,0-1.6,1.3-2.6,3-2.6a3.52,3.52,0,0,1,3.4,2l-.8.8a3.12,3.12,0,0,0-2.6-1.6q-1.5,0-1.5,1.2c0,2.3,5.1.4,5.1,4.5,0,2-1.3,3-3.4,3a3.75,3.75,0,0,1-3.6-2.3Z"/><path class="cls-4" d="M78.3,52v1.8a3,3,0,0,1,2.8-2.1c1.1,0,1.8.8,2,2.1A3.13,3.13,0,0,1,86,51.7c1.3,0,2,1,2,2.6v7H86.5V54.8c0-1.2-.3-1.8-1.2-1.8-1.1,0-2.2,1.4-2.2,2.8v5.5H81.6V54.8c0-1.2-.3-1.8-1.2-1.8-1.1,0-2.2,1.4-2.2,2.8v5.5H76.7V52Z"/><path class="cls-4" d="M97.9,56.7c0,3.5-1.5,4.9-3.8,4.9s-3.8-1.5-3.8-4.9c0-3.6,1.5-5,3.8-5S97.9,53.1,97.9,56.7Zm-5.9,0c0,2.9.8,3.6,2.1,3.6s2.1-.7,2.1-3.6c0-2.6-.6-3.6-2.1-3.6S92,54.1,92,56.7Z"/><path class="cls-4" d="M101.8,47v6.2a3.08,3.08,0,0,1,2.6-1.4c2,0,3.2,1.6,3.2,5s-1.2,4.9-3.2,4.9a2.9,2.9,0,0,1-2.6-1.4v1.1h-1.5V47Zm0,11.1a2.07,2.07,0,0,0,2.2,2.1c1.2,0,2-.8,2-3.5,0-2.5-.5-3.6-2-3.6a2.11,2.11,0,0,0-2.2,1.9Z"/><path class="cls-4" d="M111.5,48.4V50H110V48.4Zm0,3.6v9.4H110V52Z"/><path class="cls-4" d="M115.9,47V59.4c0,.6.4,1,1.2,1.1l-.2,1.2c-1.7-.2-2.5-.6-2.5-1.9V47Z"/><path class="cls-4" d="M120.5,48.4V50H119V48.4Zm0,3.6v9.4H119V52Z"/><path class="cls-4" d="M123.7,52V49.4h1.5V52h2.2v1.3h-2.2v5.8c0,.9.2,1.3.8,1.3a1.43,1.43,0,0,0,1.2-.6l.5,1a2.66,2.66,0,0,1-2.1,1c-1.3,0-2-.8-2-2.4v-6h-1.2V52Z"/><path class="cls-4" d="M130.7,56.7h0c0,2.7.9,3.6,2.1,3.6a2.83,2.83,0,0,0,2.5-1.7l1,.8a4.15,4.15,0,0,1-3.6,2.3c-2.2,0-3.7-1.6-3.7-4.9,0-3.1,1.3-5,3.8-5s3.5,1.5,3.5,4.3v.7h-5.6Zm0-1.2h4c0-1.8-.6-2.5-1.9-2.5S130.9,53.7,130.7,55.5Zm4.3-8.2-2.6,3.5-.7-.2,1.5-3.3Z"/><path class="cls-4" d="M138.5,58.6a2.92,2.92,0,0,0,2.8,1.7c1.1,0,1.8-.4,1.8-1.5,0-2.7-5.1-.6-5.1-4.5,0-1.6,1.3-2.6,3-2.6a3.52,3.52,0,0,1,3.4,2l-.8.8a3.12,3.12,0,0,0-2.6-1.6q-1.5,0-1.5,1.2c0,2.3,5.1.4,5.1,4.5,0,2-1.3,3-3.4,3a3.75,3.75,0,0,1-3.6-2.3Z"/><path class="cls-4" d="M10.9,76.7h0c0,2.7.9,3.6,2.1,3.6a2.83,2.83,0,0,0,2.5-1.7l1,.8a4.15,4.15,0,0,1-3.6,2.3c-2.2,0-3.7-1.6-3.7-4.9,0-3.1,1.3-5,3.8-5s3.5,1.5,3.5,4.3v.7H10.9Zm.1-1.2h4c0-1.8-.6-2.5-1.9-2.5S11.2,73.7,11,75.5Z"/><path class="cls-4" d="M20.4,72v1.8a3.25,3.25,0,0,1,3.1-2c1.5,0,2.2.9,2.2,2.6v7H24.2V74.9c0-1.1-.4-1.7-1.4-1.7-1.4,0-2.4,1.5-2.4,2.9v5.3H18.9V72Z"/><path class="cls-4" d="M35.4,66.1l-1.6-2-1.6,2H31l2.2-2.8h1.2l2.2,2.8Zm-.6.9V81.4H33.1V67Z"/><path class="cls-4" d="M39.3,67V79.4c0,.6.4,1,1.2,1.1l-.2,1.2c-1.7-.2-2.5-.6-2.5-1.9V67Z"/><path class="cls-4" d="M43.4,76.7h0c0,2.7.9,3.6,2.1,3.6A2.83,2.83,0,0,0,48,78.6l1,.8a4.15,4.15,0,0,1-3.6,2.3c-2.2,0-3.7-1.6-3.7-4.9,0-3.1,1.3-5,3.8-5S49,73.2,49,76v.7Zm.1-1.2h4c0-1.8-.6-2.5-1.9-2.5S43.7,73.7,43.5,75.5Z"/><path class="cls-4" d="M55.3,75.1v1.5H51.1V75.1Z"/><path class="cls-4" d="M64.7,67V81.4H63.2V80.3a3.26,3.26,0,0,1-2.6,1.4c-2,0-3.2-1.7-3.2-4.9,0-3.4,1.2-5,3.2-5a2.83,2.83,0,0,1,2.6,1.4V67Zm-1.5,8A2,2,0,0,0,61,73.1c-1.5,0-2,1.2-2,3.6,0,2.7.8,3.5,2,3.5a2.13,2.13,0,0,0,2.2-2.1Z"/><path class="cls-4" d="M68.7,76.7h0c0,2.7.9,3.6,2.1,3.6a2.83,2.83,0,0,0,2.5-1.7l1,.8a4.15,4.15,0,0,1-3.6,2.3c-2.2,0-3.7-1.6-3.7-4.9,0-3.1,1.3-5,3.8-5s3.5,1.5,3.5,4.3v.7H68.7Zm.1-1.2h4c0-1.8-.6-2.5-1.9-2.5S69,73.7,68.8,75.5Z"/><path class="cls-4" d="M80.6,75.1v1.5H76.4V75.1Z"/><path class="cls-4" d="M90.9,67v1.4H85v5h5.4v1.4H85v6.6H83.3V67Z"/><path class="cls-4" d="M94.2,72v1.9a2.66,2.66,0,0,1,2.9-2v1.5c-2,0-2.9,1.2-2.9,2.6v5.4H92.7V72Z"/><path class="cls-4" d="M98.1,73.7a4.47,4.47,0,0,1,3.8-1.9c2.1,0,2.6,1,2.6,2.7v4.9c0,.7.4,1,1.2,1.1l-.2,1.2c-1.7-.2-2.2-.7-2.3-1.7a3.11,3.11,0,0,1-2.8,1.7,2.39,2.39,0,0,1-2.5-2.6c0-2,1.3-3.3,5.2-3.6v-.9c0-1.1-.3-1.5-1.3-1.5A3.34,3.34,0,0,0,99,74.6Zm4.9,2.8c-2.8.2-3.6,1-3.6,2.2s.5,1.5,1.3,1.5A2.31,2.31,0,0,0,103,78Z"/><path class="cls-4" d="M109,72v1.8a3.25,3.25,0,0,1,3.1-2c1.5,0,2.2.9,2.2,2.6v7h-1.5V74.9c0-1.1-.4-1.7-1.4-1.7-1.4,0-2.4,1.5-2.4,2.9v5.3h-1.5V72Z"/><path class="cls-4" d="M123.8,74l-1.1.8a2.74,2.74,0,0,0-2.3-1.6c-1.5,0-2.1,1.1-2.1,3.5,0,2.6.8,3.5,2.1,3.5a2.73,2.73,0,0,0,2.3-1.7l1.1.8a4,4,0,0,1-3.4,2.4c-2.2,0-3.7-1.6-3.7-4.9,0-3.1,1.2-5,3.7-5A3.45,3.45,0,0,1,123.8,74Z"/><path class="cls-4" d="M126.9,76.7h0c0,2.7.9,3.6,2.1,3.6a2.83,2.83,0,0,0,2.5-1.7l1,.8a4.15,4.15,0,0,1-3.6,2.3c-2.2,0-3.7-1.6-3.7-4.9,0-3.1,1.3-5,3.8-5s3.5,1.5,3.5,4.3v.7h-5.6Zm.1-1.2h4c0-1.8-.6-2.5-1.9-2.5S127.2,73.7,127,75.5Z"/></g><g class="cls-2"><path d="M61.5,19.7h.3a.22.22,0,0,1,.2.2c.1.1.1.1.1.2v1.2a.22.22,0,0,1-.2.2c-.1.1-.1.1-.2.1h-.8a.22.22,0,0,1-.2-.2c-.1-.1-.1-.1-.1-.2V20a.22.22,0,0,1,.2-.2c.1-.1.1-.1.2-.1h.5Zm.2-2H62a.35.35,0,0,1,.3.3v1.2a.22.22,0,0,1-.2.2c-.1.1-.1.1-.2.1h-.8a.35.35,0,0,1-.3-.3V18a.22.22,0,0,1,.2-.2c.1-.1.1-.1.2-.1h.5Zm.2-2h.3a.35.35,0,0,1,.2.1c.1.1.1.1.1.2v.9a.37.37,0,0,1-.1.3.22.22,0,0,1-.2.2.31.31,0,0,1-.2.1h-.7c-.1,0-.1-.1-.2-.1s-.1-.2-.2-.3v-.9a.37.37,0,0,1,.1-.3.22.22,0,0,1,.2-.2c.1-.1.1-.1.2-.1h.4A.1.1,0,0,0,61.9,15.7Zm.2-2h.3a.35.35,0,0,1,.2.1c.1.1.1.1.1.2v.3a1.27,1.27,0,0,1-.1.6.37.37,0,0,1-.1.3.22.22,0,0,1-.2.2c-.1,0-.1.1-.2.1h-.8a.35.35,0,0,1-.2-.1l-.1-.1V15l.1-.6a.37.37,0,0,1,.1-.3.22.22,0,0,1,.2-.2c.1-.1.1-.1.2-.1H62C62,13.7,62,13.7,62.1,13.7Zm.2-2h.2c.1,0,.1,0,.2.1s.1.2.2.3V13a.37.37,0,0,1-.1.3.22.22,0,0,1-.2.2c-.1.1-.1.1-.2.1h-.8a.35.35,0,0,1-.3-.3v-.9a.37.37,0,0,1,.1-.3.22.22,0,0,1,.2-.2c.1-.1.1-.1.2-.1h.4A.1.1,0,0,1,62.3,11.7ZM63,21.8h.3a.22.22,0,0,1,.2.2c0,.1.1.1.1.2v1.2a.35.35,0,0,1-.1.2c-.1.1-.1.1-.2.1h-.5a.37.37,0,0,1-.3-.1.22.22,0,0,1-.2-.2c-.1-.1-.1-.1-.1-.2V22a.22.22,0,0,1,.2-.2c.1,0,.1-.1.2-.1H63Zm.5-6.1h.3a.35.35,0,0,1,.2.1c.1.1.1.1.1.2v.9a.37.37,0,0,1-.1.3.22.22,0,0,1-.2.2c-.1.1-.1.1-.2.1h-.8a.35.35,0,0,1-.2-.1c-.1-.1-.1-.1-.1-.2v-.9a.37.37,0,0,1,.1-.3.22.22,0,0,1,.2-.2c.1-.1.1-.1.2-.1h.5Zm.6-6.1h.3c.1,0,.1.1.2.2s.1.1.1.2v.9a.37.37,0,0,1-.1.3.22.22,0,0,1-.2.2c-.1.1-.1.1-.2.1h-.8a.35.35,0,0,1-.2-.1c-.1-.1-.1-.1-.1-.2v-.9a.37.37,0,0,1,.1-.3.22.22,0,0,1,.2-.2l.2-.2h.5Zm.6,12.2H65a.35.35,0,0,1,.2.1c.1.1.1.1.1.2V23a.37.37,0,0,1-.1.3.35.35,0,0,1-.1.2c-.1.1-.1.1-.2.1h-.8a.22.22,0,0,1-.2-.2c0-.1-.1-.1-.1-.2V22a.22.22,0,0,1,.2-.2c.1,0,.1-.1.2-.1h.5Zm.5-6.1h.2c.1,0,.1,0,.2.1s.1.2.2.3,0,.2,0,.3V17a.37.37,0,0,1-.1.3.22.22,0,0,1-.2.2c-.1.1-.1.1-.2.1h-.8a.31.31,0,0,1-.2-.1c-.1-.1-.1-.2-.2-.3v-.9a.37.37,0,0,1,.1-.3.22.22,0,0,1,.2-.2c.1-.1.1-.1.2-.1h.6Zm.5-6.1H66a.22.22,0,0,1,.2.2c0,.1.1.1.1.2v1.2a.22.22,0,0,1-.2.2c-.1,0-.1.1-.2.1h-.8a.35.35,0,0,1-.3-.3V10a.35.35,0,0,1,.1-.2l.2-.2h.6Zm.6,12.2h.3a.35.35,0,0,1,.2.1c.1.1.1.1.1.2V23a.37.37,0,0,1-.1.3.22.22,0,0,1-.2.2c-.1,0-.1.1-.2.2a.19.19,0,0,1-.3,0h-.5c-.1,0-.1-.1-.2-.2s-.1-.1-.1-.2v-.9a.37.37,0,0,1,.1-.3.22.22,0,0,1,.2-.2c.1,0,.1-.1.2-.1h.5Zm.6-6.1h.3a.35.35,0,0,1,.2.1c.1.1.1.1.1.2v.9a.37.37,0,0,1-.1.3.22.22,0,0,1-.2.2c-.1.1-.1.1-.2.1h-.9a.35.35,0,0,1-.3-.3v-.9a.37.37,0,0,1,.1-.3.22.22,0,0,1,.2-.2c.1-.1.1-.1.2-.1h.6Zm.4-6h.3a.22.22,0,0,1,.2.2c0,.1.1.1.1.2v1.2a.22.22,0,0,1-.2.2c-.1.1-.1.1-.2.1h-.8a.22.22,0,0,1-.2-.2c-.1-.1-.1-.1-.1-.2V10a.35.35,0,0,1,.3-.3h.6Zm.9,10h.2c.1,0,.1,0,.2.1s.1.2.2.3V21a.37.37,0,0,1-.1.3.22.22,0,0,1-.2.2l-.2.2a.19.19,0,0,1-.3,0h-.5a.35.35,0,0,1-.2-.1c-.1-.1-.1-.1-.1-.2v-.9a.37.37,0,0,1,.1-.3.22.22,0,0,1,.2-.2c.1-.1.1-.1.2-.1s.2-.1.3,0h.1C68.1,19.7,68.2,19.7,68.2,19.7Zm.2-2h.3a.35.35,0,0,1,.2.1.37.37,0,0,1,.1.3V19a.37.37,0,0,1-.1.3.22.22,0,0,1-.2.2c-.1.1-.1.1-.2.1h-.7c-.1,0-.1,0-.2-.1s-.1-.2-.2-.3,0-.2,0-.3v-.6a.37.37,0,0,1,.1-.3.22.22,0,0,1,.2-.2c.1-.1.1-.1.2-.1h.5Zm.5-5.9h.3a.35.35,0,0,1,.3.3v1.2a.22.22,0,0,1-.2.2c-.1.1-.1.1-.2.1h-.8a.35.35,0,0,1-.2-.1c-.1-.1-.1-.1-.1-.2V12.1a.35.35,0,0,1,.1-.2c.1-.1.1-.1.2-.1h.6Z"/><path d="M71.3,19.7h.3a.22.22,0,0,1,.2.2c.1.1.1.1.1.2v1.2a.22.22,0,0,1-.2.2c-.1.1-.1.1-.2.1h-.8a.22.22,0,0,1-.2-.2c-.1-.1-.1-.1-.1-.2V20a.22.22,0,0,1,.2-.2c.1-.1.1-.1.2-.1h.5Zm.2-2h.3a.35.35,0,0,1,.3.3v1.2a.22.22,0,0,1-.2.2c-.1.1-.1.1-.2.1h-.8a.35.35,0,0,1-.3-.3V18a.22.22,0,0,1,.2-.2c.1-.1.1-.1.2-.1h.5Zm.3-4h.3a.35.35,0,0,1,.2.1c.1.1.1.1.1.2v.3a1.27,1.27,0,0,1-.1.6.37.37,0,0,1-.1.3.22.22,0,0,1-.2.2c-.1,0-.1.1-.2.1H71a.35.35,0,0,1-.3-.3v-.3l.1-.6a.37.37,0,0,1,.1-.3.22.22,0,0,1,.2-.2c.1-.1.1-.1.2-.1h.5Zm.3-2h.2c.1,0,.1,0,.2.1s.1.2.2.3V13a.37.37,0,0,1-.1.3.22.22,0,0,1-.2.2c-.1.1-.1.1-.2.1h-.8a.35.35,0,0,1-.2-.1s-.2-.1-.2-.2v-.9a.37.37,0,0,1,.1-.3.22.22,0,0,1,.2-.2c.1-.1.1-.1.2-.1h.4A.35.35,0,0,1,72.1,11.7Zm.7,10.1h.3a.22.22,0,0,1,.2.2c0,.1.1.1.1.2v1.2a.35.35,0,0,1-.1.2c-.1.1-.1.1-.2.1h-.5a.37.37,0,0,1-.3-.1.22.22,0,0,1-.2-.2c-.1-.1-.1-.1-.1-.2V22a.22.22,0,0,1,.2-.2c.1,0,.1-.1.2-.1h.4C72.7,21.8,72.8,21.8,72.8,21.8Zm.5-6.1h.3a.35.35,0,0,1,.2.1c.1.1.1.1.1.2v.9a.37.37,0,0,1-.1.3.22.22,0,0,1-.2.2c-.1.1-.1.1-.2.1h-.8a.35.35,0,0,1-.2-.1c-.1-.1-.1-.1-.1-.2v-.9a.37.37,0,0,1,.1-.3.22.22,0,0,1,.2-.2c.1-.1.1-.1.2-.1h.5Zm.6-6.1h.3c.1,0,.1.1.2.2s.1.1.1.2v.9a.37.37,0,0,1-.1.3.22.22,0,0,1-.2.2c-.1.1-.1.1-.2.1h-.8a.35.35,0,0,1-.2-.1c-.1-.1-.1-.1-.1-.2v-.9A.37.37,0,0,1,73,10a.22.22,0,0,1,.2-.2l.2-.2h.5Zm.6,12.2h.3a.35.35,0,0,1,.2.1c.1.1.1.1.1.2V23a.37.37,0,0,1-.1.3.35.35,0,0,1-.1.2c-.1.1-.1.1-.2.1h-.8a.22.22,0,0,1-.2-.2c0-.1-.1-.1-.1-.2V22a.22.22,0,0,1,.2-.2c.1,0,.1-.1.2-.1h.5Zm.5-6.1h.2c.1,0,.1,0,.2.1s.1.2.2.3,0,.2,0,.3V17a.37.37,0,0,1-.1.3.22.22,0,0,1-.2.2c-.1.1-.1.1-.2.1h-.8a.31.31,0,0,1-.2-.1c-.1-.1-.1-.2-.2-.3v-.9A.37.37,0,0,1,74,16a.22.22,0,0,1,.2-.2c.1-.1.1-.1.2-.1H75Zm.5-6.1h.3a.22.22,0,0,1,.2.2c0,.1.1.1.1.2v1.2a.22.22,0,0,1-.2.2c-.1,0-.1.1-.2.1h-.8a.35.35,0,0,1-.3-.3V10a.35.35,0,0,1,.1-.2l.2-.2h.6Zm.6,12.2h.3a.35.35,0,0,1,.2.1c.1.1.1.1.1.2V23a.37.37,0,0,1-.1.3.22.22,0,0,1-.2.2c-.1,0-.1.1-.2.2a.19.19,0,0,1-.3,0h-.5c-.1,0-.1-.1-.2-.2s-.1-.1-.1-.2v-.9a.37.37,0,0,1,.1-.3.22.22,0,0,1,.2-.2c.1,0,.1-.1.2-.1h.5Zm.6-6.1H77a.35.35,0,0,1,.2.1c.1.1.1.1.1.2v.9a.37.37,0,0,1-.1.3.22.22,0,0,1-.2.2c-.1.1-.1.1-.2.1h-.9a.35.35,0,0,1-.3-.3v-.9a.37.37,0,0,1,.1-.3.22.22,0,0,1,.2-.2c.1-.1.1-.1.2-.1h.6Zm.4-6h.3a.22.22,0,0,1,.2.2c0,.1.1.1.1.2v1.2a.22.22,0,0,1-.2.2c-.1.1-.1.1-.2.1h-.8a.22.22,0,0,1-.2-.2c-.1-.1-.1-.1-.1-.2V10a.35.35,0,0,1,.3-.3h.6Zm.9,10h.2c.1,0,.1,0,.2.1s.1.2.2.3V21a.37.37,0,0,1-.1.3.22.22,0,0,1-.2.2l-.2.2a.19.19,0,0,1-.3,0h-.5a.35.35,0,0,1-.2-.1c-.1-.1-.1-.1-.1-.2v-.9a.37.37,0,0,1,.1-.3.22.22,0,0,1,.2-.2c.1-.1.1-.1.2-.1s.2-.1.3,0h.1C77.9,19.7,77.9,19.7,78,19.7Zm.2-2h.3a.35.35,0,0,1,.2.1c.1.1.1.1.1.2v.9a.37.37,0,0,1-.1.3.22.22,0,0,1-.2.2c-.1.1-.1.1-.2.1h-.7c-.1,0-.1,0-.2-.1s-.1-.2-.2-.3,0-.2,0-.3v-.6a.37.37,0,0,1,.1-.3.22.22,0,0,1,.2-.2c.1-.1.1-.1.2-.1h.4Zm.3-4h.3a.35.35,0,0,1,.2.1c.1.1.1.1.1.2v1.2a.22.22,0,0,1-.2.2c-.1.1-.1.1-.2.1h-.8a.35.35,0,0,1-.2-.1c-.1-.1-.1-.1-.1-.2V14a.22.22,0,0,1,.2-.2c.1,0,.1-.1.2-.1h.5Zm.2-1.9H79a.35.35,0,0,1,.3.3v1.2a.22.22,0,0,1-.2.2c-.1.1-.1.1-.2.1h-.8a.35.35,0,0,1-.2-.1c-.1-.1-.1-.1-.1-.2V12.1a.35.35,0,0,1,.1-.2c.1-.1.1-.1.2-.1h.6Z"/><path d="M81.1,19.7h.3a.22.22,0,0,1,.2.2c.1.1.1.1.1.2v1.2a.22.22,0,0,1-.2.2c-.1.1-.1.1-.2.1h-.8a.22.22,0,0,1-.2-.2c-.1-.1-.1-.1-.1-.2V20a.22.22,0,0,1,.2-.2c.1-.1.1-.1.2-.1h.5Zm.7-8H82c.1,0,.1,0,.2.1s.1.2.2.3V13a.37.37,0,0,1-.1.3.22.22,0,0,1-.2.2c-.1.1-.1.1-.2.1h-.8a.35.35,0,0,1-.3-.3v-.9a.37.37,0,0,1,.1-.3.22.22,0,0,1,.2-.2c.1-.1.1-.1.2-.1h.4Zm.8,10.1h.3a.22.22,0,0,1,.2.2c0,.1.1.1.1.2v1.2a.35.35,0,0,1-.1.2c-.1.1-.1.1-.2.1h-.5a.37.37,0,0,1-.3-.1.22.22,0,0,1-.2-.2c-.1-.1-.1-.1-.1-.2V22a.22.22,0,0,1,.2-.2c.1,0,.1-.1.2-.1h.4C82.5,21.8,82.6,21.8,82.6,21.8Zm.5-6.1h.3a.35.35,0,0,1,.2.1c.1.1.1.1.1.2v.9a.37.37,0,0,1-.1.3.22.22,0,0,1-.2.2c-.1.1-.1.1-.2.1h-.8a.35.35,0,0,1-.2-.1c-.1-.1-.1-.1-.1-.2v-.9a.37.37,0,0,1,.1-.3.22.22,0,0,1,.2-.2c.1-.1.1-.1.2-.1h.5Zm.6-6.1H84c.1,0,.1.1.2.2s.1.1.1.2v.9a.37.37,0,0,1-.1.3.22.22,0,0,1-.2.2c-.1.1-.1.1-.2.1H83a.35.35,0,0,1-.2-.1c-.1-.1-.1-.1-.1-.2v-.9a.37.37,0,0,1,.1-.3.22.22,0,0,1,.2-.2l.2-.2h.5Zm.5,12.2h.3a.35.35,0,0,1,.2.1c.1.1.1.1.1.2V23a.37.37,0,0,1-.1.3.35.35,0,0,1-.1.2c-.1.1-.1.1-.2.1h-.8a.22.22,0,0,1-.2-.2c0-.1-.1-.1-.1-.2V22a.22.22,0,0,1,.2-.2c.1,0,.1-.1.2-.1h.5Zm.6-6.1H85c.1,0,.1,0,.2.1s.1.2.2.3,0,.2,0,.3V17a.37.37,0,0,1-.1.3.22.22,0,0,1-.2.2c-.1.1-.1.1-.2.1h-.8a.31.31,0,0,1-.2-.1c-.1-.1-.1-.2-.2-.3v-.9a.37.37,0,0,1,.1-.3.22.22,0,0,1,.2-.2c.1-.1.1-.1.2-.1h.6Zm.5-6.1h.3a.22.22,0,0,1,.2.2c0,.1.1.1.1.2v1.2a.22.22,0,0,1-.2.2c-.1,0-.1.1-.2.1h-.8a.35.35,0,0,1-.3-.3V10a.35.35,0,0,1,.1-.2l.2-.2h.6Zm.6,12.2h.3a.35.35,0,0,1,.2.1c.1.1.1.1.1.2V23a.37.37,0,0,1-.1.3.22.22,0,0,1-.2.2c-.1,0-.1.1-.2.2a.19.19,0,0,1-.3,0h-.5a.35.35,0,0,1-.2-.1c-.1-.1-.1-.1-.1-.2v-.9a.37.37,0,0,1,.1-.3.22.22,0,0,1,.2-.2c.1,0,.1-.1.2-.1h.4A.1.1,0,0,1,85.9,21.8Zm.6-6.1h.3a.35.35,0,0,1,.2.1c.1.1.1.1.1.2v.9a.37.37,0,0,1-.1.3.22.22,0,0,1-.2.2c-.1.1-.1.1-.2.1h-.9a.35.35,0,0,1-.3-.3v-.9a.37.37,0,0,1,.1-.3.22.22,0,0,1,.2-.2c.1-.1.1-.1.2-.1h.6Zm.4-6h.3a.22.22,0,0,1,.2.2c0,.1.1.1.1.2v1.2a.22.22,0,0,1-.2.2c-.1.1-.1.1-.2.1h-.8a.22.22,0,0,1-.2-.2c-.1-.1-.1-.1-.1-.2V10a.35.35,0,0,1,.3-.3h.6Zm.9,10H88c.1,0,.1,0,.2.1s.1.2.2.3V21a.37.37,0,0,1-.1.3.22.22,0,0,1-.2.2l-.2.2a.19.19,0,0,1-.3,0h-.5a.35.35,0,0,1-.2-.1c-.1-.1-.1-.1-.1-.2v-.9a.37.37,0,0,1,.1-.3.22.22,0,0,1,.2-.2c.1-.1.1-.1.2-.1s.2-.1.3,0h.1C87.7,19.7,87.7,19.7,87.8,19.7Zm.2-2h.3a.35.35,0,0,1,.2.1c.1.1.1.1.1.2v.9a.37.37,0,0,1-.1.3.22.22,0,0,1-.2.2c-.1.1-.1.1-.2.1h-.7c-.1,0-.1,0-.2-.1s-.1-.2-.2-.3,0-.2,0-.3v-.6a.37.37,0,0,1,.1-.3.22.22,0,0,1,.2-.2c.1-.1.1-.1.2-.1h.4A.1.1,0,0,0,88,17.7Zm.3-4h.3a.35.35,0,0,1,.2.1c.1.1.1.1.1.2v1.2a.22.22,0,0,1-.2.2c-.1.1-.1.1-.2.1h-.8a.35.35,0,0,1-.2-.1c-.1-.1-.1-.1-.1-.2V14a.22.22,0,0,1,.2-.2c.1,0,.1-.1.2-.1h.5Zm.1-1.9h.3a.35.35,0,0,1,.3.3v1.2a.22.22,0,0,1-.2.2c-.1.1-.1.1-.2.1h-.8a.35.35,0,0,1-.2-.1c-.1-.1-.1-.1-.1-.2V12.1a.35.35,0,0,1,.1-.2c.1-.1.1-.1.2-.1h.6Z"/><path d="M90.7,21.7H91a.22.22,0,0,1,.2.2c.1.1.1.1.1.2v1.2a.35.35,0,0,1-.1.2c-.1.1-.1.1-.2.1h-.5a.37.37,0,0,1-.3-.1.22.22,0,0,1-.2-.2c0-.1-.1-.1-.1-.2V21.9a.35.35,0,0,1,.1-.2c.1-.1.1-.1.2-.1h.4A.1.1,0,0,0,90.7,21.7Zm1.2-12h.3c.1,0,.1.1.2.1s.1.1.1.2v.9a.37.37,0,0,1-.1.3.22.22,0,0,1-.2.2c-.1,0-.1.1-.2.1h-.7c-.1,0-.1,0-.2-.1a.37.37,0,0,1-.1-.3v-.9a.37.37,0,0,1,.1-.3h0l.2-.2a.19.19,0,0,1,.3,0h.3Zm.6,10.1h.3a.22.22,0,0,1,.2.2c.1.1.1.1.1.2v1.2a.22.22,0,0,1-.2.2c-.1,0-.1.1-.2.1h-.8a.22.22,0,0,1-.2-.2c-.1-.1-.1-.1-.1-.2V20.1a.22.22,0,0,1,.2-.2c.1-.1.1-.1.2-.1h.4C92.4,19.7,92.5,19.8,92.5,19.8Zm1-10.2h.3c.1,0,.1.1.2.2s0,.2.1.2v.9a.37.37,0,0,1-.1.3.22.22,0,0,1-.2.2c-.1.1-.1.1-.2.1h-.7c-.1,0-.1,0-.2-.1s-.1-.2-.2-.3,0-.2,0-.3v-.6a.37.37,0,0,1,.1-.3.22.22,0,0,1,.2-.2l.2-.2c.1,0,.2-.1.3,0h.2Zm.9,8.1h.3a.35.35,0,0,1,.2.1c.1.1.1.1.1.2v.9a.37.37,0,0,1-.1.3.22.22,0,0,1-.2.2c-.1.1-.1.1-.2.1h-.8a.35.35,0,0,1-.3-.3v-.9a.37.37,0,0,1,.1-.3.22.22,0,0,1,.2-.2c.1-.1.1-.1.2-.1h.5Zm.7-8.1h.3a.22.22,0,0,1,.2.2c.1.1.1.1.1.2v1.2a.22.22,0,0,1-.2.2c-.1,0-.1.1-.2.1h-.8a.35.35,0,0,1-.3-.3v-.9a.37.37,0,0,1,.1-.3.35.35,0,0,1,.1-.2l.2-.2c.1-.1.2,0,.3,0h.2Zm1.2,6.1h.3a.35.35,0,0,1,.3.3v.9a.37.37,0,0,1-.1.3.22.22,0,0,1-.2.2c-.1,0-.1.1-.2.1h-.8a.35.35,0,0,1-.2-.1c-.1-.1-.1-.1-.1-.2v-.9a.37.37,0,0,1,.1-.3.22.22,0,0,1,.2-.2c.1-.1.1-.1.2-.1h.5Zm.4-6H97a.22.22,0,0,1,.2.2c.1.1.1.1.1.2v1.2a.22.22,0,0,1-.2.2c-.1.1-.1.1-.2.1h-.8a.22.22,0,0,1-.2-.2c-.1-.1-.1-.1-.1-.2V10a.35.35,0,0,1,.3-.3h.6Zm1.4,4h.3a.35.35,0,0,1,.2.1c.1.1.1.1.1.2v.9a.37.37,0,0,1-.1.3.22.22,0,0,1-.2.2c-.1.1-.1.1-.2.1h-.8a.35.35,0,0,1-.3-.3V14a.22.22,0,0,1,.2-.2c.1,0,.1-.1.2-.1h.6Zm.1-1.9h.3a.22.22,0,0,1,.2.2c.1.1.1.1.1.2v1.2a.22.22,0,0,1-.2.2c-.1.1-.1.1-.2.1h-.8a.22.22,0,0,1-.2-.2c-.1-.1-.1-.1-.1-.2V12.1a.22.22,0,0,1,.2-.2c.1-.1.1-.1.2-.1h.5Zm.1-2a.37.37,0,0,1,.3.1.22.22,0,0,1,.2.2c0,.1.1.1.1.2v1.2a.22.22,0,0,1-.2.2c-.1.1-.1.1-.2.1h-.8a.22.22,0,0,1-.2-.2c-.1-.1-.1-.1-.1-.2V10.2a.35.35,0,0,1,.1-.2c.1-.1.1-.1.2-.1H98Z"/><path d="M100.6,19.7h.3a.22.22,0,0,1,.2.2c.1.1.1.1.1.2v1.2a.22.22,0,0,1-.2.2c-.1.1-.1.1-.2.1H100a.22.22,0,0,1-.2-.2c-.1-.1-.1-.1-.1-.2V20a.22.22,0,0,1,.2-.2c.1-.1.1-.1.2-.1h.5Zm.6-6h.3a.35.35,0,0,1,.2.1c.1.1.1.1.1.2v.3a1.27,1.27,0,0,1-.1.6.37.37,0,0,1-.1.3.22.22,0,0,1-.2.2c-.1,0-.1.1-.2.1h-.8a.35.35,0,0,1-.3-.3v-.3l.1-.6a.37.37,0,0,1,.1-.3.22.22,0,0,1,.2-.2c.1-.1.1-.1.2-.1h.5Zm.2-2h.2c.1,0,.1,0,.2.1s.1.2.2.3V13a.37.37,0,0,1-.1.3.22.22,0,0,1-.2.2c-.1.1-.1.1-.2.1h-.8a.35.35,0,0,1-.3-.3v-.9a.37.37,0,0,1,.1-.3.22.22,0,0,1,.2-.2c.1-.1.1-.1.2-.1h.4A.1.1,0,0,1,101.4,11.7Zm.8,10.1h.3a.22.22,0,0,1,.2.2c0,.1.1.1.1.2v1.2a.35.35,0,0,1-.1.2c-.1.1-.1.1-.2.1H102a.37.37,0,0,1-.3-.1.22.22,0,0,1-.2-.2c-.1-.1-.1-.1-.1-.2V22a.22.22,0,0,1,.2-.2c.1,0,.1-.1.2-.1h.4C102.1,21.8,102.1,21.8,102.2,21.8Zm.5-6.1h.3a.35.35,0,0,1,.2.1c.1.1.1.1.1.2v.9a.37.37,0,0,1-.1.3.22.22,0,0,1-.2.2c-.1.1-.1.1-.2.1H102a.35.35,0,0,1-.2-.1c-.1-.1-.1-.1-.1-.2v-.9a.37.37,0,0,1,.1-.3.22.22,0,0,1,.2-.2c.1-.1.1-.1.2-.1h.5Zm.5-6.1h.3c.1,0,.1.1.2.2s.1.1.1.2v.9a.37.37,0,0,1-.1.3.22.22,0,0,1-.2.2c-.1.1-.1.1-.2.1h-.8a.35.35,0,0,1-.2-.1c-.1-.1-.1-.1-.1-.2v-.9a.37.37,0,0,1,.1-.3.22.22,0,0,1,.2-.2l.2-.2h.5Zm.6,12.2h.3a.35.35,0,0,1,.2.1c.1.1.1.1.1.2V23a.37.37,0,0,1-.1.3.35.35,0,0,1-.1.2c-.1.1-.1.1-.2.1h-.8a.22.22,0,0,1-.2-.2c0-.1-.1-.1-.1-.2V22a.22.22,0,0,1,.2-.2c.1,0,.1-.1.2-.1h.5Zm.5-6.1h.2c.1,0,.1,0,.2.1s.1.2.2.3,0,.2,0,.3V17a.37.37,0,0,1-.1.3.22.22,0,0,1-.2.2c-.1.1-.1.1-.2.1h-.8a.31.31,0,0,1-.2-.1c-.1-.1-.1-.2-.2-.3v-.9a.37.37,0,0,1,.1-.3.22.22,0,0,1,.2-.2c.1-.1.1-.1.2-.1h.6Zm.6-6.1h.3a.22.22,0,0,1,.2.2c0,.1.1.1.1.2v1.2a.22.22,0,0,1-.2.2c-.1,0-.1.1-.2.1h-.8a.35.35,0,0,1-.3-.3V10a.35.35,0,0,1,.1-.2l.2-.2h.6Zm.6,12.2h.3a.35.35,0,0,1,.2.1c.1.1.1.1.1.2V23a.37.37,0,0,1-.1.3.22.22,0,0,1-.2.2c-.1,0-.1.1-.2.2a.19.19,0,0,1-.3,0h-.5c-.1,0-.1-.1-.2-.2s-.1-.1-.1-.2v-.9a.37.37,0,0,1,.1-.3.22.22,0,0,1,.2-.2c.1,0,.1-.1.2-.1h.5Zm.5-6.1h.3a.35.35,0,0,1,.2.1c.1.1.1.1.1.2v.9a.37.37,0,0,1-.1.3.22.22,0,0,1-.2.2c-.1.1-.1.1-.2.1h-.9a.35.35,0,0,1-.3-.3v-.9a.37.37,0,0,1,.1-.3.22.22,0,0,1,.2-.2c.1-.1.1-.1.2-.1h.6Zm.5-6h.3a.22.22,0,0,1,.2.2c0,.1.1.1.1.2v1.2a.22.22,0,0,1-.2.2c-.1.1-.1.1-.2.1h-.8a.22.22,0,0,1-.2-.2c-.1-.1-.1-.1-.1-.2V10a.35.35,0,0,1,.3-.3h.6Zm.8,10h.2c.1,0,.1,0,.2.1s.1.2.2.3V21a.37.37,0,0,1-.1.3.22.22,0,0,1-.2.2l-.2.2a.19.19,0,0,1-.3,0h-.5a.35.35,0,0,1-.2-.1c-.1-.1-.1-.1-.1-.2v-.9a.37.37,0,0,1,.1-.3.22.22,0,0,1,.2-.2c.1-.1.1-.1.2-.1s.2-.1.3,0h.1C107.2,19.7,107.3,19.7,107.3,19.7Zm.2-2h.3a.35.35,0,0,1,.2.1c.1.1.1.1.1.2v.9a.37.37,0,0,1-.1.3.22.22,0,0,1-.2.2c-.1.1-.1.1-.2.1h-.7c-.1,0-.1,0-.2-.1s-.1-.2-.2-.3,0-.2,0-.3v-.6a.37.37,0,0,1,.1-.3.22.22,0,0,1,.2-.2c.1-.1.1-.1.2-.1h.4Zm.2-2h.3a.35.35,0,0,1,.3.3v.9a.37.37,0,0,1-.1.3.22.22,0,0,1-.2.2.35.35,0,0,0-.2.1H107a.35.35,0,0,1-.3-.3v-.9a.37.37,0,0,1,.1-.3.22.22,0,0,1,.2-.2c.1-.1.1-.1.2-.1h.5Zm.2-2h.3a.35.35,0,0,1,.2.1c.1.1.1.1.1.2v1.2a.22.22,0,0,1-.2.2c-.1.1-.1.1-.2.1h-.8a.35.35,0,0,1-.2-.1c-.1-.1-.1-.1-.1-.2V14a.22.22,0,0,1,.2-.2c.1,0,.1-.1.2-.1h.5Zm.1-1.9h.3a.35.35,0,0,1,.3.3v1.2a.22.22,0,0,1-.2.2c-.1.1-.1.1-.2.1h-.8a.35.35,0,0,1-.2-.1c-.1-.1-.1-.1-.1-.2V12.1a.35.35,0,0,1,.1-.2c.1-.1.1-.1.2-.1h.6Z"/><path d="M111.9,21.7h.3a.22.22,0,0,1,.2.2c0,.1.1.1.1.2v1.2a.35.35,0,0,1-.1.2c-.1.1-.1.1-.2.1h-.5a.37.37,0,0,1-.3-.1l-.2-.2a.31.31,0,0,1-.1-.2V21.9c0-.1.1-.1.2-.2s.1-.1.2-.1h.4Zm.9-10h.3a.35.35,0,0,1,.3.3v.9a.37.37,0,0,1-.1.3.22.22,0,0,1-.2.2c-.1.1-.1.1-.2.1h-.8a.35.35,0,0,1-.2-.1c-.1-.1-.1-.1-.1-.2v-.9a.37.37,0,0,1,.1-.3.22.22,0,0,1,.2-.2l.2-.2h.4Zm.8,10.1h.3a.35.35,0,0,1,.2.1c.1.1.1.1.1.2V23a.37.37,0,0,1-.1.3.35.35,0,0,1-.1.2l-.2.2H113a.22.22,0,0,1-.2-.2c0-.1-.1-.1-.1-.2V22.1a.22.22,0,0,1,.2-.2c.1-.1.1-.1.2-.1h.5Zm.2-2h.2c.1,0,.1,0,.2.1s.1.2.2.3v.9a.37.37,0,0,1-.1.3.22.22,0,0,1-.2.2c-.1,0-.1.1-.2.2s-.2,0-.3,0h-.5a.22.22,0,0,1-.2-.2c-.1-.1-.1-.1-.1-.2V20.2a.22.22,0,0,1,.2-.2c.1-.1.1-.1.2-.1h.4C113.7,19.8,113.7,19.8,113.8,19.8Zm.2-2.1h.2c.1,0,.1,0,.2.1s.1.2.2.3V19a.37.37,0,0,1-.1.3.22.22,0,0,1-.2.2c-.1.1-.1.1-.2.1h-.8a.35.35,0,0,1-.3-.3v-.9a.37.37,0,0,1,.1-.3.22.22,0,0,1,.2-.2c.1-.1.1-.1.2-.1h.5Zm.2-2h.3a.35.35,0,0,1,.2.1c.1.1.1.1.1.2v.9a.37.37,0,0,1-.1.3.22.22,0,0,1-.2.2c-.1,0-.1.1-.2.1h-.8a.35.35,0,0,1-.2-.1c-.1-.1-.1-.1-.1-.2v-.9a.37.37,0,0,1,.1-.3.22.22,0,0,1,.2-.2c.1-.1.1-.1.2-.1h.5Zm.1-2h.3a.22.22,0,0,1,.2.2c.1.1.1.1.1.2V15a.37.37,0,0,1-.1.3c-.1.1-.1.2-.2.2s-.1.1-.2.1h-.8a.35.35,0,0,1-.2-.1c-.1-.1-.1-.1-.1-.2V14.1a.22.22,0,0,1,.2-.2c.1,0,.1-.1.2-.1h.6Zm.2-2h.3a.22.22,0,0,1,.2.2c.1.1.1.1.1.2V13a.37.37,0,0,1-.1.3.22.22,0,0,1-.2.2c-.1.1-.1.1-.2.1h-.8a.35.35,0,0,1-.2-.1c-.1-.1-.1-.1-.1-.2v-.9a.37.37,0,0,1,.1-.3.22.22,0,0,1,.2-.2c.1,0,.1-.1.2-.1h.4A.1.1,0,0,1,114.5,11.7Zm.1-2a.37.37,0,0,1,.3.1.22.22,0,0,1,.2.2c.1.1.1.1.1.2v1.2a.22.22,0,0,1-.2.2c-.1.1-.1.1-.2.1H114a.22.22,0,0,1-.2-.2c0-.1-.1-.1-.1-.2V10.1a.22.22,0,0,1,.2-.2c.1-.1.1-.1.2-.1h.3Zm.6,12h.2c.1,0,.1,0,.2.1a.37.37,0,0,1,.1.3V23a.37.37,0,0,1-.1.3c-.1.1-.1.2-.2.2l-.2.2c-.1,0-.2.1-.3.1h-.4c-.1,0-.1,0-.2-.1s-.1-.2-.2-.3v-.9a.37.37,0,0,1,.1-.3.22.22,0,0,1,.2-.2c.1,0,.1-.1.2-.2s.2-.1.3-.1h.3Z"/><path d="M121.7,21.7h.3a.22.22,0,0,1,.2.2c0,.1.1.1.1.2v1.2a.35.35,0,0,1-.1.2c-.1.1-.1.1-.2.1h-.5a.37.37,0,0,1-.3-.1l-.2-.2a.31.31,0,0,1-.1-.2V21.9c0-.1.1-.1.2-.2s.1-.1.2-.1h.4C121.6,21.7,121.7,21.7,121.7,21.7Zm.9-10h.3a.35.35,0,0,1,.3.3v.9a.37.37,0,0,1-.1.3.22.22,0,0,1-.2.2c-.1.1-.1.1-.2.1h-.8a.35.35,0,0,1-.2-.1c-.1-.1-.1-.1-.1-.2v-.9a.37.37,0,0,1,.1-.3.22.22,0,0,1,.2-.2l.2-.2h.4A.1.1,0,0,0,122.6,11.7Zm.8,10.1h.3a.35.35,0,0,1,.2.1c.1.1.1.1.1.2V23a.37.37,0,0,1-.1.3.35.35,0,0,1-.1.2l-.2.2h-.9a.22.22,0,0,1-.2-.2c0-.1-.1-.1-.1-.2V22.1a.22.22,0,0,1,.2-.2c.1-.1.1-.1.2-.1h.6Zm.2-2h.2c.1,0,.1,0,.2.1s.1.2.2.3v.9a.37.37,0,0,1-.1.3.22.22,0,0,1-.2.2c-.1,0-.1.1-.2.2s-.2,0-.3,0h-.5a.22.22,0,0,1-.2-.2c-.1-.1-.1-.1-.1-.2V20.2a.22.22,0,0,1,.2-.2c.1-.1.1-.1.2-.1h.4C123.5,19.8,123.5,19.8,123.6,19.8Zm.2-2.1h.2c.1,0,.1,0,.2.1s.1.2.2.3V19a.37.37,0,0,1-.1.3.22.22,0,0,1-.2.2c-.1.1-.1.1-.2.1h-.8a.35.35,0,0,1-.3-.3v-.9a.37.37,0,0,1,.1-.3.22.22,0,0,1,.2-.2c.1-.1.1-.1.2-.1h.5Zm.1-2h.3a.35.35,0,0,1,.2.1c.1.1.1.1.1.2v.9a.37.37,0,0,1-.1.3.22.22,0,0,1-.2.2c-.1,0-.1.1-.2.1h-.8a.35.35,0,0,1-.2-.1c-.1-.1-.1-.1-.1-.2v-.9a.37.37,0,0,1,.1-.3.22.22,0,0,1,.2-.2c.1-.1.1-.1.2-.1h.5Zm.2-2h.3a.22.22,0,0,1,.2.2c.1.1.1.1.1.2V15a.37.37,0,0,1-.1.3c-.1.1-.1.2-.2.2s-.1.1-.2.1h-.8a.35.35,0,0,1-.2-.1c-.1-.1-.1-.1-.1-.2V14.1a.22.22,0,0,1,.2-.2c.1,0,.1-.1.2-.1h.6Zm.2-2h.3a.22.22,0,0,1,.2.2c.1.1.1.1.1.2V13a.37.37,0,0,1-.1.3.22.22,0,0,1-.2.2c-.1.1-.1.1-.2.1h-.8a.35.35,0,0,1-.2-.1c-.1-.1-.1-.1-.1-.2v-.9a.37.37,0,0,1,.1-.3.22.22,0,0,1,.2-.2c.1,0,.1-.1.2-.1h.4C124.2,11.7,124.2,11.7,124.3,11.7Zm.1-2a.37.37,0,0,1,.3.1.22.22,0,0,1,.2.2c.1.1.1.1.1.2v1.2a.22.22,0,0,1-.2.2c-.1.1-.1.1-.2.1h-.8a.22.22,0,0,1-.2-.2c0-.1-.1-.1-.1-.2V10.1a.22.22,0,0,1,.2-.2c.1-.1.1-.1.2-.1h.3Zm.6,12h.2c.1,0,.1,0,.2.1a.37.37,0,0,1,.1.3V23a.37.37,0,0,1-.1.3c-.1.1-.1.2-.2.2l-.2.2c-.1,0-.2.1-.3.1h-.4c-.1,0-.1,0-.2-.1s-.1-.2-.2-.3v-.9a.37.37,0,0,1,.1-.3.22.22,0,0,1,.2-.2c.1,0,.1-.1.2-.2s.2-.1.3-.1h.3Z"/><path d="M130,19.7h.3a.22.22,0,0,1,.2.2c.1.1.1.1.1.2v1.2a.22.22,0,0,1-.2.2c-.1.1-.1.1-.2.1h-.8a.22.22,0,0,1-.2-.2c-.1-.1-.1-.1-.1-.2V20a.22.22,0,0,1,.2-.2c.1-.1.1-.1.2-.1h.5Zm.1-2h.3a.35.35,0,0,1,.3.3v1.2a.22.22,0,0,1-.2.2c-.1.1-.1.1-.2.1h-.8a.35.35,0,0,1-.3-.3V18a.22.22,0,0,1,.2-.2c.1-.1.1-.1.2-.1h.5Zm.2-2h.3a.35.35,0,0,1,.2.1c.1.1.1.1.1.2v.9a.37.37,0,0,1-.1.3.22.22,0,0,1-.2.2.31.31,0,0,1-.2.1h-.7c-.1,0-.1-.1-.2-.1s-.1-.2-.2-.3v-.9a.37.37,0,0,1,.1-.3.22.22,0,0,1,.2-.2c.1-.1.1-.1.2-.1h.4Zm.2-2h.3a.35.35,0,0,1,.2.1c.1.1.1.1.1.2v.3a1.27,1.27,0,0,1-.1.6.37.37,0,0,1-.1.3.22.22,0,0,1-.2.2c-.1,0-.1.1-.2.1h-.8a.35.35,0,0,1-.3-.3v-.3l.1-.6a.37.37,0,0,1,.1-.3.22.22,0,0,1,.2-.2c.1-.1.1-.1.2-.1h.5Zm.2-2h.2c.1,0,.1,0,.2.1s.1.2.2.3V13a.37.37,0,0,1-.1.3.22.22,0,0,1-.2.2c-.1.1-.1.1-.2.1H130a.35.35,0,0,1-.3-.3v-.9a.37.37,0,0,1,.1-.3.22.22,0,0,1,.2-.2c.1-.1.1-.1.2-.1h.4Zm.8,10.1h.3a.22.22,0,0,1,.2.2c0,.1.1.1.1.2v1.2a.35.35,0,0,1-.1.2c-.1.1-.1.1-.2.1h-.5a.37.37,0,0,1-.3-.1.22.22,0,0,1-.2-.2c-.1-.1-.1-.1-.1-.2V22a.22.22,0,0,1,.2-.2c.1,0,.1-.1.2-.1h.4C131.4,21.8,131.4,21.8,131.5,21.8Zm.3-4.1h.3a.22.22,0,0,1,.2.2c0,.1.1.1.1.2V19a.37.37,0,0,1-.1.3.22.22,0,0,1-.2.2c-.1.1-.1.1-.2.1h-.8a.35.35,0,0,1-.2-.1c-.1-.1-.1-.1-.1-.2V18.1a.22.22,0,0,1,.2-.2c.1-.1.1-.1.2-.1h.4A.31.31,0,0,1,131.8,17.7Zm.8-8.1h.3c.1,0,.1.1.2.2s.1.1.1.2v.9a.37.37,0,0,1-.1.3.22.22,0,0,1-.2.2c-.1.1-.1.1-.2.1h-.8a.35.35,0,0,1-.2-.1c-.1-.1-.1-.1-.1-.2v-.9a.37.37,0,0,1,.1-.3.22.22,0,0,1,.2-.2l.2-.2h.5Zm.5,12.2h.3a.35.35,0,0,1,.2.1c.1.1.1.1.1.2V23a.37.37,0,0,1-.1.3.35.35,0,0,1-.1.2c-.1.1-.1.1-.2.1h-.8a.22.22,0,0,1-.2-.2c0-.1-.1-.1-.1-.2V22a.22.22,0,0,1,.2-.2c.1,0,.1-.1.2-.1h.5Zm.6-6.1h.2c.1,0,.1,0,.2.1s.1.2.2.3,0,.2,0,.3V17a.37.37,0,0,1-.1.3.22.22,0,0,1-.2.2c-.1.1-.1.1-.2.1H133a.31.31,0,0,1-.2-.1c-.1-.1-.1-.2-.2-.3v-.9a.37.37,0,0,1,.1-.3.22.22,0,0,1,.2-.2c.1-.1.1-.1.2-.1h.6Zm.5-6.1h.3a.22.22,0,0,1,.2.2c0,.1.1.1.1.2v1.2a.22.22,0,0,1-.2.2c-.1,0-.1.1-.2.1h-.8a.35.35,0,0,1-.3-.3V10a.35.35,0,0,1,.1-.2l.2-.2h.6Zm.6,12.2h.3a.35.35,0,0,1,.2.1c.1.1.1.1.1.2V23a.37.37,0,0,1-.1.3.22.22,0,0,1-.2.2c-.1,0-.1.1-.2.2a.19.19,0,0,1-.3,0h-.5c-.1,0-.1-.1-.2-.2s-.1-.1-.1-.2v-.9a.37.37,0,0,1,.1-.3.22.22,0,0,1,.2-.2c.1,0,.1-.1.2-.1h.5Zm.7-8.1h.3a.35.35,0,0,1,.2.1c.1.1.1.1.1.2v1.2a.22.22,0,0,1-.2.2c-.1,0-.1.1-.2.1h-.9a.35.35,0,0,1-.2-.1c-.1-.1-.1-.1-.1-.2v-.9a.37.37,0,0,1,.1-.3.22.22,0,0,1,.2-.2c.1,0,.1-.1.2-.1h.5Zm.3-4h.3a.22.22,0,0,1,.2.2c0,.1.1.1.1.2v1.2a.22.22,0,0,1-.2.2c-.1.1-.1.1-.2.1h-.8a.22.22,0,0,1-.2-.2c-.1-.1-.1-.1-.1-.2V10a.35.35,0,0,1,.3-.3h.6Zm.9,10h.2c.1,0,.1,0,.2.1s.1.2.2.3V21a.37.37,0,0,1-.1.3.22.22,0,0,1-.2.2l-.2.2a.19.19,0,0,1-.3,0H136a.35.35,0,0,1-.2-.1c-.1-.1-.1-.1-.1-.2v-.9a.37.37,0,0,1,.1-.3.22.22,0,0,1,.2-.2c.1-.1.1-.1.2-.1s.2-.1.3,0h.1C136.6,19.7,136.6,19.7,136.7,19.7Zm.2-2h.3a.35.35,0,0,1,.2.1c.1.1.1.1.1.2v.9a.37.37,0,0,1-.1.3.22.22,0,0,1-.2.2c-.1.1-.1.1-.2.1h-.7c-.1,0-.1,0-.2-.1s-.1-.2-.2-.3,0-.2,0-.3v-.6a.37.37,0,0,1,.1-.3.22.22,0,0,1,.2-.2c.1-.1.1-.1.2-.1h.4A.1.1,0,0,0,136.9,17.7Zm.2-2h.3a.35.35,0,0,1,.3.3v.9a.37.37,0,0,1-.1.3.22.22,0,0,1-.2.2.35.35,0,0,0-.2.1h-.8a.35.35,0,0,1-.3-.3v-.9a.37.37,0,0,1,.1-.3.22.22,0,0,1,.2-.2c.1-.1.1-.1.2-.1h.5Zm.1-2h.3a.35.35,0,0,1,.2.1c.1.1.1.1.1.2v1.2a.22.22,0,0,1-.2.2c-.1.1-.1.1-.2.1h-.8a.35.35,0,0,1-.2-.1c-.1-.1-.1-.1-.1-.2V14a.22.22,0,0,1,.2-.2c.1,0,.1-.1.2-.1h.5Zm.1-1.9h.3a.35.35,0,0,1,.3.3v1.2a.22.22,0,0,1-.2.2c-.1.1-.1.1-.2.1h-.8a.35.35,0,0,1-.2-.1c-.1-.1-.1-.1-.1-.2V12.1a.35.35,0,0,1,.1-.2c.1-.1.1-.1.2-.1h.6Z"/><path d="M151.1,21.7h.3a.22.22,0,0,1,.2.2c0,.1.1.1.1.2v1.2a.35.35,0,0,1-.1.2c-.1.1-.1.1-.2.1h-.5a.37.37,0,0,1-.3-.1l-.2-.2a.31.31,0,0,1-.1-.2V21.9c0-.1.1-.1.2-.2s.1-.1.2-.1h.4C151,21.7,151,21.7,151.1,21.7Zm.8-10h.3a.35.35,0,0,1,.3.3v.9a.37.37,0,0,1-.1.3.22.22,0,0,1-.2.2c-.1.1-.1.1-.2.1h-.8a.35.35,0,0,1-.2-.1c-.1-.1-.1-.1-.1-.2v-.9a.37.37,0,0,1,.1-.3.22.22,0,0,1,.2-.2l.2-.2h.4Zm.8,10.1h.3a.35.35,0,0,1,.2.1c.1.1.1.1.1.2V23a.37.37,0,0,1-.1.3.35.35,0,0,1-.1.2l-.2.2h-.8a.22.22,0,0,1-.2-.2c0-.1-.1-.1-.1-.2V22.1a.22.22,0,0,1,.2-.2c.1-.1.1-.1.2-.1h.5Zm.2-2h.2c.1,0,.1,0,.2.1s.1.2.2.3v.9a.37.37,0,0,1-.1.3.22.22,0,0,1-.2.2c-.1,0-.1.1-.2.2s-.2,0-.3,0h-.5a.22.22,0,0,1-.2-.2c-.1-.1-.1-.1-.1-.2V20.2a.22.22,0,0,1,.2-.2c.1-.1.1-.1.2-.1h.4A.31.31,0,0,1,152.9,19.8Zm.2-2.1h.2c.1,0,.1,0,.2.1s.1.2.2.3V19a.37.37,0,0,1-.1.3.22.22,0,0,1-.2.2c-.1.1-.1.1-.2.1h-.8a.35.35,0,0,1-.3-.3v-.9a.37.37,0,0,1,.1-.3.22.22,0,0,1,.2-.2c.1-.1.1-.1.2-.1h.5Zm.2-2h.3a.35.35,0,0,1,.2.1c.1.1.1.1.1.2v.9a.37.37,0,0,1-.1.3.22.22,0,0,1-.2.2c-.1,0-.1.1-.2.1h-.8a.35.35,0,0,1-.2-.1c-.1-.1-.1-.1-.1-.2v-.9a.37.37,0,0,1,.1-.3.22.22,0,0,1,.2-.2c.1-.1.1-.1.2-.1h.5Zm.1-2h.3a.22.22,0,0,1,.2.2c.1.1.1.1.1.2V15a.37.37,0,0,1-.1.3c-.1.1-.1.2-.2.2s-.1.1-.2.1h-.8a.35.35,0,0,1-.2-.1c-.1-.1-.1-.1-.1-.2V14.1a.22.22,0,0,1,.2-.2c.1,0,.1-.1.2-.1h.6Zm.2-2h.3a.22.22,0,0,1,.2.2c.1.1.1.1.1.2V13a.37.37,0,0,1-.1.3.22.22,0,0,1-.2.2c-.1.1-.1.1-.2.1h-.8a.35.35,0,0,1-.2-.1c-.1-.1-.1-.1-.1-.2v-.9a.37.37,0,0,1,.1-.3.22.22,0,0,1,.2-.2c.1,0,.1-.1.2-.1h.4A.1.1,0,0,1,153.6,11.7Zm.1-2a.37.37,0,0,1,.3.1.22.22,0,0,1,.2.2c.1.1.1.1.1.2v1.2a.22.22,0,0,1-.2.2c-.1.1-.1.1-.2.1h-.8a.22.22,0,0,1-.2-.2c0-.1-.1-.1-.1-.2V10.1a.22.22,0,0,1,.2-.2c.1-.1.1-.1.2-.1h.3Zm.7,12h.2c.1,0,.1,0,.2.1a.37.37,0,0,1,.1.3V23a.37.37,0,0,1-.1.3c-.1.1-.1.2-.2.2l-.2.2c-.1,0-.2.1-.3.1h-.4c-.1,0-.1,0-.2-.1s-.1-.2-.2-.3v-.9a.37.37,0,0,1,.1-.3.22.22,0,0,1,.2-.2c.1,0,.1-.1.2-.2s.2-.1.3-.1h.3Z"/><path d="M159.3,19.7h.3a.22.22,0,0,1,.2.2c.1.1.1.1.1.2v1.2a.22.22,0,0,1-.2.2c-.1.1-.1.1-.2.1h-.8a.22.22,0,0,1-.2-.2c-.1-.1-.1-.1-.1-.2V20a.22.22,0,0,1,.2-.2c.1-.1.1-.1.2-.1h.5Zm.5-6h.3a.35.35,0,0,1,.2.1c.1.1.1.1.1.2v.3a1.27,1.27,0,0,1-.1.6.37.37,0,0,1-.1.3.22.22,0,0,1-.2.2c-.1,0-.1.1-.2.1H159a.35.35,0,0,1-.3-.3v-.3l.1-.6a.37.37,0,0,1,.1-.3.22.22,0,0,1,.2-.2c.1-.1.1-.1.2-.1h.5Zm.3-2h.2c.1,0,.1,0,.2.1s.1.2.2.3V13a.37.37,0,0,1-.1.3.22.22,0,0,1-.2.2c-.1.1-.1.1-.2.1h-.8a.35.35,0,0,1-.3-.3v-.9a.37.37,0,0,1,.1-.3.22.22,0,0,1,.2-.2c.1-.1.1-.1.2-.1h.4A.1.1,0,0,1,160.1,11.7Zm.7,10.1h.3a.22.22,0,0,1,.2.2c0,.1.1.1.1.2v1.2a.35.35,0,0,1-.1.2c-.1.1-.1.1-.2.1h-.5a.37.37,0,0,1-.3-.1.22.22,0,0,1-.2-.2c-.1-.1-.1-.1-.1-.2V22a.22.22,0,0,1,.2-.2c.1,0,.1-.1.2-.1h.4C160.7,21.8,160.8,21.8,160.8,21.8Zm.5-6.1h.3a.35.35,0,0,1,.2.1c.1.1.1.1.1.2v.9a.37.37,0,0,1-.1.3.22.22,0,0,1-.2.2c-.1.1-.1.1-.2.1h-.8a.35.35,0,0,1-.2-.1c-.1-.1-.1-.1-.1-.2v-.9a.37.37,0,0,1,.1-.3.22.22,0,0,1,.2-.2c.1-.1.1-.1.2-.1h.5Zm.6-6.1h.3c.1,0,.1.1.2.2s.1.1.1.2v.9a.37.37,0,0,1-.1.3.22.22,0,0,1-.2.2c-.1.1-.1.1-.2.1h-.8a.35.35,0,0,1-.2-.1c-.1-.1-.1-.1-.1-.2v-.9a.37.37,0,0,1,.1-.3.22.22,0,0,1,.2-.2l.2-.2h.5Zm.6,12.2h.3a.35.35,0,0,1,.2.1c.1.1.1.1.1.2V23a.37.37,0,0,1-.1.3.35.35,0,0,1-.1.2c-.1.1-.1.1-.2.1h-.8a.22.22,0,0,1-.2-.2c0-.1-.1-.1-.1-.2V22a.22.22,0,0,1,.2-.2c.1,0,.1-.1.2-.1h.5Zm.5-6.1h.2c.1,0,.1,0,.2.1s.1.2.2.3,0,.2,0,.3V17a.37.37,0,0,1-.1.3.22.22,0,0,1-.2.2c-.1.1-.1.1-.2.1h-.8a.31.31,0,0,1-.2-.1c-.1-.1-.1-.2-.2-.3v-.9a.37.37,0,0,1,.1-.3.22.22,0,0,1,.2-.2c.1-.1.1-.1.2-.1h.6Zm.5-6.1h.3a.22.22,0,0,1,.2.2c0,.1.1.1.1.2v1.2a.22.22,0,0,1-.2.2c-.1,0-.1.1-.2.1h-.8a.35.35,0,0,1-.3-.3V10a.35.35,0,0,1,.1-.2l.2-.2h.6Zm.6,12.2h.3a.35.35,0,0,1,.2.1c.1.1.1.1.1.2V23a.37.37,0,0,1-.1.3.22.22,0,0,1-.2.2c-.1,0-.1.1-.2.2a.19.19,0,0,1-.3,0h-.5c-.1,0-.1-.1-.2-.2s-.1-.1-.1-.2v-.9a.37.37,0,0,1,.1-.3.22.22,0,0,1,.2-.2c.1,0,.1-.1.2-.1h.5Zm.6-6.1h.3a.35.35,0,0,1,.2.1c.1.1.1.1.1.2v.9a.37.37,0,0,1-.1.3.22.22,0,0,1-.2.2c-.1.1-.1.1-.2.1h-.9a.35.35,0,0,1-.3-.3v-.9a.37.37,0,0,1,.1-.3.22.22,0,0,1,.2-.2c.1-.1.1-.1.2-.1h.6Zm.4-6h.3a.22.22,0,0,1,.2.2c0,.1.1.1.1.2v1.2a.22.22,0,0,1-.2.2c-.1.1-.1.1-.2.1h-.8a.22.22,0,0,1-.2-.2c-.1-.1-.1-.1-.1-.2V10a.35.35,0,0,1,.3-.3h.6Zm.9,10h.2c.1,0,.1,0,.2.1s.1.2.2.3V21a.37.37,0,0,1-.1.3.22.22,0,0,1-.2.2l-.2.2a.19.19,0,0,1-.3,0h-.5a.35.35,0,0,1-.2-.1c-.1-.1-.1-.1-.1-.2v-.9a.37.37,0,0,1,.1-.3.22.22,0,0,1,.2-.2c.1-.1.1-.1.2-.1s.2-.1.3,0h.1C165.9,19.7,165.9,19.7,166,19.7Zm.2-2h.3a.35.35,0,0,1,.2.1c.1.1.1.1.1.2v.9a.37.37,0,0,1-.1.3.22.22,0,0,1-.2.2c-.1.1-.1.1-.2.1h-.7c-.1,0-.1,0-.2-.1s-.1-.2-.2-.3,0-.2,0-.3v-.6a.37.37,0,0,1,.1-.3.22.22,0,0,1,.2-.2c.1-.1.1-.1.2-.1h.4Zm.2-2h.3a.35.35,0,0,1,.3.3v.9a.37.37,0,0,1-.1.3.22.22,0,0,1-.2.2.35.35,0,0,0-.2.1h-.8a.35.35,0,0,1-.3-.3v-.9a.37.37,0,0,1,.1-.3.22.22,0,0,1,.2-.2c.1-.1.1-.1.2-.1h.5Zm.1-2h.3a.35.35,0,0,1,.2.1c.1.1.1.1.1.2v1.2a.22.22,0,0,1-.2.2c-.1.1-.1.1-.2.1h-.8a.35.35,0,0,1-.2-.1c-.1-.1-.1-.1-.1-.2V14a.22.22,0,0,1,.2-.2c.1,0,.1-.1.2-.1h.5Zm.2-1.9h.3a.35.35,0,0,1,.3.3v1.2a.22.22,0,0,1-.2.2c-.1.1-.1.1-.2.1h-.8a.35.35,0,0,1-.2-.1c-.1-.1-.1-.1-.1-.2V12.1a.35.35,0,0,1,.1-.2c.1-.1.1-.1.2-.1h.6Z"/></g><g class="cls-2"><path class="cls-7" d="M23.8,179.3a14.66,14.66,0,0,1,4.6.6,5.38,5.38,0,0,1,2.7,1.8,4.76,4.76,0,0,1,.9,2.9,5.56,5.56,0,0,1-.5,2.3,3.32,3.32,0,0,1-1.5,1.6,7.54,7.54,0,0,1-2.4,1,17.62,17.62,0,0,1-3.8.4,14.66,14.66,0,0,1-4.6-.6,5.38,5.38,0,0,1-2.7-1.8,4.86,4.86,0,0,1-.9-3,4.52,4.52,0,0,1,1.7-3.7C18.6,179.8,20.8,179.3,23.8,179.3Zm0,2c-2.6,0-4.4.3-5.3.9a2.68,2.68,0,0,0,0,4.6c.9.6,2.6.9,5.3.9s4.4-.3,5.3-.9a2.67,2.67,0,0,0,1.3-2.3,2.63,2.63,0,0,0-1.2-2.2A11.13,11.13,0,0,0,23.8,181.3Z"/><path class="cls-7" d="M15.9,199.8v-2H28.5a10.41,10.41,0,0,1-1.4-1.9,9.69,9.69,0,0,1-1-2.1H28a9.72,9.72,0,0,0,1.9,2.9,14.54,14.54,0,0,0,2.1,1.8v1.3Z"/><path class="cls-7" d="M23.8,205.3a14.66,14.66,0,0,1,4.6.6,5.38,5.38,0,0,1,2.7,1.8,4.76,4.76,0,0,1,.9,2.9,5.56,5.56,0,0,1-.5,2.3,3.32,3.32,0,0,1-1.5,1.6,7.54,7.54,0,0,1-2.4,1,17.62,17.62,0,0,1-3.8.4,14.66,14.66,0,0,1-4.6-.6,5.38,5.38,0,0,1-2.7-1.8,4.86,4.86,0,0,1-.9-3,4.52,4.52,0,0,1,1.7-3.7C18.6,205.8,20.8,205.3,23.8,205.3Zm0,2c-2.6,0-4.4.3-5.3.9a2.68,2.68,0,0,0,0,4.6c.9.6,2.6.9,5.3.9s4.4-.3,5.3-.9a2.67,2.67,0,0,0,1.3-2.3,2.63,2.63,0,0,0-1.2-2.2A11.13,11.13,0,0,0,23.8,207.3Z"/><path class="cls-7" d="M24.6,221.3a3.52,3.52,0,0,1,1.3-1.8,3.38,3.38,0,0,1,2-.6,3.47,3.47,0,0,1,2.9,1.3,5.42,5.42,0,0,1,0,6.8,3.8,3.8,0,0,1-3,1.3,3.08,3.08,0,0,1-1.9-.6,3.52,3.52,0,0,1-1.3-1.8,3.89,3.89,0,0,1-1.6,2.3,4.46,4.46,0,0,1-2.6.8,4.69,4.69,0,0,1-3.5-1.5,6.13,6.13,0,0,1,0-7.8,4.54,4.54,0,0,1,3.5-1.5,4.46,4.46,0,0,1,2.6.8A4.22,4.22,0,0,1,24.6,221.3Zm-4.1-1a2.93,2.93,0,0,0-1.6.4,3.45,3.45,0,0,0-1.2,1.2,3.29,3.29,0,0,0-.4,1.7,3.41,3.41,0,0,0,.9,2.4,3.17,3.17,0,0,0,2.3.9,3.25,3.25,0,0,0,3.3-3.4,3.17,3.17,0,0,0-.9-2.3A3.58,3.58,0,0,0,20.5,220.3Zm7.4.6a2.69,2.69,0,0,0-1.9,4.5,2.41,2.41,0,0,0,1.8.7,2.77,2.77,0,0,0,1.8-4.6A2.89,2.89,0,0,0,27.9,220.9Z"/><path class="cls-7" d="M15.9,238.6H32v6.1a8.53,8.53,0,0,1-.5,3,3.76,3.76,0,0,1-1.5,1.8,4.2,4.2,0,0,1-2.1.6,3.29,3.29,0,0,1-1.9-.6,4.2,4.2,0,0,1-1.5-1.7,4.64,4.64,0,0,1-1.5,2.3,3.49,3.49,0,0,1-2.4.8,4.65,4.65,0,0,1-2.1-.5,4.43,4.43,0,0,1-1.5-1.2,4.94,4.94,0,0,1-.8-1.8,9.78,9.78,0,0,1-.3-2.6Zm1.8,2.2v4a5.76,5.76,0,0,0,.1,1.5,3.37,3.37,0,0,0,.4,1.2,2.36,2.36,0,0,0,.9.8,2.9,2.9,0,0,0,1.4.3,3,3,0,0,0,1.6-.5,1.76,1.76,0,0,0,.9-1.3,7.38,7.38,0,0,0,.3-2.4v-3.8H17.7Zm7.5,0v3.5a9.82,9.82,0,0,0,.2,2.1,2.1,2.1,0,0,0,2.2,1.6,2.3,2.3,0,0,0,1.4-.4,1.78,1.78,0,0,0,.8-1.1A12.94,12.94,0,0,0,30,244v-3.2Z"/></g><g class="cls-2"><path class="cls-7" d="M579,195.7l1.8-.2a3.72,3.72,0,0,0,.9,2,2.87,2.87,0,0,0,1.8.7,2.72,2.72,0,0,0,2.1-.9,3.49,3.49,0,0,0,.9-2.5,3.2,3.2,0,0,0-.8-2.3,2.94,2.94,0,0,0-2.2-.9,2.41,2.41,0,0,0-1.5.4,3.57,3.57,0,0,0-1.1,1l-1.6-.2,1.4-7.2h7.1v1.6h-5.7l-.8,3.8a4.6,4.6,0,0,1,2.7-.9,4,4,0,0,1,3.1,1.3,4.3,4.3,0,0,1,1.3,3.3,5.24,5.24,0,0,1-1.1,3.3,4.65,4.65,0,0,1-3.7,1.7,4.77,4.77,0,0,1-3.2-1.1A4.45,4.45,0,0,1,579,195.7Z"/></g><g class="cls-2"><path class="cls-7" d="M575.8,204.3h16.1v2.2H577.7v8h-1.9V204.3Z"/><path class="cls-7" d="M577.7,227.1h-1.9V216.4a6.75,6.75,0,0,1,1.4.2,8,8,0,0,1,2.1,1.3,21.51,21.51,0,0,1,2.4,2.6,20.36,20.36,0,0,0,3.4,3.6,4,4,0,0,0,2.4.9,3,3,0,0,0,2-.8,3.29,3.29,0,0,0,.8-2.2,3,3,0,0,0-.9-2.3,3.24,3.24,0,0,0-2.4-.9l.2-2.1a5,5,0,0,1,3.5,1.6,5.31,5.31,0,0,1,1.2,3.7,4.92,4.92,0,0,1-1.3,3.7,4.47,4.47,0,0,1-5.1,1,9.61,9.61,0,0,1-2-1.3,24.28,24.28,0,0,1-2.8-3.1c-1-1.2-1.7-2-2-2.3a7.63,7.63,0,0,0-1.1-.8v7.9Z"/><path class="cls-7" d="M580.1,229.6l.3,2a3.91,3.91,0,0,0-2.4,1.2,2.88,2.88,0,0,0-.7,2,3.25,3.25,0,0,0,1,2.4,3.31,3.31,0,0,0,2.4,1,2.79,2.79,0,0,0,2.2-.9,3.17,3.17,0,0,0,.9-2.3,9.32,9.32,0,0,0-.2-1.4l1.7.2v.3a3.69,3.69,0,0,0,.7,2.3,2.12,2.12,0,0,0,2,1,2.41,2.41,0,0,0,1.8-.7,2.93,2.93,0,0,0,0-3.8,3.49,3.49,0,0,0-2.2-1l.4-2a5,5,0,0,1,3.1,1.7,5,5,0,0,1,1.1,3.2,5.42,5.42,0,0,1-.6,2.5,5,5,0,0,1-1.5,1.7,3.7,3.7,0,0,1-2.1.6,3.29,3.29,0,0,1-1.9-.6,4,4,0,0,1-1.4-1.7,3.41,3.41,0,0,1-1.4,2.2,4.46,4.46,0,0,1-2.6.8,4.65,4.65,0,0,1-3.6-1.6,5.28,5.28,0,0,1-1.5-3.9,5.15,5.15,0,0,1,1.3-3.6A4.33,4.33,0,0,1,580.1,229.6Z"/><path class="cls-7" d="M579.5,242.9l.2,1.9a3.74,3.74,0,0,0-1.9.9,2.61,2.61,0,0,0-.6,1.8,2.73,2.73,0,0,0,.4,1.6,2.91,2.91,0,0,0,1.1,1.1,6.9,6.9,0,0,0,1.9.7,9.86,9.86,0,0,0,2.4.3h.4a4.63,4.63,0,0,1-1.5-1.6,4.28,4.28,0,0,1-.6-2.2,4.76,4.76,0,0,1,1.4-3.4,5.38,5.38,0,0,1,3.8-1.4,5.28,5.28,0,0,1,3.9,1.5,5,5,0,0,1,1.5,3.7,5.74,5.74,0,0,1-.8,2.9,5.3,5.3,0,0,1-2.4,2,10.56,10.56,0,0,1-4.5.7,13,13,0,0,1-4.9-.7,6.51,6.51,0,0,1-2.8-2,5.45,5.45,0,0,1-1-3.1,4.44,4.44,0,0,1,4-4.7Zm7.1,8.2a4,4,0,0,0,2.7-.9,2.7,2.7,0,0,0,1-2.2,3,3,0,0,0-1.1-2.3,3.71,3.71,0,0,0-2.8-1,3.49,3.49,0,0,0-2.5.9,3.26,3.26,0,0,0-1,2.3,2.9,2.9,0,0,0,1,2.3A4,4,0,0,0,586.6,251.1Z"/></g><g class="cls-2"><path d="M499,19.7h.3a.22.22,0,0,1,.2.2c0,.1.1.1.1.2v1.2a.22.22,0,0,1-.2.2c-.1.1-.1.1-.2.1h-.8a.22.22,0,0,1-.2-.2c-.1-.1-.1-.1-.1-.2V20a.22.22,0,0,1,.2-.2c.1-.1.1-.1.2-.1h.5Zm.2-2h.3a.35.35,0,0,1,.3.3v1.2a.22.22,0,0,1-.2.2c-.1.1-.1.1-.2.1h-.8a.35.35,0,0,1-.3-.3V18a.22.22,0,0,1,.2-.2c.1-.1.1-.1.2-.1h.5Zm.2-2h.3a.35.35,0,0,1,.2.1c.1.1.1.1.1.2v.9a.37.37,0,0,1-.1.3.22.22,0,0,1-.2.2.31.31,0,0,1-.2.1h-.7a.35.35,0,0,0-.2-.1c-.1-.1-.1-.2-.2-.3s0-.2,0-.3v-.6a.37.37,0,0,1,.1-.3c.1-.1.1-.2.2-.2s.1-.1.2-.1h.4C499.3,15.7,499.3,15.7,499.4,15.7Zm.2-2h.3a.35.35,0,0,1,.3.3v.3a1.27,1.27,0,0,1-.1.6.37.37,0,0,1-.1.3.22.22,0,0,1-.2.2c-.1.1-.1.1-.2.1h-.8a.35.35,0,0,1-.3-.3v-.3l.1-.6a.37.37,0,0,1,.1-.3.22.22,0,0,1,.2-.2c.1-.1.1-.1.2-.1h.5Zm.2-2h.2c.1,0,.1,0,.2.1s.1.2.2.3V13a.37.37,0,0,1-.1.3.22.22,0,0,1-.2.2c-.1,0-.1.1-.2.1h-.8a.35.35,0,0,1-.3-.3v-.9a.37.37,0,0,1,.1-.3.22.22,0,0,1,.2-.2c.1-.1.1-.1.2-.1h.4A.1.1,0,0,1,499.8,11.7Zm.7,10.1h.3a.22.22,0,0,1,.2.2c0,.1.1.1.1.2v1.2a.35.35,0,0,1-.1.2c-.1.1-.1.1-.2.1h-.5a.37.37,0,0,1-.3-.1.22.22,0,0,1-.2-.2c-.1-.1-.1-.1-.1-.2V22a.22.22,0,0,1,.2-.2c.1,0,.1-.1.2-.1h.4Zm.6-6.1h.3a.35.35,0,0,1,.3.3v.9a.37.37,0,0,1-.1.3.22.22,0,0,1-.2.2c-.1.1-.1.1-.2.1h-.8a.35.35,0,0,1-.2-.1c-.1-.1-.1-.1-.1-.2v-.9a.37.37,0,0,1,.1-.3.22.22,0,0,1,.2-.2c.1-.1.1-.1.2-.1h.5Zm.5-6.1h.3c.1,0,.1.1.2.2s.1.1.1.2v.9a.37.37,0,0,1-.1.3.22.22,0,0,1-.2.2c-.1.1-.1.1-.2.1h-.8a.35.35,0,0,1-.2-.1c-.1-.1-.1-.1-.1-.2v-.9a.37.37,0,0,1,.1-.3.22.22,0,0,1,.2-.2l.2-.2h.5Zm.6,12.2h.3a.35.35,0,0,1,.2.1c.1.1.1.1.1.2V23a.37.37,0,0,1-.1.3.35.35,0,0,1-.1.2c-.1.1-.1.1-.2.1h-.8a.22.22,0,0,1-.2-.2c0-.1-.1-.1-.1-.2V22a.22.22,0,0,1,.2-.2c.1,0,.1-.1.2-.1h.5Zm.5-6.1h.2c.1,0,.1,0,.2.1s.1.2.2.3,0,.2,0,.3V17a.37.37,0,0,1-.1.3.22.22,0,0,1-.2.2c-.1,0-.1.1-.2.1H502a.31.31,0,0,1-.2-.1c-.1-.1-.1-.2-.2-.3v-.9a.37.37,0,0,1,.1-.3.22.22,0,0,1,.2-.2c.1-.1.1-.1.2-.1h.6Zm.5-6.1h.3a.22.22,0,0,1,.2.2c.1.1.1.1.1.2v1.2a.22.22,0,0,1-.2.2c-.1,0-.1.1-.2.1h-.8a.35.35,0,0,1-.3-.3V10a.35.35,0,0,1,.1-.2l.2-.2h.6Zm.6,12.2h.3a.35.35,0,0,1,.2.1c.1.1.1.1.1.2V23a.37.37,0,0,1-.1.3.22.22,0,0,1-.2.2c-.1,0-.1.1-.2.2a.19.19,0,0,1-.3,0h-.5c-.1,0-.1-.1-.2-.2s-.1-.1-.1-.2v-.9a.37.37,0,0,1,.1-.3.22.22,0,0,1,.2-.2c.1-.1.1-.1.2-.1h.5Zm.6-6.1h.3a.35.35,0,0,1,.3.3v.9a.37.37,0,0,1-.1.3.22.22,0,0,1-.2.2c-.1,0-.1.1-.2.1h-.9a.35.35,0,0,1-.2-.1c-.1-.1-.1-.1-.1-.2v-.9a.37.37,0,0,1,.1-.3.22.22,0,0,1,.2-.2c.1-.1.1-.1.2-.1h.6Zm.5-6h.3a.22.22,0,0,1,.2.2c0,.1.1.1.1.2v1.2a.22.22,0,0,1-.2.2c-.1.1-.1.1-.2.1h-.8a.22.22,0,0,1-.2-.2c-.1-.1-.1-.1-.1-.2V10a.35.35,0,0,1,.3-.3h.6Zm.8,10h.2a.31.31,0,0,1,.2.1c.1.1.1.2.2.3s0,.2,0,.3V21a.37.37,0,0,1-.1.3.22.22,0,0,1-.2.2l-.2.2a.19.19,0,0,1-.3,0H505a.35.35,0,0,1-.2-.1c-.1-.1-.1-.1-.1-.2v-.9a.37.37,0,0,1,.1-.3.22.22,0,0,1,.2-.2c.1,0,.1-.1.2-.1s.2-.1.3,0h.1Zm.2-2h.3a.35.35,0,0,1,.2.1c.1.1.1.1.1.2v.9a.37.37,0,0,1-.1.3.22.22,0,0,1-.2.2c-.1.1-.1.1-.2.1h-.7c-.1,0-.1,0-.2-.1s-.1-.2-.2-.3,0-.2,0-.3v-.6a.37.37,0,0,1,.1-.3.22.22,0,0,1,.2-.2c.1-.1.1-.1.2-.1h.4A.1.1,0,0,0,505.9,17.7Zm.5-5.9h.3a.35.35,0,0,1,.3.3v1.2a.22.22,0,0,1-.2.2c-.1.1-.1.1-.2.1h-.8a.35.35,0,0,1-.3-.3V12.1a.35.35,0,0,1,.1-.2c.1-.1.1-.1.2-.1h.6Z"/><path d="M508.8,19.7h.3a.22.22,0,0,1,.2.2c0,.1.1.1.1.2v1.2a.22.22,0,0,1-.2.2c-.1.1-.1.1-.2.1h-.8a.22.22,0,0,1-.2-.2c-.1-.1-.1-.1-.1-.2V20a.22.22,0,0,1,.2-.2c.1-.1.1-.1.2-.1h.5Zm.2-2h.3a.35.35,0,0,1,.3.3v1.2a.22.22,0,0,1-.2.2c-.1.1-.1.1-.2.1h-.8a.35.35,0,0,1-.3-.3V18a.22.22,0,0,1,.2-.2c.1-.1.1-.1.2-.1h.5Zm.3-4h.3a.35.35,0,0,1,.3.3v.3a1.27,1.27,0,0,1-.1.6.37.37,0,0,1-.1.3.22.22,0,0,1-.2.2c-.1.1-.1.1-.2.1h-.8a.35.35,0,0,1-.3-.3v-.3l.1-.6a.37.37,0,0,1,.1-.3.22.22,0,0,1,.2-.2c.1-.1.1-.1.2-.1h.5Zm.3-2h.2c.1,0,.1,0,.2.1s.1.2.2.3V13a.37.37,0,0,1-.1.3.22.22,0,0,1-.2.2c-.1,0-.1.1-.2.1h-.8a.35.35,0,0,1-.3-.3v-.9a.37.37,0,0,1,.1-.3.22.22,0,0,1,.2-.2c.1-.1.1-.1.2-.1h.4A.1.1,0,0,1,509.6,11.7Zm.7,10.1h.3a.22.22,0,0,1,.2.2c0,.1.1.1.1.2v1.2a.35.35,0,0,1-.1.2c-.1.1-.1.1-.2.1h-.5a.37.37,0,0,1-.3-.1.22.22,0,0,1-.2-.2c-.1-.1-.1-.1-.1-.2V22a.22.22,0,0,1,.2-.2c.1,0,.1-.1.2-.1h.4C510.2,21.8,510.3,21.8,510.3,21.8Zm.5-6.1h.3a.35.35,0,0,1,.3.3v.9a.37.37,0,0,1-.1.3.22.22,0,0,1-.2.2c-.1.1-.1.1-.2.1h-.8a.35.35,0,0,1-.2-.1c-.1-.1-.1-.1-.1-.2v-.9a.37.37,0,0,1,.1-.3.22.22,0,0,1,.2-.2c.1-.1.1-.1.2-.1h.5Zm.6-6.1h.3c.1,0,.1.1.2.2s.1.1.1.2v.9a.37.37,0,0,1-.1.3.22.22,0,0,1-.2.2c-.1.1-.1.1-.2.1h-.8a.35.35,0,0,1-.2-.1c-.1-.1-.1-.1-.1-.2v-.9a.37.37,0,0,1,.1-.3.22.22,0,0,1,.2-.2l.2-.2h.5Zm.6,12.2h.3a.35.35,0,0,1,.2.1c.1.1.1.1.1.2V23a.37.37,0,0,1-.1.3.35.35,0,0,1-.1.2c-.1.1-.1.1-.2.1h-.8a.22.22,0,0,1-.2-.2c0-.1-.1-.1-.1-.2V22a.22.22,0,0,1,.2-.2c.1,0,.1-.1.2-.1h.5Zm.5-6.1h.2c.1,0,.1,0,.2.1s.1.2.2.3,0,.2,0,.3V17a.37.37,0,0,1-.1.3.22.22,0,0,1-.2.2c-.1,0-.1.1-.2.1h-.8a.31.31,0,0,1-.2-.1c-.1-.1-.1-.2-.2-.3v-.9a.37.37,0,0,1,.1-.3.22.22,0,0,1,.2-.2c.1-.1.1-.1.2-.1h.6Zm.5-6.1h.3a.22.22,0,0,1,.2.2c.1.1.1.1.1.2v1.2a.22.22,0,0,1-.2.2c-.1,0-.1.1-.2.1h-.8a.35.35,0,0,1-.3-.3V10a.35.35,0,0,1,.1-.2l.2-.2h.6Zm.6,12.2h.3a.35.35,0,0,1,.2.1c.1.1.1.1.1.2V23a.37.37,0,0,1-.1.3.22.22,0,0,1-.2.2c-.1,0-.1.1-.2.2a.19.19,0,0,1-.3,0h-.5c-.1,0-.1-.1-.2-.2s-.1-.1-.1-.2v-.9a.37.37,0,0,1,.1-.3.22.22,0,0,1,.2-.2c.1-.1.1-.1.2-.1h.5Zm.6-6.1h.3a.35.35,0,0,1,.3.3v.9a.37.37,0,0,1-.1.3.22.22,0,0,1-.2.2c-.1,0-.1.1-.2.1h-.9a.35.35,0,0,1-.2-.1c-.1-.1-.1-.1-.1-.2v-.9a.37.37,0,0,1,.1-.3.22.22,0,0,1,.2-.2c.1-.1.1-.1.2-.1h.6Zm.4-6h.3a.22.22,0,0,1,.2.2c0,.1.1.1.1.2v1.2a.22.22,0,0,1-.2.2c-.1.1-.1.1-.2.1H514a.22.22,0,0,1-.2-.2c-.1-.1-.1-.1-.1-.2V10a.35.35,0,0,1,.3-.3h.6Zm.9,10h.2a.31.31,0,0,1,.2.1c.1.1.1.2.2.3s0,.2,0,.3V21a.37.37,0,0,1-.1.3.22.22,0,0,1-.2.2l-.2.2a.19.19,0,0,1-.3,0h-.5a.35.35,0,0,1-.2-.1c-.1-.1-.1-.1-.1-.2v-.9a.37.37,0,0,1,.1-.3.22.22,0,0,1,.2-.2c.1,0,.1-.1.2-.1s.2-.1.3,0h.1Zm.2-2h.3a.35.35,0,0,1,.2.1c.1.1.1.1.1.2v.9a.37.37,0,0,1-.1.3.22.22,0,0,1-.2.2c-.1.1-.1.1-.2.1h-.7c-.1,0-.1,0-.2-.1s-.1-.2-.2-.3,0-.2,0-.3v-.6a.37.37,0,0,1,.1-.3.22.22,0,0,1,.2-.2c.1-.1.1-.1.2-.1h.4A.1.1,0,0,0,515.7,17.7Zm.3-4h.3a.35.35,0,0,1,.2.1c.1.1.1.1.1.2v1.2a.22.22,0,0,1-.2.2c-.1.1-.1.1-.2.1h-.8a.35.35,0,0,1-.3-.3V14a.22.22,0,0,1,.2-.2c.1,0,.1-.1.2-.1h.5Zm.2-1.9h.3a.35.35,0,0,1,.3.3v1.2a.22.22,0,0,1-.2.2c-.1.1-.1.1-.2.1h-.8a.35.35,0,0,1-.3-.3V12.1a.35.35,0,0,1,.1-.2c.1-.1.1-.1.2-.1h.6Z"/><path d="M518.6,19.7h.3a.22.22,0,0,1,.2.2c0,.1.1.1.1.2v1.2a.22.22,0,0,1-.2.2c-.1.1-.1.1-.2.1H518a.22.22,0,0,1-.2-.2c-.1-.1-.1-.1-.1-.2V20a.22.22,0,0,1,.2-.2c.1-.1.1-.1.2-.1h.5Zm.7-8h.2c.1,0,.1,0,.2.1s.1.2.2.3V13a.37.37,0,0,1-.1.3.22.22,0,0,1-.2.2c-.1,0-.1.1-.2.1h-.8a.35.35,0,0,1-.3-.3v-.9a.37.37,0,0,1,.1-.3.22.22,0,0,1,.2-.2c.1-.1.1-.1.2-.1h.4Zm.8,10.1h.3a.22.22,0,0,1,.2.2c0,.1.1.1.1.2v1.2a.35.35,0,0,1-.1.2c-.1.1-.1.1-.2.1h-.5a.37.37,0,0,1-.3-.1.22.22,0,0,1-.2-.2c-.1-.1-.1-.1-.1-.2V22a.22.22,0,0,1,.2-.2c.1,0,.1-.1.2-.1h.4C520,21.8,520.1,21.8,520.1,21.8Zm.5-6.1h.3a.35.35,0,0,1,.3.3v.9a.37.37,0,0,1-.1.3.22.22,0,0,1-.2.2c-.1.1-.1.1-.2.1h-.8a.35.35,0,0,1-.2-.1c-.1-.1-.1-.1-.1-.2v-.9a.37.37,0,0,1,.1-.3.22.22,0,0,1,.2-.2c.1-.1.1-.1.2-.1h.5Zm.6-6.1h.3c.1,0,.1.1.2.2s.1.1.1.2v.9a.37.37,0,0,1-.1.3.22.22,0,0,1-.2.2c-.1.1-.1.1-.2.1h-.8a.35.35,0,0,1-.2-.1c-.1-.1-.1-.1-.1-.2v-.9a.37.37,0,0,1,.1-.3.22.22,0,0,1,.2-.2l.2-.2h.5Zm.6,12.2h.3a.35.35,0,0,1,.2.1c.1.1.1.1.1.2V23a.37.37,0,0,1-.1.3.35.35,0,0,1-.1.2c-.1.1-.1.1-.2.1h-.8a.22.22,0,0,1-.2-.2c0-.1-.1-.1-.1-.2V22a.22.22,0,0,1,.2-.2c.1,0,.1-.1.2-.1h.5Zm.5-6.1h.2c.1,0,.1,0,.2.1s.1.2.2.3,0,.2,0,.3V17a.37.37,0,0,1-.1.3.22.22,0,0,1-.2.2c-.1,0-.1.1-.2.1h-.8a.31.31,0,0,1-.2-.1c-.1-.1-.1-.2-.2-.3v-.9a.37.37,0,0,1,.1-.3.22.22,0,0,1,.2-.2c.1-.1.1-.1.2-.1h.6Zm.5-6.1h.3a.22.22,0,0,1,.2.2c.1.1.1.1.1.2v1.2a.22.22,0,0,1-.2.2c-.1,0-.1.1-.2.1h-.8a.35.35,0,0,1-.3-.3V10a.35.35,0,0,1,.1-.2l.2-.2h.6Zm.6,12.2h.3a.35.35,0,0,1,.2.1c.1.1.1.1.1.2V23a.37.37,0,0,1-.1.3.22.22,0,0,1-.2.2c-.1,0-.1.1-.2.2a.19.19,0,0,1-.3,0h-.5c-.1,0-.1-.1-.2-.2s-.1-.1-.1-.2v-.9a.37.37,0,0,1,.1-.3.22.22,0,0,1,.2-.2c.1-.1.1-.1.2-.1h.5Zm.6-6.1h.3a.35.35,0,0,1,.3.3v.9a.37.37,0,0,1-.1.3.22.22,0,0,1-.2.2c-.1,0-.1.1-.2.1h-.9a.35.35,0,0,1-.2-.1c-.1-.1-.1-.1-.1-.2v-.9a.37.37,0,0,1,.1-.3.22.22,0,0,1,.2-.2c.1-.1.1-.1.2-.1h.6Zm.4-6h.3a.22.22,0,0,1,.2.2c0,.1.1.1.1.2v1.2a.22.22,0,0,1-.2.2c-.1.1-.1.1-.2.1h-.8a.22.22,0,0,1-.2-.2c-.1-.1-.1-.1-.1-.2V10a.35.35,0,0,1,.3-.3h.6Zm.9,10h.2a.31.31,0,0,1,.2.1c.1.1.1.2.2.3s0,.2,0,.3V21a.37.37,0,0,1-.1.3.22.22,0,0,1-.2.2l-.2.2a.19.19,0,0,1-.3,0h-.5a.35.35,0,0,1-.2-.1c-.1-.1-.1-.1-.1-.2v-.9a.37.37,0,0,1,.1-.3.22.22,0,0,1,.2-.2c.1,0,.1-.1.2-.1s.2-.1.3,0h.1S525.2,19.7,525.3,19.7Zm.2-2h.3a.35.35,0,0,1,.2.1c.1.1.1.1.1.2v.9a.37.37,0,0,1-.1.3.22.22,0,0,1-.2.2c-.1.1-.1.1-.2.1h-.7c-.1,0-.1,0-.2-.1s-.1-.2-.2-.3,0-.2,0-.3v-.6a.37.37,0,0,1,.1-.3.22.22,0,0,1,.2-.2c.1-.1.1-.1.2-.1h.4C525.4,17.7,525.4,17.7,525.5,17.7Zm.3-4h.3a.35.35,0,0,1,.2.1c.1.1.1.1.1.2v1.2a.22.22,0,0,1-.2.2c-.1.1-.1.1-.2.1h-.8a.35.35,0,0,1-.3-.3V14a.22.22,0,0,1,.2-.2c.1,0,.1-.1.2-.1h.5Zm.1-1.9h.3a.35.35,0,0,1,.3.3v1.2a.22.22,0,0,1-.2.2c-.1.1-.1.1-.2.1h-.8a.35.35,0,0,1-.3-.3V12.1a.35.35,0,0,1,.1-.2c.1-.1.1-.1.2-.1h.6Z"/><path d="M528.2,21.7h.3a.22.22,0,0,1,.2.2c.1.1.1.1.1.2v1.2a.35.35,0,0,1-.1.2c-.1.1-.1.1-.2.1H528a.37.37,0,0,1-.3-.1.22.22,0,0,1-.2-.2c0-.1-.1-.1-.1-.2V21.9a.35.35,0,0,1,.1-.2c.1-.1.1-.1.2-.1h.4A.1.1,0,0,0,528.2,21.7Zm1.2-12h.3c.1,0,.1.1.2.1s.1.1.1.2v.9a.37.37,0,0,1-.1.3.22.22,0,0,1-.2.2c-.1,0-.1.1-.2.1h-.7c-.1,0-.1,0-.2-.1a.37.37,0,0,1-.1-.3v-.9a.37.37,0,0,1,.1-.3.22.22,0,0,1,.2-.2c.1,0,.1-.1.2-.2s.2-.1.3,0h.1C529.3,9.7,529.3,9.7,529.4,9.7Zm.6,10.1h.3a.22.22,0,0,1,.2.2c.1.1.1.1.1.2v1.2a.22.22,0,0,1-.2.2c-.1,0-.1.1-.2.1h-.8a.22.22,0,0,1-.2-.2c-.1-.1-.1-.1-.1-.2V20.1a.22.22,0,0,1,.2-.2c.1-.1.1-.1.2-.1h.4C530,19.7,530,19.8,530,19.8Zm1-10.2h.3c.1,0,.1.1.2.2s.1.1.1.2v.9a.37.37,0,0,1-.1.3.22.22,0,0,1-.2.2c-.1.1-.1.1-.2.1h-.7c-.1,0-.1,0-.2-.1s-.1-.2-.2-.3v-.9a.37.37,0,0,1,.1-.3.22.22,0,0,1,.2-.2l.2-.2a.19.19,0,0,1,.3,0h.2Zm.9,8.1h.3a.35.35,0,0,1,.3.3v.9a.37.37,0,0,1-.1.3c-.1.1-.1.2-.2.2s-.1.1-.2.1h-.8a.35.35,0,0,1-.2-.1c-.1-.1-.1-.1-.1-.2v-.9a.37.37,0,0,1,.1-.3.22.22,0,0,1,.2-.2c.1-.1.1-.1.2-.1h.5Zm.7-8.1h.3a.22.22,0,0,1,.2.2c.1.1.1.1.1.2v1.2a.22.22,0,0,1-.2.2c-.1,0-.1.1-.2.1H532a.35.35,0,0,1-.3-.3v-.9a.37.37,0,0,1,.1-.3.35.35,0,0,1,.1-.2l.2-.2c.1-.1.2,0,.3,0h.2Zm1.2,6.1h.3a.35.35,0,0,1,.3.3v.9a.37.37,0,0,1-.1.3.22.22,0,0,1-.2.2c-.1,0-.1.1-.2.1h-.8a.35.35,0,0,1-.2-.1c-.1-.1-.1-.1-.1-.2v-.9a.37.37,0,0,1,.1-.3.22.22,0,0,1,.2-.2c.1-.1.1-.1.2-.1h.5Zm.4-6h.3a.22.22,0,0,1,.2.2c.1.1.1.1.1.2v1.2a.22.22,0,0,1-.2.2c-.1.1-.1.1-.2.1h-.8a.22.22,0,0,1-.2-.2c-.1-.1-.1-.1-.1-.2V10a.35.35,0,0,1,.1-.2c.1-.1.1-.1.2-.1h.6Zm1.4,4h.3a.35.35,0,0,1,.2.1c.1.1.1.1.1.2v.9a.37.37,0,0,1-.1.3.22.22,0,0,1-.2.2c-.1.1-.1.1-.2.1h-.8a.35.35,0,0,1-.3-.3V14a.22.22,0,0,1,.2-.2c.1,0,.1-.1.2-.1h.6Zm.1-1.9h.3a.22.22,0,0,1,.2.2c.1.1.1.1.1.2v1.2a.22.22,0,0,1-.2.2c-.1.1-.1.1-.2.1h-.8a.22.22,0,0,1-.2-.2c0-.1-.1-.1-.1-.2V12.1a.22.22,0,0,1,.2-.2c.1-.1.1-.1.2-.1h.5Zm.1-2a.37.37,0,0,1,.3.1.22.22,0,0,1,.2.2c.1.1.1.1.1.2v1.2a.22.22,0,0,1-.2.2c-.1.1-.1.1-.2.1h-.8a.22.22,0,0,1-.2-.2c-.1-.1-.1-.1-.1-.2V10.2a.35.35,0,0,1,.1-.2c.1-.1.1-.1.2-.1h.3Z"/><path d="M538.1,19.7h.3a.22.22,0,0,1,.2.2c0,.1.1.1.1.2v1.2a.22.22,0,0,1-.2.2c-.1.1-.1.1-.2.1h-.8a.22.22,0,0,1-.2-.2c-.1-.1-.1-.1-.1-.2V20a.22.22,0,0,1,.2-.2c.1-.1.1-.1.2-.1h.5Zm.6-6h.3a.35.35,0,0,1,.3.3v.3a1.27,1.27,0,0,1-.1.6.37.37,0,0,1-.1.3.22.22,0,0,1-.2.2c-.1.1-.1.1-.2.1h-.8a.35.35,0,0,1-.3-.3v-.3l.1-.6a.37.37,0,0,1,.1-.3.22.22,0,0,1,.2-.2c.1-.1.1-.1.2-.1h.5Zm.2-2h.2c.1,0,.1,0,.2.1s.1.2.2.3V13a.37.37,0,0,1-.1.3.22.22,0,0,1-.2.2c-.1,0-.1.1-.2.1h-.8a.35.35,0,0,1-.3-.3v-.9a.37.37,0,0,1,.1-.3.22.22,0,0,1,.2-.2c.1-.1.1-.1.2-.1h.4Zm.8,10.1h.3a.22.22,0,0,1,.2.2c0,.1.1.1.1.2v1.2a.35.35,0,0,1-.1.2c-.1.1-.1.1-.2.1h-.5a.37.37,0,0,1-.3-.1.22.22,0,0,1-.2-.2c-.1-.1-.1-.1-.1-.2V22a.22.22,0,0,1,.2-.2c.1,0,.1-.1.2-.1h.4C539.6,21.8,539.6,21.8,539.7,21.8Zm.5-6.1h.3a.35.35,0,0,1,.3.3v.9a.37.37,0,0,1-.1.3.22.22,0,0,1-.2.2c-.1.1-.1.1-.2.1h-.8a.35.35,0,0,1-.2-.1c-.1-.1-.1-.1-.1-.2v-.9a.37.37,0,0,1,.1-.3.22.22,0,0,1,.2-.2c.1-.1.1-.1.2-.1h.5Zm.6-6.1h.3c.1,0,.1.1.2.2s.1.1.1.2v.9a.37.37,0,0,1-.1.3.22.22,0,0,1-.2.2c-.1.1-.1.1-.2.1h-.8a.35.35,0,0,1-.2-.1c-.1-.1-.1-.1-.1-.2v-.9a.37.37,0,0,1,.1-.3.22.22,0,0,1,.2-.2l.2-.2h.5Zm.5,12.2h.3a.35.35,0,0,1,.2.1c.1.1.1.1.1.2V23a.37.37,0,0,1-.1.3.35.35,0,0,1-.1.2c-.1.1-.1.1-.2.1h-.8a.22.22,0,0,1-.2-.2c0-.1-.1-.1-.1-.2V22a.22.22,0,0,1,.2-.2c.1,0,.1-.1.2-.1h.5Zm.6-6.1h.2c.1,0,.1,0,.2.1s.1.2.2.3,0,.2,0,.3V17a.37.37,0,0,1-.1.3.22.22,0,0,1-.2.2c-.1,0-.1.1-.2.1h-.8a.31.31,0,0,1-.2-.1c-.1-.1-.1-.2-.2-.3v-.9a.37.37,0,0,1,.1-.3.22.22,0,0,1,.2-.2c.1-.1.1-.1.2-.1h.6Zm.5-6.1h.3a.22.22,0,0,1,.2.2c.1.1.1.1.1.2v1.2a.22.22,0,0,1-.2.2c-.1,0-.1.1-.2.1h-.9a.35.35,0,0,1-.3-.3V10a.35.35,0,0,1,.1-.2l.2-.2h.7Zm.6,12.2h.3a.35.35,0,0,1,.2.1c.1.1.1.1.1.2V23a.37.37,0,0,1-.1.3.22.22,0,0,1-.2.2c-.1,0-.1.1-.2.2a.19.19,0,0,1-.3,0h-.5c-.1,0-.1-.1-.2-.2s-.1-.1-.1-.2v-.9a.37.37,0,0,1,.1-.3.22.22,0,0,1,.2-.2c.1-.1.1-.1.2-.1h.5Zm.5-6.1h.3a.35.35,0,0,1,.3.3v.9a.37.37,0,0,1-.1.3.22.22,0,0,1-.2.2c-.1,0-.1.1-.2.1h-.9a.35.35,0,0,1-.2-.1c-.1-.1-.1-.1-.1-.2v-.9a.37.37,0,0,1,.1-.3.22.22,0,0,1,.2-.2c.1-.1.1-.1.2-.1h.6Zm.5-6h.3a.22.22,0,0,1,.2.2c0,.1.1.1.1.2v1.2a.22.22,0,0,1-.2.2c-.1.1-.1.1-.2.1h-.8a.22.22,0,0,1-.2-.2c-.1-.1-.1-.1-.1-.2V10a.35.35,0,0,1,.3-.3h.6Zm.8,10h.2a.31.31,0,0,1,.2.1c.1.1.1.2.2.3s0,.2,0,.3V21a.37.37,0,0,1-.1.3.22.22,0,0,1-.2.2l-.2.2a.19.19,0,0,1-.3,0h-.5a.35.35,0,0,1-.2-.1c-.1-.1-.1-.1-.1-.2v-.9a.37.37,0,0,1,.1-.3.22.22,0,0,1,.2-.2c.1,0,.1-.1.2-.1s.2-.1.3,0h.1Zm.2-2h.3a.35.35,0,0,1,.2.1c.1.1.1.1.1.2v.9a.37.37,0,0,1-.1.3.22.22,0,0,1-.2.2c-.1.1-.1.1-.2.1h-.7c-.1,0-.1,0-.2-.1s-.1-.2-.2-.3,0-.2,0-.3v-.6a.37.37,0,0,1,.1-.3.22.22,0,0,1,.2-.2c.1-.1.1-.1.2-.1h.4Zm.2-2h.3a.35.35,0,0,1,.3.3v.9a.37.37,0,0,1-.1.3.22.22,0,0,1-.2.2.31.31,0,0,1-.2.1h-.8a.35.35,0,0,1-.3-.3v-.9a.37.37,0,0,1,.1-.3.22.22,0,0,1,.2-.2c.1,0,.1-.1.2-.1h.5Zm.2-2h.3a.35.35,0,0,1,.2.1c.1.1.1.1.1.2v1.2a.22.22,0,0,1-.2.2c-.1.1-.1.1-.2.1h-.8a.35.35,0,0,1-.3-.3V14a.22.22,0,0,1,.2-.2c.1,0,.1-.1.2-.1h.5Zm.1-1.9h.3a.35.35,0,0,1,.3.3v1.2a.22.22,0,0,1-.2.2c-.1.1-.1.1-.2.1h-.8a.35.35,0,0,1-.3-.3V12.1a.35.35,0,0,1,.1-.2c.1-.1.1-.1.2-.1h.6Z"/><path d="M549.5,21.7h.3a.22.22,0,0,1,.2.2c.1.1.1.1.1.2v1.2a.35.35,0,0,1-.1.2c-.1.1-.1.1-.2.1h-.5a.37.37,0,0,1-.3-.1c-.1,0-.1-.1-.2-.2a.31.31,0,0,1-.1-.2V21.9c0-.1.1-.1.2-.2s.1-.1.2-.1h.4S549.4,21.7,549.5,21.7Zm.8-10h.3a.35.35,0,0,1,.3.3v.9a.37.37,0,0,1-.1.3.22.22,0,0,1-.2.2c-.1.1-.1.1-.2.1h-.8a.35.35,0,0,1-.3-.3v-.9a.37.37,0,0,1,.1-.3.22.22,0,0,1,.2-.2l.2-.2h.4Zm.8,10.1h.3a.35.35,0,0,1,.2.1c.1.1.1.1.1.2V23a.37.37,0,0,1-.1.3.31.31,0,0,0-.1.2l-.2.2h-.8a.22.22,0,0,1-.2-.2c0-.1-.1-.1-.1-.2V22.1a.22.22,0,0,1,.2-.2c.1-.1.1-.1.2-.1h.5Zm.2-2h.2c.1,0,.1,0,.2.1s.1.2.2.3v.9a.37.37,0,0,1-.1.3.22.22,0,0,1-.2.2c-.1,0-.1.1-.2.2h-.8a.22.22,0,0,1-.2-.2c-.1-.1-.1-.1-.1-.2V20.2a.22.22,0,0,1,.2-.2c.1-.1.1-.1.2-.1h.4A.31.31,0,0,1,551.3,19.8Zm.2-2.1h.2c.1,0,.1,0,.2.1s.1.2.2.3V19a.37.37,0,0,1-.1.3.22.22,0,0,1-.2.2c-.1.1-.1.1-.2.1h-.8a.35.35,0,0,1-.2-.1c-.1-.1-.1-.1-.1-.2v-.9a.37.37,0,0,1,.1-.3.22.22,0,0,1,.2-.2c.1-.1.1-.1.2-.1h.5Zm.2-2h.3a.35.35,0,0,1,.2.1c.1.1.1.1.1.2v.9a.37.37,0,0,1-.1.3.22.22,0,0,1-.2.2c-.1.1-.1.1-.2.1H551a.35.35,0,0,1-.3-.3v-.9a.37.37,0,0,1,.1-.3.22.22,0,0,1,.2-.2c.1,0,.1-.1.2-.1h.5Zm.1-2h.3a.22.22,0,0,1,.2.2c.1.1.1.1.1.2V15a.37.37,0,0,1-.1.3c-.1.1-.1.2-.2.2s-.1.1-.2.1h-.8a.35.35,0,0,1-.3-.3V14.1a.22.22,0,0,1,.2-.2c.1-.1.1-.1.2-.1h.6Zm.2-2h.3a.22.22,0,0,1,.2.2c.1.1.1.1.1.2V13a.37.37,0,0,1-.1.3c-.1.1-.1.2-.2.2s-.1.1-.2.1h-.8a.35.35,0,0,1-.3-.3v-.9a.37.37,0,0,1,.1-.3.22.22,0,0,1,.2-.2c.1,0,.1-.1.2-.1h.4A.1.1,0,0,1,552,11.7Zm.1-2a.37.37,0,0,1,.3.1.22.22,0,0,1,.2.2c.1.1.1.1.1.2v1.2a.22.22,0,0,1-.2.2c-.1.1-.1.1-.2.1h-.8a.22.22,0,0,1-.2-.2c0-.1-.1-.1-.1-.2V10.1a.22.22,0,0,1,.2-.2c.1-.1.1-.1.2-.1h.3Zm.7,12h.2c.1,0,.1,0,.2.1a.37.37,0,0,1,.1.3V23a.37.37,0,0,1-.1.3.22.22,0,0,1-.2.2c-.1,0-.1.1-.2.2s-.2.1-.3.1h-.4c-.1,0-.1,0-.2-.1s-.1-.2-.2-.3v-.9a.37.37,0,0,1,.1-.3.22.22,0,0,1,.2-.2c.1,0,.1-.1.2-.2s.2-.1.3-.1h.3Z"/><path d="M559.2,21.7h.3a.22.22,0,0,1,.2.2c.1.1.1.1.1.2v1.2a.35.35,0,0,1-.1.2c-.1.1-.1.1-.2.1H559a.37.37,0,0,1-.3-.1c-.1,0-.1-.1-.2-.2a.31.31,0,0,1-.1-.2V21.9c0-.1.1-.1.2-.2s.1-.1.2-.1h.4Zm.9-10h.3a.35.35,0,0,1,.3.3v.9a.37.37,0,0,1-.1.3.22.22,0,0,1-.2.2c-.1.1-.1.1-.2.1h-.8a.35.35,0,0,1-.3-.3v-.9a.37.37,0,0,1,.1-.3.22.22,0,0,1,.2-.2l.2-.2h.4A.1.1,0,0,0,560.1,11.7Zm.8,10.1h.3a.35.35,0,0,1,.2.1c.1.1.1.1.1.2V23a.37.37,0,0,1-.1.3.31.31,0,0,0-.1.2l-.2.2h-.8a.22.22,0,0,1-.2-.2c0-.1-.1-.1-.1-.2V22.1a.22.22,0,0,1,.2-.2c.1-.1.1-.1.2-.1h.5Zm.2-2h.2c.1,0,.1,0,.2.1s.1.2.2.3v.9a.37.37,0,0,1-.1.3.22.22,0,0,1-.2.2c-.1,0-.1.1-.2.2h-.8a.22.22,0,0,1-.2-.2c-.1-.1-.1-.1-.1-.2V20.2a.22.22,0,0,1,.2-.2c.1-.1.1-.1.2-.1h.4C561,19.8,561,19.8,561.1,19.8Zm.2-2.1h.2c.1,0,.1,0,.2.1s.1.2.2.3V19a.37.37,0,0,1-.1.3.22.22,0,0,1-.2.2c-.1.1-.1.1-.2.1h-.8a.35.35,0,0,1-.2-.1c-.1-.1-.1-.1-.1-.2v-.9a.37.37,0,0,1,.1-.3.22.22,0,0,1,.2-.2c.1-.1.1-.1.2-.1h.5Zm.1-2h.3a.35.35,0,0,1,.2.1c.1.1.1.1.1.2v.9a.37.37,0,0,1-.1.3.22.22,0,0,1-.2.2c-.1.1-.1.1-.2.1h-.8a.35.35,0,0,1-.3-.3v-.9a.37.37,0,0,1,.1-.3.22.22,0,0,1,.2-.2c.1,0,.1-.1.2-.1h.5Zm.2-2h.3a.22.22,0,0,1,.2.2c.1.1.1.1.1.2V15a.37.37,0,0,1-.1.3c-.1.1-.1.2-.2.2s-.1.1-.2.1h-.8a.35.35,0,0,1-.3-.3V14.1a.22.22,0,0,1,.2-.2c.1-.1.1-.1.2-.1h.6Zm.2-2h.3a.22.22,0,0,1,.2.2c.1.1.1.1.1.2V13a.37.37,0,0,1-.1.3c-.1.1-.1.2-.2.2s-.1.1-.2.1h-.8a.35.35,0,0,1-.3-.3v-.9a.37.37,0,0,1,.1-.3.22.22,0,0,1,.2-.2c.1,0,.1-.1.2-.1h.4C561.7,11.7,561.7,11.7,561.8,11.7Zm.1-2a.37.37,0,0,1,.3.1.22.22,0,0,1,.2.2c.1.1.1.1.1.2v1.2a.22.22,0,0,1-.2.2c-.1.1-.1.1-.2.1h-.8a.22.22,0,0,1-.2-.2c0-.1-.1-.1-.1-.2V10.1a.22.22,0,0,1,.2-.2c.1-.1.1-.1.2-.1h.3Zm.6,12h.2c.1,0,.1,0,.2.1a.37.37,0,0,1,.1.3V23a.37.37,0,0,1-.1.3.22.22,0,0,1-.2.2c-.1,0-.1.1-.2.2s-.2.1-.3.1h-.4c-.1,0-.1,0-.2-.1s-.1-.2-.2-.3v-.9a.37.37,0,0,1,.1-.3.22.22,0,0,1,.2-.2c.1,0,.1-.1.2-.2s.2-.1.3-.1h.3Z"/><path d="M567.5,19.7h.3a.22.22,0,0,1,.2.2c0,.1.1.1.1.2v1.2a.22.22,0,0,1-.2.2c-.1.1-.1.1-.2.1h-.8a.22.22,0,0,1-.2-.2c-.1-.1-.1-.1-.1-.2V20a.22.22,0,0,1,.2-.2c.1-.1.1-.1.2-.1h.5Zm.1-2h.3a.35.35,0,0,1,.3.3v1.2a.22.22,0,0,1-.2.2c-.1.1-.1.1-.2.1H567a.35.35,0,0,1-.3-.3V18a.22.22,0,0,1,.2-.2c.1-.1.1-.1.2-.1h.5Zm.2-2h.3a.35.35,0,0,1,.2.1c.1.1.1.1.1.2v.9a.37.37,0,0,1-.1.3.22.22,0,0,1-.2.2.31.31,0,0,1-.2.1h-.7a.35.35,0,0,0-.2-.1c-.1-.1-.1-.2-.2-.3s0-.2,0-.3v-.6a.37.37,0,0,1,.1-.3c.1-.1.1-.2.2-.2s.1-.1.2-.1h.4A.1.1,0,0,0,567.8,15.7Zm.2-2h.3a.35.35,0,0,1,.3.3v.3a1.27,1.27,0,0,1-.1.6.37.37,0,0,1-.1.3.22.22,0,0,1-.2.2c-.1.1-.1.1-.2.1h-.8a.35.35,0,0,1-.3-.3v-.3l.1-.6a.37.37,0,0,1,.1-.3.22.22,0,0,1,.2-.2c.1-.1.1-.1.2-.1h.5Zm.2-2h.2c.1,0,.1,0,.2.1s.1.2.2.3V13a.37.37,0,0,1-.1.3.22.22,0,0,1-.2.2c-.1,0-.1.1-.2.1h-.8a.35.35,0,0,1-.3-.3v-.9a.37.37,0,0,1,.1-.3.22.22,0,0,1,.2-.2c.1-.1.1-.1.2-.1h.4Zm.8,10.1h.3a.22.22,0,0,1,.2.2c0,.1.1.1.1.2v1.2a.35.35,0,0,1-.1.2c-.1.1-.1.1-.2.1h-.5a.37.37,0,0,1-.3-.1.22.22,0,0,1-.2-.2c-.1-.1-.1-.1-.1-.2V22a.22.22,0,0,1,.2-.2c.1,0,.1-.1.2-.1h.4C568.9,21.8,569,21.8,569,21.8Zm.3-4.1h.3a.22.22,0,0,1,.2.2c0,.1.1.1.1.2V19a.37.37,0,0,1-.1.3.22.22,0,0,1-.2.2c-.1.1-.1.1-.2.1h-.8a.35.35,0,0,1-.2-.1c-.1-.1-.1-.1-.1-.2V18.1a.22.22,0,0,1,.2-.2c.1-.1.1-.1.2-.1h.4A.31.31,0,0,1,569.3,17.7Zm.8-8.1h.3c.1,0,.1.1.2.2s.1.1.1.2v.9a.37.37,0,0,1-.1.3.22.22,0,0,1-.2.2c-.1.1-.1.1-.2.1h-.8a.35.35,0,0,1-.2-.1c-.1-.1-.1-.1-.1-.2v-.9a.37.37,0,0,1,.1-.3.22.22,0,0,1,.2-.2l.2-.2h.5Zm.5,12.2h.3a.35.35,0,0,1,.2.1c.1.1.1.1.1.2V23a.37.37,0,0,1-.1.3.35.35,0,0,1-.1.2c-.1.1-.1.1-.2.1H570a.22.22,0,0,1-.2-.2c0-.1-.1-.1-.1-.2V22a.22.22,0,0,1,.2-.2c.1,0,.1-.1.2-.1h.5Zm.6-6.1h.2c.1,0,.1,0,.2.1s.1.2.2.3,0,.2,0,.3V17a.37.37,0,0,1-.1.3.22.22,0,0,1-.2.2c-.1,0-.1.1-.2.1h-.8a.31.31,0,0,1-.2-.1c-.1-.1-.1-.2-.2-.3v-.9a.37.37,0,0,1,.1-.3.22.22,0,0,1,.2-.2c.1-.1.1-.1.2-.1h.6Zm.5-6.1h.3a.22.22,0,0,1,.2.2c.1.1.1.1.1.2v1.2a.22.22,0,0,1-.2.2c-.1,0-.1.1-.2.1h-.8a.35.35,0,0,1-.3-.3V10a.35.35,0,0,1,.1-.2l.2-.2h.6Zm.6,12.2h.3a.35.35,0,0,1,.2.1c.1.1.1.1.1.2V23a.37.37,0,0,1-.1.3.22.22,0,0,1-.2.2c-.1,0-.1.1-.2.2a.19.19,0,0,1-.3,0h-.5c-.1,0-.1-.1-.2-.2s-.1-.1-.1-.2v-.9a.37.37,0,0,1,.1-.3.22.22,0,0,1,.2-.2c.1-.1.1-.1.2-.1h.5Zm.7-8.1h.3a.35.35,0,0,1,.3.3v1.2a.22.22,0,0,1-.2.2c-.1,0-.1.1-.2.1h-.9a.35.35,0,0,1-.3-.3v-.9a.37.37,0,0,1,.1-.3.22.22,0,0,1,.2-.2c.1,0,.1-.1.2-.1h.5Zm.3-4h.3a.22.22,0,0,1,.2.2c0,.1.1.1.1.2v1.2a.22.22,0,0,1-.2.2c-.1.1-.1.1-.2.1h-.8a.22.22,0,0,1-.2-.2c-.1-.1-.1-.1-.1-.2V10a.35.35,0,0,1,.3-.3h.6Zm.9,10h.2a.31.31,0,0,1,.2.1c.1.1.1.2.2.3s0,.2,0,.3V21a.37.37,0,0,1-.1.3.22.22,0,0,1-.2.2l-.2.2a.19.19,0,0,1-.3,0h-.5a.35.35,0,0,1-.2-.1c-.1-.1-.1-.1-.1-.2v-.9a.37.37,0,0,1,.1-.3.22.22,0,0,1,.2-.2c.1,0,.1-.1.2-.1s.2-.1.3,0h.1S574.1,19.7,574.2,19.7Zm.2-2h.3a.35.35,0,0,1,.2.1c.1.1.1.1.1.2v.9a.37.37,0,0,1-.1.3.22.22,0,0,1-.2.2c-.1.1-.1.1-.2.1h-.7c-.1,0-.1,0-.2-.1s-.1-.2-.2-.3,0-.2,0-.3v-.6a.37.37,0,0,1,.1-.3.22.22,0,0,1,.2-.2c.1-.1.1-.1.2-.1h.4C574.3,17.7,574.3,17.7,574.4,17.7Zm.2-2h.3a.35.35,0,0,1,.3.3v.9a.37.37,0,0,1-.1.3.22.22,0,0,1-.2.2.31.31,0,0,1-.2.1h-.8a.35.35,0,0,1-.3-.3v-.9a.37.37,0,0,1,.1-.3.22.22,0,0,1,.2-.2c.1,0,.1-.1.2-.1h.5Zm.1-2h.3a.35.35,0,0,1,.2.1c.1.1.1.1.1.2v1.2a.22.22,0,0,1-.2.2c-.1.1-.1.1-.2.1h-.8a.35.35,0,0,1-.3-.3V14a.22.22,0,0,1,.2-.2c.1,0,.1-.1.2-.1h.5Zm.1-1.9h.3a.35.35,0,0,1,.3.3v1.2a.22.22,0,0,1-.2.2c-.1.1-.1.1-.2.1h-.8a.35.35,0,0,1-.3-.3V12.1a.35.35,0,0,1,.1-.2c.1-.1.1-.1.2-.1h.6Z"/><path d="M588.6,21.7h.3a.22.22,0,0,1,.2.2c.1.1.1.1.1.2v1.2a.35.35,0,0,1-.1.2c-.1.1-.1.1-.2.1h-.5a.37.37,0,0,1-.3-.1c-.1,0-.1-.1-.2-.2a.31.31,0,0,1-.1-.2V21.9c0-.1.1-.1.2-.2s.1-.1.2-.1h.4S588.5,21.7,588.6,21.7Zm.9-10h.3a.35.35,0,0,1,.3.3v.9a.37.37,0,0,1-.1.3.22.22,0,0,1-.2.2c-.1.1-.1.1-.2.1h-.8a.35.35,0,0,1-.3-.3v-.9a.37.37,0,0,1,.1-.3.22.22,0,0,1,.2-.2l.2-.2h.4C589.4,11.7,589.4,11.7,589.5,11.7Zm.7,10.1h.3a.35.35,0,0,1,.2.1c.1.1.1.1.1.2V23a.37.37,0,0,1-.1.3.31.31,0,0,0-.1.2l-.2.2h-.8a.22.22,0,0,1-.2-.2c0-.1-.1-.1-.1-.2V22.1a.22.22,0,0,1,.2-.2c.1-.1.1-.1.2-.1h.5Zm.2-2h.2c.1,0,.1,0,.2.1s.1.2.2.3v.9a.37.37,0,0,1-.1.3.22.22,0,0,1-.2.2c-.1,0-.1.1-.2.2h-.8a.22.22,0,0,1-.2-.2c-.1-.1-.1-.1-.1-.2V20.2a.22.22,0,0,1,.2-.2c.1-.1.1-.1.2-.1h.4A.31.31,0,0,1,590.4,19.8Zm.2-2.1h.2c.1,0,.1,0,.2.1s.1.2.2.3V19a.37.37,0,0,1-.1.3.22.22,0,0,1-.2.2c-.1.1-.1.1-.2.1h-.8a.35.35,0,0,1-.2-.1c-.1-.1-.1-.1-.1-.2v-.9a.37.37,0,0,1,.1-.3.22.22,0,0,1,.2-.2c.1-.1.1-.1.2-.1h.5Zm.2-2h.3a.35.35,0,0,1,.2.1c.1.1.1.1.1.2v.9a.37.37,0,0,1-.1.3.22.22,0,0,1-.2.2c-.1.1-.1.1-.2.1h-.8a.35.35,0,0,1-.3-.3v-.9a.37.37,0,0,1,.1-.3.22.22,0,0,1,.2-.2c.1,0,.1-.1.2-.1h.5Zm.1-2h.3a.22.22,0,0,1,.2.2c.1.1.1.1.1.2V15a.37.37,0,0,1-.1.3c-.1.1-.1.2-.2.2s-.1.1-.2.1h-.8a.35.35,0,0,1-.3-.3V14.1a.22.22,0,0,1,.2-.2c.1-.1.1-.1.2-.1h.6Zm.2-2h.3a.22.22,0,0,1,.2.2c.1.1.1.1.1.2V13a.37.37,0,0,1-.1.3c-.1.1-.1.2-.2.2s-.1.1-.2.1h-.8a.35.35,0,0,1-.3-.3v-.9a.37.37,0,0,1,.1-.3.22.22,0,0,1,.2-.2c.1,0,.1-.1.2-.1h.4A.1.1,0,0,1,591.1,11.7Zm.2-2a.37.37,0,0,1,.3.1.22.22,0,0,1,.2.2c.1.1.1.1.1.2v1.2a.22.22,0,0,1-.2.2c-.1.1-.1.1-.2.1h-.8a.22.22,0,0,1-.2-.2c0-.1-.1-.1-.1-.2V10.1a.22.22,0,0,1,.2-.2c.1-.1.1-.1.2-.1h.3Zm.6,12h.2c.1,0,.1,0,.2.1a.37.37,0,0,1,.1.3V23a.37.37,0,0,1-.1.3.22.22,0,0,1-.2.2c-.1,0-.1.1-.2.2s-.2.1-.3.1h-.4c-.1,0-.1,0-.2-.1s-.1-.2-.2-.3v-.9a.37.37,0,0,1,.1-.3.22.22,0,0,1,.2-.2c.1,0,.1-.1.2-.2s.2-.1.3-.1h.3Z"/><path d="M596.8,19.7h.3a.22.22,0,0,1,.2.2c0,.1.1.1.1.2v1.2a.22.22,0,0,1-.2.2c-.1.1-.1.1-.2.1h-.8a.22.22,0,0,1-.2-.2c-.1-.1-.1-.1-.1-.2V20a.22.22,0,0,1,.2-.2c.1-.1.1-.1.2-.1h.5Zm.5-6h.3a.35.35,0,0,1,.3.3v.3a1.27,1.27,0,0,1-.1.6.37.37,0,0,1-.1.3.22.22,0,0,1-.2.2c-.1.1-.1.1-.2.1h-.8a.35.35,0,0,1-.3-.3v-.3l.1-.6a.37.37,0,0,1,.1-.3.22.22,0,0,1,.2-.2c.1-.1.1-.1.2-.1h.5Zm.3-2h.2c.1,0,.1,0,.2.1s.1.2.2.3V13a.37.37,0,0,1-.1.3.22.22,0,0,1-.2.2c-.1,0-.1.1-.2.1h-.8a.35.35,0,0,1-.3-.3v-.9a.37.37,0,0,1,.1-.3.22.22,0,0,1,.2-.2c.1-.1.1-.1.2-.1h.4A.1.1,0,0,1,597.6,11.7Zm.7,10.1h.3a.22.22,0,0,1,.2.2c0,.1.1.1.1.2v1.2a.35.35,0,0,1-.1.2c-.1.1-.1.1-.2.1h-.5a.37.37,0,0,1-.3-.1.22.22,0,0,1-.2-.2c-.1-.1-.1-.1-.1-.2V22a.22.22,0,0,1,.2-.2c.1,0,.1-.1.2-.1h.4C598.2,21.8,598.3,21.8,598.3,21.8Zm.5-6.1h.3a.35.35,0,0,1,.3.3v.9a.37.37,0,0,1-.1.3.22.22,0,0,1-.2.2c-.1.1-.1.1-.2.1h-.8a.35.35,0,0,1-.2-.1c-.1-.1-.1-.1-.1-.2v-.9a.37.37,0,0,1,.1-.3.22.22,0,0,1,.2-.2c.1-.1.1-.1.2-.1h.5Zm.6-6.1h.3c.1,0,.1.1.2.2s.1.1.1.2v.9a.37.37,0,0,1-.1.3.22.22,0,0,1-.2.2c-.1.1-.1.1-.2.1h-.8a.35.35,0,0,1-.2-.1c-.1-.1-.1-.1-.1-.2v-.9a.37.37,0,0,1,.1-.3.22.22,0,0,1,.2-.2l.2-.2h.5Zm.6,12.2h.3a.35.35,0,0,1,.2.1c.1.1.1.1.1.2V23a.37.37,0,0,1-.1.3.35.35,0,0,1-.1.2c-.1.1-.1.1-.2.1h-.8a.22.22,0,0,1-.2-.2c0-.1-.1-.1-.1-.2V22a.22.22,0,0,1,.2-.2c.1,0,.1-.1.2-.1h.5Zm.5-6.1h.2c.1,0,.1,0,.2.1s.1.2.2.3,0,.2,0,.3V17a.37.37,0,0,1-.1.3.22.22,0,0,1-.2.2c-.1,0-.1.1-.2.1h-.8a.31.31,0,0,1-.2-.1c-.1-.1-.1-.2-.2-.3v-.9a.37.37,0,0,1,.1-.3.22.22,0,0,1,.2-.2c.1-.1.1-.1.2-.1h.6Zm.5-6.1h.3a.22.22,0,0,1,.2.2c.1.1.1.1.1.2v1.2a.22.22,0,0,1-.2.2c-.1,0-.1.1-.2.1h-.8a.35.35,0,0,1-.3-.3V10a.35.35,0,0,1,.1-.2l.2-.2h.6Zm.6,12.2h.3a.35.35,0,0,1,.2.1c.1.1.1.1.1.2V23a.37.37,0,0,1-.1.3.22.22,0,0,1-.2.2c-.1,0-.1.1-.2.2a.19.19,0,0,1-.3,0h-.5c-.1,0-.1-.1-.2-.2s-.1-.1-.1-.2v-.9a.37.37,0,0,1,.1-.3.22.22,0,0,1,.2-.2c.1-.1.1-.1.2-.1h.5Zm.6-6.1h.3a.35.35,0,0,1,.3.3v.9a.37.37,0,0,1-.1.3.22.22,0,0,1-.2.2c-.1,0-.1.1-.2.1h-.9a.35.35,0,0,1-.2-.1c-.1-.1-.1-.1-.1-.2v-.9a.37.37,0,0,1,.1-.3.22.22,0,0,1,.2-.2c.1-.1.1-.1.2-.1h.6Zm.4-6h.3a.22.22,0,0,1,.2.2c0,.1.1.1.1.2v1.2a.22.22,0,0,1-.2.2c-.1.1-.1.1-.2.1H602a.22.22,0,0,1-.2-.2c-.1-.1-.1-.1-.1-.2V10a.35.35,0,0,1,.3-.3h.6Zm.9,10h.2a.31.31,0,0,1,.2.1c.1.1.1.2.2.3s0,.2,0,.3V21a.37.37,0,0,1-.1.3.22.22,0,0,1-.2.2l-.2.2a.19.19,0,0,1-.3,0h-.5a.35.35,0,0,1-.2-.1c-.1-.1-.1-.1-.1-.2v-.9a.37.37,0,0,1,.1-.3.22.22,0,0,1,.2-.2c.1,0,.1-.1.2-.1s.2-.1.3,0h.1Zm.2-2h.3a.35.35,0,0,1,.2.1c.1.1.1.1.1.2v.9a.37.37,0,0,1-.1.3.22.22,0,0,1-.2.2c-.1.1-.1.1-.2.1h-.7c-.1,0-.1,0-.2-.1s-.1-.2-.2-.3,0-.2,0-.3v-.6a.37.37,0,0,1,.1-.3.22.22,0,0,1,.2-.2c.1-.1.1-.1.2-.1h.4A.1.1,0,0,0,603.7,17.7Zm.2-2h.3a.35.35,0,0,1,.3.3v.9a.37.37,0,0,1-.1.3.22.22,0,0,1-.2.2.31.31,0,0,1-.2.1h-.8a.35.35,0,0,1-.3-.3v-.9a.37.37,0,0,1,.1-.3.22.22,0,0,1,.2-.2c.1,0,.1-.1.2-.1h.5Zm.1-2h.3a.35.35,0,0,1,.2.1c.1.1.1.1.1.2v1.2a.22.22,0,0,1-.2.2c-.1.1-.1.1-.2.1h-.8a.35.35,0,0,1-.3-.3V14a.22.22,0,0,1,.2-.2c.1,0,.1-.1.2-.1h.5Zm.2-1.9h.3a.35.35,0,0,1,.3.3v1.2a.22.22,0,0,1-.2.2c-.1.1-.1.1-.2.1h-.8a.35.35,0,0,1-.3-.3V12.1a.35.35,0,0,1,.1-.2c.1-.1.1-.1.2-.1h.6Z"/></g></svg>