<svg id="Calque_2" data-name="Calque 2" xmlns="http://www.w3.org/2000/svg" xmlns:xlink="http://www.w3.org/1999/xlink" width="611" height="270" viewBox="0 0 611 270"><defs><style>.cls-1,.cls-7,.cls-8,.cls-9{fill:none;}.cls-2{fill:#f7f7f7;}.cls-3{clip-path:url(#clip-path);}.cls-4{fill:#67b4e7;}.cls-5{fill:#303030;}.cls-6{fill:#d0dfff;}.cls-10,.cls-7,.cls-8,.cls-9{stroke:#303030;}.cls-7{stroke-linejoin:round;stroke-width:1.5px;}.cls-10,.cls-8,.cls-9{stroke-miterlimit:10;}.cls-8{stroke-width:4px;}.cls-9{stroke-width:3px;}.cls-10{fill:#333330;stroke-width:0.25px;}</style><clipPath id="clip-path"><rect class="cls-1" x="5.69" y="5.15" width="599.94" height="260.54"/></clipPath></defs><title>testticketavant_Plan de travail2</title><rect class="cls-2" x="5.62" y="5.22" width="599.94" height="260.54"/><g class="cls-3"><rect class="cls-4" x="369.65" y="192.26" width="48.33" height="48.85" rx="9.04"/><ellipse class="cls-2" cx="393.72" cy="202.76" rx="5.47" ry="4.54" transform="translate(104.91 538.49) rotate(-76.54)"/><path class="cls-2" d="M379.22,218.49s2.5-7.5,17.62-8.3c0,0,6.36.23,10.68-3.64,0,0,.91,3.53-11.93,7.73C395.59,214.28,382.86,215.53,379.22,218.49Z"/><path class="cls-2" d="M379,235.81s8-12.18,11.26-14.94,3.58-2.76,5.22-2.66a5.21,5.21,0,0,1,2.75,1L410.86,236l-5.94-.18s-1.61.37-4.77-3.84l-3.84-5.88s-3-3.29-5.44-3.22-7.19,8.79-7.19,8.79S381.2,235.17,379,235.81Z"/><path class="cls-4" d="M167.07,190h4.73l3.64,5.17h-4.06l-2-2.76-2,2.76h-4.06Zm-1,7.52h6.67v19.19H166Z"/><path class="cls-4" d="M177.19,190.26h6.69v26.49h-6.69Z"/><path class="cls-4" d="M207.45,209H194.08a5.15,5.15,0,0,0,.87,2.64,3.07,3.07,0,0,0,2.53,1.25,3.44,3.44,0,0,0,1.86-.55,4.52,4.52,0,0,0,1.17-1.21l6.57.67a10,10,0,0,1-3.64,4.15,12.14,12.14,0,0,1-6.11,1.25,11.44,11.44,0,0,1-5.44-1.07,8.43,8.43,0,0,1-3.29-3.42,11.21,11.21,0,0,1-1.3-5.5,10.18,10.18,0,0,1,2.62-7.28,9.42,9.42,0,0,1,7.21-2.78,11.85,11.85,0,0,1,5.9,1.24,8.1,8.1,0,0,1,3.29,3.62,14.27,14.27,0,0,1,1.13,6.16Zm-6.78-3.52a5.26,5.26,0,0,0-1-3.06,2.87,2.87,0,0,0-2.22-.92,3,3,0,0,0-2.54,1.39,5.52,5.52,0,0,0-.77,2.59Z"/><path class="cls-4" d="M218.91,216.75v-1.87a4.08,4.08,0,0,1-3.75,2.2,4.92,4.92,0,0,1-2.95-1,6.26,6.26,0,0,1-2.08-2.72,10.17,10.17,0,0,1-.74-4,11.46,11.46,0,0,1,.67-4,5.66,5.66,0,0,1,2-2.76,5,5,0,0,1,3-1,4.09,4.09,0,0,1,2.16.56,4.71,4.71,0,0,1,1.54,1.47v-7.33H221v20.43Zm-7.19-7.39a7,7,0,0,0,1.09,4.26,3.2,3.2,0,0,0,2.57,1.4,3.1,3.1,0,0,0,2.53-1.34,6.72,6.72,0,0,0,1-4.11,7.5,7.5,0,0,0-1.06-4.46,3.19,3.19,0,0,0-2.62-1.42,3.06,3.06,0,0,0-2.53,1.37A7.22,7.22,0,0,0,211.72,209.36Z"/><path class="cls-4" d="M233.79,212l2.35.33a6.4,6.4,0,0,1-2.06,3.52,6.5,6.5,0,0,1-8.51-.74,8.35,8.35,0,0,1-1.73-5.61,8.68,8.68,0,0,1,1.75-5.8,5.62,5.62,0,0,1,4.52-2.06,5.5,5.5,0,0,1,4.4,2,8.58,8.58,0,0,1,1.7,5.68c0,.15,0,.37,0,.67h-10a6.09,6.09,0,0,0,1.25,3.74,3.58,3.58,0,0,0,2.81,1.29,3.27,3.27,0,0,0,2.13-.72A4.9,4.9,0,0,0,233.79,212Zm-7.47-4h7.49a5.33,5.33,0,0,0-.86-2.8,3.35,3.35,0,0,0-2.82-1.45,3.44,3.44,0,0,0-2.63,1.15A4.84,4.84,0,0,0,226.32,207.93Z"/><path class="cls-4" d="M239.78,190.26h18.34V196H247.23v4.63h9.31v5.35h-9.31v10.82h-7.45Z"/><path class="cls-4" d="M260.6,197.56h6.24v3.15a7.37,7.37,0,0,1,1.86-2.81,3.63,3.63,0,0,1,2.37-.77,6.45,6.45,0,0,1,3.22,1l-2.06,5.24a4.89,4.89,0,0,0-1.87-.54,2.26,2.26,0,0,0-2,1.19q-1,1.68-1,6.29v6.43h-6.7Z"/><path class="cls-4" d="M282.08,203.78,275.7,203a8.38,8.38,0,0,1,1-2.9,6,6,0,0,1,2-1.84,7.83,7.83,0,0,1,2.52-.87,19,19,0,0,1,3.48-.3,24.74,24.74,0,0,1,4.81.37,5.93,5.93,0,0,1,3,1.54,5.48,5.48,0,0,1,1.35,2.31,9,9,0,0,1,.49,2.84v8.48a10.67,10.67,0,0,0,.16,2.12,9.81,9.81,0,0,0,.68,2H289a6.68,6.68,0,0,1-.49-1.13,7.62,7.62,0,0,1-.23-1.22,8.8,8.8,0,0,1-2.61,2,10,10,0,0,1-4.11.79,6.47,6.47,0,0,1-4.73-1.59,5.29,5.29,0,0,1-1.61-3.92,5.49,5.49,0,0,1,1.16-3.59,7.61,7.61,0,0,1,4.29-2.1q3.76-.82,4.87-1.16a23.38,23.38,0,0,0,2.36-.88,2.77,2.77,0,0,0-.51-1.9,2.38,2.38,0,0,0-1.78-.54,4.21,4.21,0,0,0-2.46.58A3.16,3.16,0,0,0,282.08,203.78Zm5.78,3.86a25.41,25.41,0,0,1-2.87,1,6.3,6.3,0,0,0-2.57,1.18,1.91,1.91,0,0,0-.56,1.35,2,2,0,0,0,.55,1.42,2.19,2.19,0,0,0,1.62.55,3.83,3.83,0,0,0,2.07-.6,3.42,3.42,0,0,0,1.36-1.45,5.27,5.27,0,0,0,.4-2.23Z"/><path class="cls-4" d="M298.38,197.56h6.21v3.13a9.6,9.6,0,0,1,2.82-2.74,6.8,6.8,0,0,1,3.47-.82,5.41,5.41,0,0,1,4.33,1.81c1,1.21,1.57,3.08,1.57,5.61v12.2h-6.7V206.2a4.16,4.16,0,0,0-.61-2.56,2.06,2.06,0,0,0-1.7-.75,2.35,2.35,0,0,0-2,1,6.43,6.43,0,0,0-.75,3.64v9.21h-6.67Z"/><path class="cls-4" d="M333.73,209.23l6.34.8a10.09,10.09,0,0,1-1.72,3.78,8.07,8.07,0,0,1-3.05,2.49,11,11,0,0,1-4.73.88,15.86,15.86,0,0,1-4.61-.56,7.82,7.82,0,0,1-3.17-1.85,9,9,0,0,1-2.08-3,11.52,11.52,0,0,1-.76-4.55,11.66,11.66,0,0,1,.92-4.93,8.81,8.81,0,0,1,1.84-2.59A8.36,8.36,0,0,1,325.1,198a12.14,12.14,0,0,1,5-.88q4.26,0,6.49,1.68a8.9,8.9,0,0,1,3.14,4.91l-6.28.92a3.31,3.31,0,0,0-5.84-1.16,6.38,6.38,0,0,0-1,4,5.51,5.51,0,0,0,1,3.59,3.22,3.22,0,0,0,2.58,1.22,3.37,3.37,0,0,0,2.21-.74A4.44,4.44,0,0,0,333.73,209.23Z"/><path class="cls-4" d="M362.45,209H349.08a5.06,5.06,0,0,0,.87,2.64,3.06,3.06,0,0,0,2.52,1.25,3.45,3.45,0,0,0,1.87-.55,4.36,4.36,0,0,0,1.16-1.21l6.58.67a10,10,0,0,1-3.64,4.15,12.14,12.14,0,0,1-6.11,1.25,11.44,11.44,0,0,1-5.44-1.07,8.43,8.43,0,0,1-3.29-3.42,11.1,11.1,0,0,1-1.3-5.5,10.22,10.22,0,0,1,2.61-7.28,9.45,9.45,0,0,1,7.22-2.78,11.85,11.85,0,0,1,5.9,1.24,8.1,8.1,0,0,1,3.29,3.62,14.27,14.27,0,0,1,1.13,6.16Zm-6.78-3.52a5.26,5.26,0,0,0-1-3.06,2.87,2.87,0,0,0-2.22-.92,3,3,0,0,0-2.54,1.39,5.52,5.52,0,0,0-.77,2.59Z"/><path class="cls-5" d="M275.19,225.12v2.13a4.06,4.06,0,0,1,3.7-2.46,2.45,2.45,0,0,1,2.57,2.49,4.18,4.18,0,0,1,3.84-2.49c1.73,0,2.63,1.18,2.63,3.13v8.32h-2v-7.66c0-1.37-.38-2.16-1.51-2.16-1.45,0-2.83,1.69-2.83,3.35v6.47h-2v-7.66c0-1.37-.38-2.16-1.54-2.16-1.43,0-2.83,1.69-2.83,3.35v6.47h-2V225.12Z"/><path class="cls-5" d="M300.71,230.69c0,4.13-2,5.86-5,5.86s-4.95-1.73-4.95-5.86,1.94-5.9,4.95-5.9S300.71,226.42,300.71,230.69Zm-7.75,0c0,3.42,1.09,4.22,2.79,4.22s2.8-.8,2.8-4.22c0-3.13-.78-4.27-2.8-4.27S293,227.56,293,230.69Z"/><path class="cls-5" d="M305.57,219.12v7.33a4.15,4.15,0,0,1,3.44-1.66c2.66,0,4.17,1.87,4.17,5.9s-1.54,5.86-4.17,5.86a4.17,4.17,0,0,1-3.44-1.64v1.33h-2V219.12Zm0,13.25a2.67,2.67,0,0,0,2.85,2.54c1.61,0,2.63-1,2.63-4.2,0-2.91-.71-4.29-2.63-4.29-1.52,0-2.85,1.05-2.85,2.28Z"/><path class="cls-5" d="M318.05,220.85v1.87h-2v-1.87Zm0,4.27v11.12h-2V225.12Z"/><path class="cls-5" d="M323.69,219.12v14.65c0,.76.5,1.19,1.56,1.31l-.3,1.4c-2.23-.19-3.25-.76-3.25-2.21V219.12Z"/><path class="cls-5" d="M329.5,220.85v1.87h-2v-1.87Zm0,4.27v11.12h-2V225.12Z"/><path class="cls-5" d="M333.46,225.12V222h2v3.08h2.89v1.52h-2.89v6.82c0,1.1.22,1.5,1,1.5a2.18,2.18,0,0,0,1.59-.69l.69,1.14a3.4,3.4,0,0,1-2.73,1.14c-1.73,0-2.56-.9-2.56-2.85v-7.06h-1.57v-1.52Z"/><path class="cls-5" d="M342.42,230.62v0c0,3.2,1.14,4.25,2.78,4.25a4,4,0,0,0,3.32-2l1.33.9a5.4,5.4,0,0,1-4.72,2.73c-2.9,0-4.86-1.9-4.86-5.86,0-3.72,1.7-5.9,4.9-5.9s4.53,1.75,4.53,5.05v.78Zm.08-1.38h5.19c0-2.18-.74-3-2.47-3S342.73,227.13,342.5,229.24Zm5.57-9.67-3.35,4.1-1-.21,2-3.89Z"/><path class="cls-5" d="M352.41,233a4,4,0,0,0,3.63,2c1.39,0,2.39-.52,2.39-1.83,0-3.22-6.73-.68-6.73-5.29,0-1.94,1.63-3.05,4-3.05a4.73,4.73,0,0,1,4.5,2.39l-1.09.93a3.91,3.91,0,0,0-3.46-1.85c-1.3,0-2,.47-2,1.47,0,2.72,6.73.42,6.73,5.28,0,2.33-1.73,3.54-4.41,3.54a4.92,4.92,0,0,1-4.69-2.68Z"/><path class="cls-4" d="M523.42,189.23h4.73l3.64,5.16h-4.06l-2-2.76-2,2.76h-4.06Zm-1,7.51h6.67v19.19h-6.67Z"/><path class="cls-4" d="M533.54,189.44h6.69v26.49h-6.69Z"/><path class="cls-4" d="M563.8,208.16H550.44a5.16,5.16,0,0,0,.86,2.64,3.07,3.07,0,0,0,2.53,1.25,3.52,3.52,0,0,0,1.86-.54,4.74,4.74,0,0,0,1.17-1.22l6.57.67a10,10,0,0,1-3.64,4.15,12.13,12.13,0,0,1-6.11,1.26,11.46,11.46,0,0,1-5.44-1.08,8.32,8.32,0,0,1-3.28-3.41,11.14,11.14,0,0,1-1.31-5.51,10.18,10.18,0,0,1,2.62-7.28,9.42,9.42,0,0,1,7.21-2.78,11.73,11.73,0,0,1,5.9,1.25,8,8,0,0,1,3.29,3.61,14.27,14.27,0,0,1,1.13,6.16ZM557,204.64a5.2,5.2,0,0,0-1-3,2.85,2.85,0,0,0-2.22-.93,3,3,0,0,0-2.54,1.4,5.47,5.47,0,0,0-.77,2.58Z"/><path class="cls-4" d="M575.26,215.93v-1.86a4.1,4.1,0,0,1-3.75,2.2,4.93,4.93,0,0,1-3-1,6.26,6.26,0,0,1-2.08-2.72,10.15,10.15,0,0,1-.74-4,11.38,11.38,0,0,1,.67-4,5.65,5.65,0,0,1,2-2.77,5,5,0,0,1,3-1,4.19,4.19,0,0,1,2.16.56,4.71,4.71,0,0,1,1.54,1.47V195.5h2.26v20.43Zm-7.19-7.38a6.94,6.94,0,0,0,1.09,4.25,3.18,3.18,0,0,0,2.57,1.4,3.1,3.1,0,0,0,2.53-1.34,6.64,6.64,0,0,0,1-4.1,7.45,7.45,0,0,0-1.06-4.46,3.18,3.18,0,0,0-2.62-1.43,3.06,3.06,0,0,0-2.53,1.37A7.26,7.26,0,0,0,568.07,208.55Z"/><path class="cls-4" d="M590.14,211.17l2.35.32a6.4,6.4,0,0,1-2.06,3.52,6.46,6.46,0,0,1-8.51-.74,8.35,8.35,0,0,1-1.73-5.61,8.7,8.7,0,0,1,1.75-5.8,5.65,5.65,0,0,1,4.52-2.06,5.5,5.5,0,0,1,4.4,2,8.6,8.6,0,0,1,1.7,5.68c0,.15,0,.38,0,.67h-10a6.09,6.09,0,0,0,1.25,3.74,3.58,3.58,0,0,0,2.81,1.29,3.27,3.27,0,0,0,2.13-.72A4.86,4.86,0,0,0,590.14,211.17Zm-7.47-4.06h7.49a5.36,5.36,0,0,0-.86-2.8,3.35,3.35,0,0,0-2.82-1.45,3.44,3.44,0,0,0-2.63,1.16A4.79,4.79,0,0,0,582.67,207.11Z"/><path class="cls-4" d="M596.13,189.44h18.34v5.69H603.58v4.63h9.31v5.35h-9.31v10.82h-7.45Z"/><rect class="cls-4" x="12.05" y="188.91" width="48.33" height="48.85" rx="9.04"/><ellipse class="cls-2" cx="36.12" cy="199.41" rx="5.47" ry="4.54" transform="translate(-166.22 188.14) rotate(-76.54)"/><path class="cls-2" d="M21.62,215.14s2.5-7.5,17.62-8.3c0,0,6.36.23,10.68-3.64,0,0,.91,3.53-11.93,7.73C38,210.93,25.26,212.18,21.62,215.14Z"/><path class="cls-2" d="M21.41,232.46s8-12.18,11.25-14.94,3.58-2.76,5.22-2.66a5.17,5.17,0,0,1,2.75,1L53.27,232.6l-6-.18s-1.61.37-4.77-3.84l-3.83-5.89s-3-3.28-5.45-3.21-7.18,8.79-7.18,8.79S23.6,231.82,21.41,232.46Z"/><path class="cls-6" d="M4.85,205.63H-8.51a5.16,5.16,0,0,0,.86,2.64,3.07,3.07,0,0,0,2.53,1.25A3.53,3.53,0,0,0-3.26,209a4.52,4.52,0,0,0,1.17-1.21l6.57.67a10,10,0,0,1-3.64,4.15,12.14,12.14,0,0,1-6.11,1.25,11.44,11.44,0,0,1-5.44-1.07A8.35,8.35,0,0,1-14,209.34a11.1,11.1,0,0,1-1.31-5.5,10.18,10.18,0,0,1,2.62-7.28,9.42,9.42,0,0,1,7.21-2.78A11.85,11.85,0,0,1,.43,195a8.1,8.1,0,0,1,3.29,3.62,14.27,14.27,0,0,1,1.13,6.16Zm-6.78-3.52a5.26,5.26,0,0,0-1-3.06,2.87,2.87,0,0,0-2.22-.92,3,3,0,0,0-2.54,1.39,5.52,5.52,0,0,0-.77,2.59Z"/><path class="cls-5" d="M-5.19,229.62a4,4,0,0,0,3.63,2c1.4,0,2.39-.52,2.39-1.83,0-3.22-6.73-.69-6.73-5.29,0-1.94,1.63-3.05,4-3.05a4.75,4.75,0,0,1,4.51,2.39l-1.09.93A3.93,3.93,0,0,0-2,222.91c-1.3,0-2,.47-2,1.47,0,2.72,6.73.42,6.73,5.28,0,2.33-1.73,3.54-4.41,3.54a4.93,4.93,0,0,1-4.69-2.68Z"/></g><path class="cls-7" d="M359.66,35.87s12.51-2.83,21.42,5.91l11.82.72-.72,4.75,4.14.51L395,49.81l3.65.28-1.13,2.09s4.51.92,4.73,2.19c.2,1.11-12.42,7.57-5.34,17.18l6.69,10.8"/><path class="cls-8" d="M381,33a25.61,25.61,0,0,1,14.84-3.8c12.5.7,21.21,10.66,19.45,22.25a23.19,23.19,0,0,1-11.71,16.33"/><path class="cls-8" d="M389.5,71.18C377,70.48,368.28,60.51,370,48.93a20.53,20.53,0,0,1,1.6-5.42"/><path class="cls-5" d="M119.11,35.37V71.28h23.27V103H119.1v40.11q0,7.24,1.35,9.58,2.08,3.61,7.27,3.61,4.68,0,13.09-2.76l3.12,29.95a134.65,134.65,0,0,1-29.3,3.52q-15.8,0-23.27-4.16A25.13,25.13,0,0,1,80.3,170.28q-3.58-8.47-3.58-27.42V103h0V71.27h0V50.49Z"/><path class="cls-5" d="M143.93,131.23h16.38v-16.9h13.81v16.9H190.6v14.18H174.13v16.81H160.31V145.41H143.93Z"/><path class="cls-5" d="M34.81,182.45V159.76h6v7.61H59v7.47H40.77v7.61Z"/><path class="cls-5" d="M34.81,156.09v-7.48H59v7.48Z"/><path class="cls-5" d="M49.08,127.18l2-6.54a12,12,0,0,1,4.6,2.08,8.89,8.89,0,0,1,2.78,3.51,13.12,13.12,0,0,1,.94,5.35A15.53,15.53,0,0,1,58.23,138a10.24,10.24,0,0,1-4,4.31,13.62,13.62,0,0,1-7.37,1.81q-6,0-9.21-3.19t-3.22-9a12.25,12.25,0,0,1,1.84-7.18,10.87,10.87,0,0,1,5.67-3.88l1.47,6.59a5.41,5.41,0,0,0-1.62.73,4.22,4.22,0,0,0-1.32,1.53,4.48,4.48,0,0,0-.46,2,4.38,4.38,0,0,0,2,3.89,8.7,8.7,0,0,0,4.76,1c2.67,0,4.51-.4,5.5-1.22a4.81,4.81,0,0,0,.29-6.66A7.46,7.46,0,0,0,49.08,127.18Z"/><path class="cls-5" d="M34.81,117v-7.47h9.13l-9.13-7.81V91.78l9.12,8.81,15-9.2v9.19L49,105.67l4,3.85H59V117Z"/><path class="cls-5" d="M34.81,88.93v-20H40V81.46h3.84V69.84h4.92V81.46h4.76V68.57H59V88.93Z"/><path class="cls-5" d="M34.81,66.25V43.57h6v7.61H59v7.46H40.77v7.61Z"/><path class="cls-5" d="M460,57.35h-7.23L450.2,52a26.63,26.63,0,0,0-2-3.67,4.42,4.42,0,0,0-1.48-1.52,4.19,4.19,0,0,0-1.7-.29h-1L442.4,57.35h-6.56l3.76-25.9h10.11c3.68,0,6.17.8,7.49,2.43a8.19,8.19,0,0,1,2,5.25,6.32,6.32,0,0,1-1.63,4.62,7.63,7.63,0,0,1-4.58,2,7,7,0,0,1,2.31,2,23.21,23.21,0,0,1,1.94,3.61Zm-7.77-18.41a3.6,3.6,0,0,0-1.1-2.61c-.73-.74-2.2-1.11-4.42-1.11h-1l-1.08,7.48h2.62c1.84,0,3.14-.39,3.88-1.17A3.66,3.66,0,0,0,452.24,38.94Z"/><path class="cls-5" d="M489.33,57.35h-6.89l-.69-5.73h-7.91l-2.62,5.73h-6.76l13.12-25.9h7Zm-8-9.38-1.24-9.91L475.56,48Z"/><path class="cls-5" d="M519.86,31.45l-.77,5.27h-8.38l-3.1,20.63H501l3.05-20.63h-8.34l.81-5.27Z"/><path class="cls-5" d="M548.11,39.32a9.84,9.84,0,0,1-1,4.35,7.51,7.51,0,0,1-3.06,3.22,10.2,10.2,0,0,1-5.25,1.23h-5.36l-1.33,9.24h-6.67l3.79-25.91H539q4.78,0,7,2.22A7.8,7.8,0,0,1,548.11,39.32Zm-6.86.35a4.47,4.47,0,0,0-.58-2.28,4.11,4.11,0,0,0-1.79-1.59,6.6,6.6,0,0,0-2.86-.58h-.62l-1.34,9.13h1.85a6.08,6.08,0,0,0,3.94-1.15A4.3,4.3,0,0,0,541.25,39.67Z"/><circle class="cls-9" cx="300.26" cy="139.61" r="31.07"/><path class="cls-5" d="M279.65,129.17h6.19a7.6,7.6,0,0,1,3.56.59,4.48,4.48,0,0,1,1.74,2.09,7.89,7.89,0,0,1,.7,3.4,8,8,0,0,1-.6,3.15,4.77,4.77,0,0,1-1.58,2.09,4.51,4.51,0,0,1,2.15,2.14,8,8,0,0,1,.78,3.69,9.22,9.22,0,0,1-1,4.46,4.34,4.34,0,0,1-2.34,2.25,18.83,18.83,0,0,1-4.36.3h-5.25Zm3.11,4v5.58h2.05a17,17,0,0,0,2.29-.08,1.91,1.91,0,0,0,1.25-.86,4.28,4.28,0,0,0,.08-3.65,1.61,1.61,0,0,0-.89-.83,14.83,14.83,0,0,0-3-.16Zm0,9.6v6.45h2.9a7.06,7.06,0,0,0,2.44-.26,2,2,0,0,0,.91-1,4.37,4.37,0,0,0,.37-1.9,4.15,4.15,0,0,0-.4-2,2.16,2.16,0,0,0-1-1,7.85,7.85,0,0,0-2.66-.29Z"/><path class="cls-5" d="M295.2,129.17h3.11v13.08c0,2,0,3.36.11,4a4.55,4.55,0,0,0,1,2.48,2.62,2.62,0,0,0,2,.87,2.56,2.56,0,0,0,1.77-.62,3.23,3.23,0,0,0,.93-1.71,26.69,26.69,0,0,0,.25-4.71V129.17h3.11v12.69a43,43,0,0,1-.4,7,6.28,6.28,0,0,1-1.83,3.51,5.22,5.22,0,0,1-3.74,1.34,5.78,5.78,0,0,1-3.77-1.11,6.31,6.31,0,0,1-2-3.13,29.92,29.92,0,0,1-.61-7.45Z"/><path class="cls-5" d="M310,145.45l3-.46c.34,3.09,1.47,4.63,3.37,4.63a2.77,2.77,0,0,0,2.22-1,3.48,3.48,0,0,0,.81-2.35,3.18,3.18,0,0,0-.28-1.4,2.35,2.35,0,0,0-.86-.94,21.64,21.64,0,0,0-2.8-1.25,8.7,8.7,0,0,1-2.92-1.67,6.34,6.34,0,0,1-1.47-2.38,9,9,0,0,1-.55-3.17,8.63,8.63,0,0,1,.7-3.56,5,5,0,0,1,5-3.2,5.15,5.15,0,0,1,4.25,1.9,8.8,8.8,0,0,1,1.62,5.42l-3.12.22a4.93,4.93,0,0,0-.89-2.72,2.43,2.43,0,0,0-1.94-.78,2.65,2.65,0,0,0-1.94.68,2.26,2.26,0,0,0-.68,1.67,2.37,2.37,0,0,0,.62,1.66,7.89,7.89,0,0,0,2.84,1.48,10.74,10.74,0,0,1,3.4,1.84,6.13,6.13,0,0,1,1.6,2.49,10.85,10.85,0,0,1,.55,3.7,8.93,8.93,0,0,1-1.51,5.29,5.37,5.37,0,0,1-4.72,2.14Q310.66,153.74,310,145.45Z"/><circle class="cls-9" cx="543.59" cy="139.62" r="31.07"/><path class="cls-5" d="M521.89,153.33V129.17h6.57a7.39,7.39,0,0,1,3.6.65,4.71,4.71,0,0,1,1.77,2.26,9.73,9.73,0,0,1,.7,3.85,8.66,8.66,0,0,1-1.07,4.57,4.61,4.61,0,0,1-3,2.17,9.25,9.25,0,0,1,1.66,2,31.43,31.43,0,0,1,1.79,3.93l1.87,4.71h-3.72l-2.26-5.25a38.26,38.26,0,0,0-1.65-3.57,2.64,2.64,0,0,0-.93-1,3.4,3.4,0,0,0-1.57-.27H525v10.08ZM525,139.39h2.32a9,9,0,0,0,2.69-.24,1.87,1.87,0,0,0,.94-1,4.37,4.37,0,0,0,.36-1.93,4,4,0,0,0-.36-1.85,2,2,0,0,0-1-1,9.87,9.87,0,0,0-2.54-.18H525Z"/><path class="cls-5" d="M537.47,153.33V129.17h11.46v4.09h-8.35v5.36h7.76v4.07h-7.76v6.56h8.63v4.08Z"/><path class="cls-5" d="M551.86,153.33V129.17h6.57a7.26,7.26,0,0,1,3.6.66,4.63,4.63,0,0,1,1.77,2.25,9.73,9.73,0,0,1,.7,3.85,8.66,8.66,0,0,1-1.07,4.57,4.57,4.57,0,0,1-3,2.17,9.25,9.25,0,0,1,1.66,2,31.43,31.43,0,0,1,1.79,3.93l1.87,4.71H562l-2.26-5.25a38.26,38.26,0,0,0-1.65-3.57,2.64,2.64,0,0,0-.93-1,3.4,3.4,0,0,0-1.57-.27H555v10.08ZM555,139.39h2.32a9,9,0,0,0,2.69-.24,1.87,1.87,0,0,0,.94-1,4.37,4.37,0,0,0,.36-1.93,4,4,0,0,0-.36-1.85,2,2,0,0,0-1-1,9.87,9.87,0,0,0-2.54-.18H555Z"/><circle class="cls-9" cx="381.37" cy="139.62" r="31.07"/><path class="cls-5" d="M379.13,155.83V130.42H371v-5.18h21.7v5.18h-8.09v25.41Z"/><circle class="cls-9" cx="462.48" cy="139.62" r="31.07"/><path class="cls-5" d="M449.16,155.83v-30.6h8.25l5,15.3,4.91-15.3h8.28v30.6h-5.13V131.72L465,150.23h-5.3l-5.42-18.51v24.11Z"/><path class="cls-10" d="M45.73,250.62a16.19,16.19,0,0,1,.53-4.62,5.85,5.85,0,0,1,1.59-2.7,3.85,3.85,0,0,1,2.66-1,3.92,3.92,0,0,1,3.54,2,8.52,8.52,0,0,1,.91,2.4,17,17,0,0,1,.34,3.83,16,16,0,0,1-.54,4.6,5.76,5.76,0,0,1-1.58,2.7,4.16,4.16,0,0,1-6-.72Q45.73,255.18,45.73,250.62Zm1.85,0q0,4,.84,5.31a2.31,2.31,0,0,0,4.18,0q.84-1.32.84-5.3t-.84-5.31A2.47,2.47,0,0,0,50.49,244a2.23,2.23,0,0,0-2,1.16Q47.58,246.63,47.58,250.62Z"/><path class="cls-10" d="M66.93,256.69v1.91h-9.7a3.59,3.59,0,0,1,.21-1.38,7.39,7.39,0,0,1,1.18-2.15A19.78,19.78,0,0,1,61,252.62a21.2,21.2,0,0,0,3.23-3.43,4.36,4.36,0,0,0,.84-2.39,2.78,2.78,0,0,0-.76-2,2.91,2.91,0,0,0-4.08.05,3.42,3.42,0,0,0-.79,2.38L57.57,247A5.22,5.22,0,0,1,59,243.55a4.58,4.58,0,0,1,3.33-1.2,4.34,4.34,0,0,1,4.58,4.49,5.26,5.26,0,0,1-.36,1.91,7.38,7.38,0,0,1-1.2,2,30.85,30.85,0,0,1-2.78,2.85c-1.08,1-1.77,1.68-2.08,2a6,6,0,0,0-.76,1.07Z"/><path class="cls-10" d="M69.46,254.86l1.73-.18a3.47,3.47,0,0,0,.84,2,2.19,2.19,0,0,0,1.59.61,2.58,2.58,0,0,0,1.46-.42,3.34,3.34,0,0,0,1-1.12,6.91,6.91,0,0,0,.67-1.9,10.9,10.9,0,0,0,.27-2.43c0-.09,0-.22,0-.39a4.42,4.42,0,0,1-1.47,1.54,3.78,3.78,0,0,1-2,.59,3.93,3.93,0,0,1-3.08-1.46,5.66,5.66,0,0,1-1.26-3.84,5.78,5.78,0,0,1,1.31-4,4.21,4.21,0,0,1,3.3-1.5,4.36,4.36,0,0,1,2.62.85,5.28,5.28,0,0,1,1.8,2.42,13.08,13.08,0,0,1,.62,4.56,16.38,16.38,0,0,1-.61,4.94,5.83,5.83,0,0,1-1.82,2.8,4.43,4.43,0,0,1-2.83,1,3.88,3.88,0,0,1-2.81-1.05A4.71,4.71,0,0,1,69.46,254.86Zm7.37-7.14A4.16,4.16,0,0,0,76,245a2.48,2.48,0,0,0-2-1,2.64,2.64,0,0,0-2.09,1.08,4.22,4.22,0,0,0-.89,2.8,3.68,3.68,0,0,0,.84,2.51,2.66,2.66,0,0,0,2.09,1,2.55,2.55,0,0,0,2.06-1A4,4,0,0,0,76.83,247.72Z"/><path class="cls-10" d="M87.7,258.6H85.9V245.94a9.12,9.12,0,0,1-1.71,1.37,11.26,11.26,0,0,1-1.89,1v-1.92a10.48,10.48,0,0,0,2.64-1.9,7.32,7.32,0,0,0,1.6-2.16H87.7Z"/><path class="cls-10" d="M92.92,254.86l1.73-.18a3.54,3.54,0,0,0,.84,2,2.19,2.19,0,0,0,1.59.61,2.56,2.56,0,0,0,1.46-.42,3.24,3.24,0,0,0,1-1.12,6.91,6.91,0,0,0,.67-1.9,10.35,10.35,0,0,0,.28-2.43c0-.09,0-.22,0-.39A4.54,4.54,0,0,1,99,252.53a3.78,3.78,0,0,1-2,.59,3.93,3.93,0,0,1-3.08-1.46,5.66,5.66,0,0,1-1.26-3.84,5.83,5.83,0,0,1,1.31-4,4.21,4.21,0,0,1,3.3-1.5,4.36,4.36,0,0,1,2.62.85,5.28,5.28,0,0,1,1.8,2.42,13.08,13.08,0,0,1,.62,4.56,16.38,16.38,0,0,1-.61,4.94,5.83,5.83,0,0,1-1.82,2.8,4.41,4.41,0,0,1-2.83,1,3.88,3.88,0,0,1-2.81-1.05A4.71,4.71,0,0,1,92.92,254.86Zm7.38-7.14a4.17,4.17,0,0,0-.83-2.72,2.48,2.48,0,0,0-2-1,2.64,2.64,0,0,0-2.09,1.08,4.27,4.27,0,0,0-.89,2.8,3.68,3.68,0,0,0,.84,2.51,2.66,2.66,0,0,0,2.09,1,2.55,2.55,0,0,0,2.06-1A4,4,0,0,0,100.3,247.72Z"/><path class="cls-10" d="M110.15,258.6v-3.87h-6.36v-1.82l6.69-10.49H112v10.49h2v1.82h-2v3.87Zm0-5.69v-7.3l-4.59,7.3Z"/><path class="cls-10" d="M118.88,249.83a3.46,3.46,0,0,1-1.66-1.3,3.64,3.64,0,0,1-.54-2,4.15,4.15,0,0,1,1.15-3,4.51,4.51,0,0,1,6.16,0,4.19,4.19,0,0,1,1.17,3,3.54,3.54,0,0,1-.54,2,3.49,3.49,0,0,1-1.62,1.29,3.93,3.93,0,0,1,2,1.56,4.67,4.67,0,0,1,.71,2.59,5,5,0,0,1-1.33,3.49,4.61,4.61,0,0,1-3.51,1.41,4.56,4.56,0,0,1-3.5-1.42,5,5,0,0,1-1.33-3.54,4.61,4.61,0,0,1,.72-2.64A3.62,3.62,0,0,1,118.88,249.83Zm-.94,4.1a3.82,3.82,0,0,0,.37,1.65,2.7,2.7,0,0,0,1.08,1.23,3,3,0,0,0,1.55.44,2.81,2.81,0,0,0,2.14-.92,3.32,3.32,0,0,0,.84-2.33,3.37,3.37,0,0,0-.87-2.38,2.84,2.84,0,0,0-2.17-.93,2.72,2.72,0,0,0-2.1.92A3.34,3.34,0,0,0,117.94,253.93Zm.58-7.47a2.63,2.63,0,0,0,.67,1.87,2.25,2.25,0,0,0,1.74.73,2.21,2.21,0,0,0,1.71-.72,2.53,2.53,0,0,0,.67-1.77,2.61,2.61,0,0,0-.69-1.84,2.23,2.23,0,0,0-1.71-.75,2.27,2.27,0,0,0-1.71.73A2.5,2.5,0,0,0,118.52,246.46Z"/><path class="cls-10" d="M134.63,258.6h-1.81V245.94a9.36,9.36,0,0,1-1.7,1.37,11.71,11.71,0,0,1-1.9,1v-1.92a10.48,10.48,0,0,0,2.64-1.9,7.14,7.14,0,0,0,1.6-2.16h1.17Z"/><path class="cls-10" d="M146.42,258.6V242.42h9.9v1.91h-7.95v5h6.88v1.91h-6.88v7.35Z"/><path class="cls-10" d="M202.73,256.69v1.91H193a4,4,0,0,1,.21-1.38,7.44,7.44,0,0,1,1.19-2.15,19.07,19.07,0,0,1,2.36-2.45,21.2,21.2,0,0,0,3.23-3.43,4.36,4.36,0,0,0,.84-2.39,2.79,2.79,0,0,0-.77-2,2.61,2.61,0,0,0-2-.81,2.64,2.64,0,0,0-2.08.86,3.42,3.42,0,0,0-.8,2.38l-1.85-.21a5.31,5.31,0,0,1,1.43-3.48,4.6,4.6,0,0,1,3.34-1.2,4.39,4.39,0,0,1,3.34,1.29,4.46,4.46,0,0,1,1.23,3.2,5.26,5.26,0,0,1-.36,1.91,7.58,7.58,0,0,1-1.19,2,32.25,32.25,0,0,1-2.78,2.85c-1.08,1-1.78,1.68-2.08,2a6.1,6.1,0,0,0-.77,1.07Z"/><path class="cls-10" d="M205,254.33l1.8-.26a4.59,4.59,0,0,0,1.06,2.43,2.47,2.47,0,0,0,1.82.75,2.79,2.79,0,0,0,2.15-1,3.46,3.46,0,0,0,.87-2.4,3.21,3.21,0,0,0-.81-2.26,2.68,2.68,0,0,0-2.06-.89,4.57,4.57,0,0,0-1.27.22l.2-1.74.29,0a3.49,3.49,0,0,0,2.07-.66,2.38,2.38,0,0,0,.92-2.05,2.53,2.53,0,0,0-.67-1.81,2.27,2.27,0,0,0-1.73-.72,2.34,2.34,0,0,0-1.75.73,3.89,3.89,0,0,0-.91,2.19l-1.8-.35a5.26,5.26,0,0,1,1.5-3.1,4.12,4.12,0,0,1,2.92-1.1,4.41,4.41,0,0,1,2.21.57,4,4,0,0,1,1.55,1.55,4.38,4.38,0,0,1,.53,2.09,3.69,3.69,0,0,1-.51,1.91,3.6,3.6,0,0,1-1.51,1.37,3.38,3.38,0,0,1,2,1.37,4.51,4.51,0,0,1,.72,2.61,5,5,0,0,1-1.4,3.6,4.67,4.67,0,0,1-3.54,1.47,4.35,4.35,0,0,1-3.21-1.27A5.12,5.12,0,0,1,205,254.33Z"/><path class="cls-10" d="M216.72,250.62a16.14,16.14,0,0,1,.54-4.62,5.85,5.85,0,0,1,1.59-2.7,3.84,3.84,0,0,1,2.66-1,4,4,0,0,1,2.07.53,4,4,0,0,1,1.47,1.51,8.52,8.52,0,0,1,.91,2.4,17.7,17.7,0,0,1,.33,3.83,16.09,16.09,0,0,1-.53,4.6,5.76,5.76,0,0,1-1.58,2.7,3.84,3.84,0,0,1-2.67,1,3.89,3.89,0,0,1-3.34-1.68C217.21,255.85,216.72,253.66,216.72,250.62Zm1.86,0q0,4,.84,5.31a2.31,2.31,0,0,0,4.18,0q.84-1.32.84-5.3t-.84-5.31a2.47,2.47,0,0,0-2.11-1.31,2.23,2.23,0,0,0-2,1.16Q218.58,246.63,218.58,250.62Z"/><path class="cls-10" d="M228.45,254.36l1.9-.17a3.92,3.92,0,0,0,1,2.29,2.53,2.53,0,0,0,1.85.77,2.77,2.77,0,0,0,2.2-1.09,4.33,4.33,0,0,0,.9-2.87,3.94,3.94,0,0,0-.86-2.68,3.1,3.1,0,0,0-3.84-.55,3.13,3.13,0,0,0-1.1,1.13l-1.7-.24,1.43-8.31h7.29v1.9h-5.85l-.79,4.35a4.46,4.46,0,0,1,2.77-1,4.19,4.19,0,0,1,3.24,1.47,5.44,5.44,0,0,1,1.32,3.78,6.23,6.23,0,0,1-1.16,3.79,4.83,4.83,0,0,1-7.12.73A5,5,0,0,1,228.45,254.36Z"/><path class="cls-10" d="M246.86,258.6V242.42h5.51a6.16,6.16,0,0,1,2.69.49,3.57,3.57,0,0,1,1.59,1.51,4.22,4.22,0,0,1,.58,2.14,3.94,3.94,0,0,1-.51,1.95,3.73,3.73,0,0,1-1.54,1.48,3.86,3.86,0,0,1,2.05,1.47,4.26,4.26,0,0,1,.71,2.45,5.19,5.19,0,0,1-.43,2.12,4,4,0,0,1-1.08,1.5,4.2,4.2,0,0,1-1.61.8,8.86,8.86,0,0,1-2.36.27Zm1.94-9.38H252a6.31,6.31,0,0,0,1.86-.19,2,2,0,0,0,1.11-.81,2.47,2.47,0,0,0,.38-1.41,2.85,2.85,0,0,0-.35-1.42,1.83,1.83,0,0,0-1-.84,7.76,7.76,0,0,0-2.24-.22H248.8Zm0,7.47h3.66a8.11,8.11,0,0,0,1.32-.07,3,3,0,0,0,1.12-.45,2.17,2.17,0,0,0,.74-.9,3.06,3.06,0,0,0,.29-1.36,2.88,2.88,0,0,0-.42-1.57,2.22,2.22,0,0,0-1.17-.94,6.59,6.59,0,0,0-2.14-.27h-3.4Z"/><path class="cls-10" d="M267,258.6h-1.8V245.94a9.83,9.83,0,0,1-1.71,1.37,11.31,11.31,0,0,1-1.9,1v-1.92a10.72,10.72,0,0,0,2.65-1.9,7.5,7.5,0,0,0,1.6-2.16H267Z"/><path class="cls-10" d="M271.94,254.36l1.89-.17a3.92,3.92,0,0,0,1,2.29,2.53,2.53,0,0,0,1.85.77,2.78,2.78,0,0,0,2.2-1.09,4.33,4.33,0,0,0,.9-2.87,3.89,3.89,0,0,0-.87-2.68,2.84,2.84,0,0,0-2.26-1,3,3,0,0,0-1.58.43,3.3,3.3,0,0,0-1.1,1.13l-1.69-.24,1.42-8.31H281v1.9h-5.86l-.79,4.35a4.49,4.49,0,0,1,2.78-1,4.19,4.19,0,0,1,3.24,1.47,5.44,5.44,0,0,1,1.32,3.78,6.23,6.23,0,0,1-1.16,3.79,4.83,4.83,0,0,1-7.12.73A5,5,0,0,1,271.94,254.36Z"/><path class="cls-10" d="M465.71,259.74V243.55h10.61v1.91h-8.67v5h8.12v1.9h-8.12v5.51h9v1.91Z"/><path class="cls-10" d="M489.31,243.55h1.94v9.35a12.26,12.26,0,0,1-.5,3.88,4.68,4.68,0,0,1-1.81,2.34,5.92,5.92,0,0,1-3.43.9,6.51,6.51,0,0,1-3.37-.79,4.29,4.29,0,0,1-1.87-2.27,11.67,11.67,0,0,1-.56-4.06v-9.35h1.94v9.34A10.2,10.2,0,0,0,482,256a2.94,2.94,0,0,0,1.22,1.54,4,4,0,0,0,2.12.54,3.78,3.78,0,0,0,3.05-1.07c.61-.71.92-2.09.92-4.12Z"/><path class="cls-10" d="M494.84,259.74V243.55h6.51a7.93,7.93,0,0,1,3,.44,3.36,3.36,0,0,1,1.63,1.54,4.91,4.91,0,0,1,.61,2.44,4.27,4.27,0,0,1-1,2.9,4.91,4.91,0,0,1-3.12,1.51,5.23,5.23,0,0,1,1.17.8,10.85,10.85,0,0,1,1.61,2.15l2.55,4.41h-2.44l-1.94-3.37c-.57-1-1-1.71-1.4-2.23a4.91,4.91,0,0,0-1-1.08,2.66,2.66,0,0,0-.88-.43,5.54,5.54,0,0,0-1.09-.08h-2.25v7.19Zm1.94-9H501a5.56,5.56,0,0,0,2.08-.31,2.22,2.22,0,0,0,1.14-1,2.82,2.82,0,0,0,.39-1.45,2.5,2.5,0,0,0-.76-1.89,3.31,3.31,0,0,0-2.38-.74h-4.65Z"/><path class="cls-10" d="M522,259.74h-1.81V247.08a9.35,9.35,0,0,1-1.7,1.36,11.85,11.85,0,0,1-1.9,1v-1.92a10.73,10.73,0,0,0,2.64-1.9,7.14,7.14,0,0,0,1.6-2.16H522Z"/><path class="cls-10" d="M527.94,259.74v-2.26h2v2.26a4.3,4.3,0,0,1-.4,2,2.68,2.68,0,0,1-1.27,1.19l-.5-.85a1.74,1.74,0,0,0,.84-.81,3.77,3.77,0,0,0,.3-1.54Z"/><path class="cls-10" d="M538.77,259.74v-3.88H532.4V254l6.7-10.49h1.47V254h2v1.82h-2v3.88Zm0-5.7v-7.3l-4.6,7.3Z"/><path class="cls-10" d="M545,256l1.73-.18a3.41,3.41,0,0,0,.85,1.95,2.15,2.15,0,0,0,1.59.61,2.52,2.52,0,0,0,1.45-.42,3.27,3.27,0,0,0,1-1.12,7,7,0,0,0,.67-1.89,11,11,0,0,0,.27-2.43c0-.09,0-.22,0-.4a4.28,4.28,0,0,1-1.48,1.54,3.74,3.74,0,0,1-2,.59,3.91,3.91,0,0,1-3.09-1.46,5.66,5.66,0,0,1-1.26-3.84,5.78,5.78,0,0,1,1.32-4,4.21,4.21,0,0,1,3.3-1.5,4.41,4.41,0,0,1,2.62.85,5.18,5.18,0,0,1,1.8,2.42,13.09,13.09,0,0,1,.61,4.55,16.14,16.14,0,0,1-.61,4.95,5.83,5.83,0,0,1-1.81,2.79,4.38,4.38,0,0,1-2.83,1A3.91,3.91,0,0,1,546.3,259,4.77,4.77,0,0,1,545,256Zm7.38-7.15a4.14,4.14,0,0,0-.83-2.71,2.49,2.49,0,0,0-2-1,2.67,2.67,0,0,0-2.1,1.08,4.3,4.3,0,0,0-.89,2.81,3.68,3.68,0,0,0,.85,2.51,2.68,2.68,0,0,0,2.09,1,2.56,2.56,0,0,0,2-1A4,4,0,0,0,552.37,248.85Z"/><path class="cls-10" d="M573.68,254.06l1.94.55a7.38,7.38,0,0,1-2.2,4,5.7,5.7,0,0,1-3.88,1.39,6.45,6.45,0,0,1-3.85-1.07,6.53,6.53,0,0,1-2.27-3.09,12.11,12.11,0,0,1-.77-4.34,10.45,10.45,0,0,1,.87-4.41,6.49,6.49,0,0,1,2.5-2.86,6.72,6.72,0,0,1,3.55-1,5.66,5.66,0,0,1,3.71,1.23,6.52,6.52,0,0,1,2.09,3.48l-1.91.5a5.07,5.07,0,0,0-1.48-2.57,3.69,3.69,0,0,0-2.45-.81,4.44,4.44,0,0,0-2.82.89,4.75,4.75,0,0,0-1.6,2.41,10.44,10.44,0,0,0-.46,3.1,10.66,10.66,0,0,0,.55,3.61,4.37,4.37,0,0,0,1.69,2.3,4.42,4.42,0,0,0,2.49.76,3.93,3.93,0,0,0,2.77-1A5.48,5.48,0,0,0,573.68,254.06Z"/><path class="cls-10" d="M578.26,259.74V243.55h5.51a6.39,6.39,0,0,1,2.7.49,3.7,3.7,0,0,1,1.59,1.52,4.31,4.31,0,0,1,.57,2.13,4,4,0,0,1-.51,2,3.8,3.8,0,0,1-1.54,1.48,3.76,3.76,0,0,1,2,1.47,4.16,4.16,0,0,1,.71,2.45,5.14,5.14,0,0,1-.43,2.11,4.1,4.1,0,0,1-1.08,1.51,4.3,4.3,0,0,1-1.6.8,9,9,0,0,1-2.37.27Zm1.94-9.39h3.18a6.68,6.68,0,0,0,1.85-.18,2.1,2.1,0,0,0,1.12-.81,2.49,2.49,0,0,0,.37-1.41,2.85,2.85,0,0,0-.35-1.42,1.8,1.8,0,0,0-1-.84,7.6,7.6,0,0,0-2.23-.23H580.2Zm0,7.48h3.66a7.65,7.65,0,0,0,1.32-.08,2.92,2.92,0,0,0,1.12-.44,2.3,2.3,0,0,0,.74-.9,3,3,0,0,0,.29-1.36,2.91,2.91,0,0,0-.42-1.58,2.22,2.22,0,0,0-1.16-.93,6.35,6.35,0,0,0-2.15-.28h-3.4Z"/></svg>