<?xml version="1.0" encoding="utf-8"?>
<!-- Generator: Adobe Illustrator 23.0.2, SVG Export Plug-In . SVG Version: 6.00 Build 0)  -->
<svg version="1.1" id="Calque_1" xmlns="http://www.w3.org/2000/svg" xmlns:xlink="http://www.w3.org/1999/xlink" x="0px" y="0px"
	 viewBox="0 0 1000 1000" style="enable-background:new 0 0 1000 1000;" xml:space="preserve">
<style type="text/css">
	.st0{fill:none;}
	.st1{fill:#A3A3A3;}
	.st2{fill:#EFEFEF;}
	.st3{fill:#D0DFFF;}
	.st4{fill:none;stroke:#000000;stroke-miterlimit:10;}
	.st5{enable-background:new    ;}
	.st6{fill:#969BA5;}
	.st7{fill:none;stroke:#000000;stroke-width:0.75;stroke-linejoin:round;stroke-miterlimit:10;}
	.st8{fill:none;stroke:#000000;stroke-width:2;stroke-miterlimit:10;}
</style>
<line class="st0" x1="221.5" y1="214.4" x2="221.5" y2="214.4"/>
<g>
	<polygon class="st1" points="233,402.2 239.7,406 242.2,403.4 234.6,398.8 	"/>
	<g>
		<path class="st1" d="M228,337.6c-0.2-5.5,3.6-12.2,8.3-15l124.8-71.5c4.8-2.7,8.5-0.5,8.3,5l-2.3,62.2c-0.2,5.5-4.3,12.2-9,15
			l-119,68.2c-4.8,2.7-8.8,0.5-9-5L228,337.6z"/>
	</g>
	<path class="st1" d="M366.3,250.2c1.4,0.5,5.2,2.9,8.2,4.6l-1.7,3.3l-5.3,0.2l-2.7-2.3L366.3,250.2z"/>
</g>
<g>
	<path class="st2" d="M235.4,341.8c-0.2-5.5,3.6-12.2,8.3-15l124.7-71.5c4.8-2.7,8.5-0.5,8.3,5l-2.3,62.2c-0.2,5.5-4.3,12.2-9,15
		l-119,68.2c-4.8,2.7-8.8,0.5-9-5L235.4,341.8z"/>
</g>
<polygon class="st3" points="237.4,401 237.1,391.5 374.8,314.2 374.8,323.9 "/>
<ellipse transform="matrix(0.3916 -0.9201 0.9201 0.3916 -127.7068 480.3315)" class="st4" cx="299.4" cy="336.7" rx="11.3" ry="6.4"/>
<ellipse transform="matrix(0.3916 -0.9201 0.9201 0.3916 -104.8509 491.4503)" class="st4" cx="319.2" cy="325" rx="11.3" ry="6.4"/>
<ellipse transform="matrix(0.3916 -0.9201 0.9201 0.3916 -83.0633 502.1956)" class="st4" cx="338.2" cy="313.9" rx="11.3" ry="6.4"/>
<ellipse transform="matrix(0.3916 -0.9201 0.9201 0.3916 -61.5279 513.3209)" class="st4" cx="357.4" cy="303.2" rx="11.3" ry="6.4"/>
<g class="st5">
	<path d="M294.7,336.2l1.2-0.7c0.3-0.1,0.5-0.2,0.7-0.2c0.2,0,0.3,0.1,0.4,0.2c0.1,0.1,0.2,0.3,0.2,0.5c0,0.2,0.1,0.4,0.1,0.7v0.3
		c0,0.2,0,0.4,0,0.5c0,0.2-0.1,0.3-0.1,0.4c0,0.1-0.1,0.3-0.2,0.4c-0.1,0.1-0.1,0.2-0.2,0.4c0.2,0,0.3,0.1,0.4,0.3
		c0.1,0.2,0.1,0.5,0.1,0.9v0.4c0,0.7-0.1,1.2-0.4,1.7c-0.2,0.5-0.6,0.9-1.1,1.2l-1.1,0.6V336.2z M295.4,338.8l0.4-0.2
		c0.3-0.2,0.4-0.3,0.5-0.6c0.1-0.2,0.1-0.5,0.1-0.9c0-0.3-0.1-0.6-0.2-0.7c-0.1-0.1-0.3-0.1-0.5,0.1l-0.3,0.2V338.8z M295.4,342.1
		l0.3-0.2c0.2-0.1,0.3-0.2,0.4-0.3c0.1-0.1,0.2-0.2,0.2-0.4c0-0.1,0.1-0.3,0.1-0.4c0-0.2,0-0.3,0-0.5c0-0.2,0-0.3,0-0.5
		c0-0.1,0-0.2-0.1-0.3c0-0.1-0.1-0.1-0.2-0.1c-0.1,0-0.2,0-0.4,0.1l-0.4,0.2V342.1z"/>
	<path d="M300.5,338.5c0,0.2,0,0.5-0.1,0.7c-0.1,0.2-0.2,0.5-0.3,0.7c-0.1,0.2-0.3,0.4-0.4,0.6c-0.2,0.2-0.3,0.3-0.5,0.4
		s-0.3,0.2-0.5,0.2c-0.2,0-0.3,0-0.4-0.1c-0.1-0.1-0.2-0.2-0.3-0.4c-0.1-0.2-0.1-0.4-0.1-0.6v-5.7l0.8-0.5v5.6c0,0.3,0,0.4,0.1,0.5
		c0.1,0.1,0.2,0.1,0.4,0c0.1-0.1,0.3-0.2,0.4-0.4c0.1-0.2,0.1-0.4,0.1-0.7v-5.6l0.8-0.5V338.5z"/>
	<path d="M303.9,333l-0.8,0.5v-0.2c0-0.2,0-0.4-0.1-0.6c-0.1-0.1-0.2-0.1-0.4,0c-0.1,0.1-0.2,0.1-0.3,0.2c-0.1,0.1-0.1,0.2-0.2,0.3
		c0,0.1-0.1,0.2-0.1,0.3c0,0.1,0,0.2,0,0.4c0,0.1,0,0.3,0,0.4c0,0.1,0,0.2,0.1,0.2c0,0.1,0.1,0.1,0.1,0.1c0.1,0,0.1,0,0.2,0l0.6,0
		c0.2,0,0.3,0,0.4,0.1s0.2,0.2,0.3,0.3c0.1,0.1,0.1,0.3,0.1,0.5c0,0.2,0,0.4,0,0.7c0,0.3,0,0.6-0.1,0.9c0,0.3-0.1,0.6-0.2,0.8
		c-0.1,0.3-0.2,0.5-0.4,0.7c-0.2,0.2-0.4,0.4-0.6,0.5c-0.2,0.1-0.4,0.2-0.5,0.2c-0.2,0-0.3,0-0.4-0.1c-0.1-0.1-0.2-0.2-0.3-0.4
		s-0.1-0.4-0.1-0.6v-0.4l0.8-0.5v0.3c0,0.2,0,0.3,0.1,0.5c0.1,0.1,0.2,0.1,0.4,0c0.1-0.1,0.2-0.2,0.3-0.3c0.1-0.1,0.1-0.2,0.2-0.3
		s0.1-0.2,0.1-0.4c0-0.1,0-0.3,0-0.5c0-0.2,0-0.4,0-0.5c0-0.1,0-0.2-0.1-0.3c0-0.1-0.1-0.1-0.1-0.1s-0.1,0-0.2,0l-0.6,0
		c-0.3,0-0.6-0.1-0.7-0.3s-0.2-0.6-0.2-1.1c0-0.3,0-0.6,0.1-0.8c0.1-0.3,0.1-0.5,0.3-0.8c0.1-0.2,0.3-0.5,0.4-0.7s0.4-0.4,0.6-0.5
		c0.2-0.1,0.4-0.2,0.5-0.2c0.2,0,0.3,0.1,0.4,0.1c0.1,0.1,0.2,0.2,0.3,0.4c0.1,0.2,0.1,0.3,0.1,0.6V333z"/>
</g>
<g class="st5">
	<path d="M318.5,322.4l-1.2,0.7v-1.3l3.5-2v1.3l-1.2,0.7v8.5l-1.1,0.6V322.4z"/>
</g>
<g class="st5">
	<path d="M335.8,310.2l1-0.6l1.4,4.4l0,0l1.3-6l1-0.6v9.8l-1.1,0.6v-6l0,0l-1,4.8l-0.5,0.3l-1-3.6l0,0v6l-1.1,0.6V310.2z"/>
</g>
<g class="st5">
	<path d="M352.5,302.6l1.3-0.7c0.9-0.5,1.4-0.1,1.4,1.4c0,0.4-0.1,0.8-0.2,1.2s-0.3,0.7-0.5,1.1l0.9,2.9l-0.8,0.5l-0.7-2.7l-0.5,0.3
		v3.2l-0.8,0.5V302.6z M353.3,305.5l0.5-0.3c0.1-0.1,0.3-0.2,0.3-0.3c0.1-0.1,0.1-0.2,0.2-0.3c0-0.1,0.1-0.3,0.1-0.4
		c0-0.2,0-0.3,0-0.5c0-0.2,0-0.3,0-0.5c0-0.1,0-0.2-0.1-0.3c0-0.1-0.1-0.1-0.2-0.1c-0.1,0-0.2,0-0.4,0.1l-0.4,0.2V305.5z"/>
	<path d="M355.9,300.7l2.4-1.4v1l-1.6,0.9v2.2l1.4-0.8v1l-1.4,0.8v2.2l1.6-0.9v1.1l-2.4,1.4V300.7z"/>
	<path d="M358.7,299.1l1.3-0.7c0.9-0.5,1.4-0.1,1.4,1.4c0,0.4-0.1,0.8-0.2,1.2s-0.3,0.7-0.5,1.1l0.9,2.9l-0.8,0.5l-0.7-2.7l-0.5,0.3
		v3.2l-0.8,0.5V299.1z M359.5,301.9l0.5-0.3c0.1-0.1,0.3-0.2,0.3-0.3c0.1-0.1,0.1-0.2,0.2-0.3c0-0.1,0.1-0.3,0.1-0.4
		c0-0.2,0-0.3,0-0.5c0-0.2,0-0.3,0-0.5c0-0.1,0-0.2-0.1-0.3c0-0.1-0.1-0.1-0.2-0.1c-0.1,0-0.2,0-0.4,0.1l-0.4,0.2V301.9z"/>
</g>
<g>
	<path d="M258.8,329.8v14.9l6.2-3.6v11l-6.2,3.6v13.9c0,1.7,0.1,2.7,0.4,3.1c0.4,0.6,1,0.7,1.9,0.1c0.8-0.5,2-1.5,3.5-3l0.8,9.9
		c-2.8,2.4-5.4,4.3-7.8,5.7c-2.8,1.6-4.9,2.3-6.2,2.1c-1.3-0.2-2.3-1.1-2.9-2.7c-0.6-1.6-1-4.6-1-9V362l0,0v-11l0,0v-11L258.8,329.8
		z"/>
</g>
<polygon points="272,352.6 272,343.9 278.5,340.1 278.5,348.9 285.1,345 285.1,353.7 278.5,357.5 278.5,366.2 271.9,370 272,361.4 
	265.4,365.1 265.4,356.4 "/>
<path class="st4" d="M237.4,401"/>
<polygon class="st6" points="237.4,401 230,397.3 229.7,387.7 237.1,391.5 "/>
<polygon class="st0" points="368.5,285.3 313.5,317 318.5,291.8 373.5,260 "/>
<g class="st5">
	<path d="M328.3,299.5l-2.8,1.6l-1-2.2c-0.3-0.7-0.5-1.1-0.8-1.4c-0.2-0.3-0.4-0.4-0.6-0.4c-0.2,0-0.4,0.1-0.7,0.2l-0.4,0.2
		l-0.6,5.9l-2.5,1.5l1.4-14.1l3.9-2.2c1.4-0.8,2.4-1,2.9-0.4c0.5,0.5,0.8,1.3,0.8,2.3c0,1-0.2,1.9-0.6,2.7s-1,1.5-1.8,2.1
		c0.4,0.1,0.7,0.2,0.9,0.5c0.2,0.3,0.5,0.8,0.7,1.4L328.3,299.5z M325.3,291.7c0-0.5-0.1-0.9-0.4-1.1c-0.3-0.2-0.8-0.1-1.7,0.4
		l-0.4,0.2l-0.4,4.1l1-0.6c0.7-0.4,1.2-0.9,1.5-1.5S325.3,292.2,325.3,291.7z"/>
	<path d="M338.7,293.4L336,295l-0.3-2.8l-3,1.8l-1,3.5l-2.6,1.5l5-16.2l2.7-1.6L338.7,293.4z M335.6,290.4l-0.5-4.8l-1.7,6.1
		L335.6,290.4z"/>
	<path d="M349.6,273.9l-0.3,2.9l-3.2,1.9l-1.2,11.3l-2.5,1.5l1.2-11.3l-3.2,1.9l0.3-2.9L349.6,273.9z"/>
	<path d="M359.6,272.1c0,0.8-0.1,1.6-0.4,2.4c-0.2,0.8-0.6,1.6-1.2,2.3c-0.5,0.7-1.2,1.3-2,1.8l-2.1,1.2l-0.5,5l-2.6,1.5l1.5-14.1
		l3.7-2.2c1.2-0.7,2.1-0.8,2.7-0.4C359.3,270.2,359.6,271,359.6,272.1z M356.9,273.9c0-0.4-0.1-0.8-0.2-1c-0.2-0.3-0.4-0.4-0.7-0.4
		c-0.3,0-0.7,0.1-1.1,0.3l-0.2,0.1l-0.5,5l0.7-0.4c0.7-0.4,1.2-0.9,1.5-1.5C356.7,275.4,356.9,274.7,356.9,273.9z"/>
</g>
<g>
	<path class="st7" d="M295.6,305.7c0,0,3.5-3.5,6.5-1.8l3.5-2v2l1.2-0.6l-0.3,1.1l1.1-0.6l-0.2,1c0,0,1.4-0.5,1.5,0
		c0.1,0.4-3.3,5.3-0.8,7.7l2.4,2.9"/>
	<path class="st8" d="M301.6,300.5c1.1-1.9,2.6-3.4,4.1-4.3c3.6-2.1,6.6,0.1,6.6,5c0,2.9-1,6.1-2.7,8.6"/>
	<path class="st8" d="M305.7,313.8c-3.6,2.1-6.6-0.1-6.6-5c0-0.8,0.1-1.6,0.2-2.4"/>
</g>
<line class="st0" x1="421.5" y1="214.4" x2="421.5" y2="214.4"/>
<line class="st0" x1="221.5" y1="414.4" x2="221.5" y2="414.4"/>
<line class="st0" x1="421.5" y1="414.4" x2="421.5" y2="414.4"/>
<line class="st0" x1="781.2" y1="787" x2="781.2" y2="787"/>
<g>
	<polygon class="st1" points="792.7,974.8 799.4,978.6 801.9,976 794.3,971.4 	"/>
	<g>
		<path class="st1" d="M787.7,910.2c-0.2-5.5,3.6-12.2,8.3-15l124.8-71.5c4.8-2.7,8.5-0.5,8.3,5l-2.3,62.2c-0.2,5.5-4.3,12.2-9,15
			l-119,68.2c-4.8,2.7-8.8,0.5-9-5L787.7,910.2z"/>
	</g>
	<path class="st1" d="M926,822.8c1.4,0.5,5.2,2.9,8.2,4.6l-1.7,3.3l-5.3,0.2l-2.7-2.3L926,822.8z"/>
</g>
<g>
	<path class="st2" d="M795.1,914.4c-0.2-5.5,3.6-12.2,8.3-15l124.7-71.5c4.8-2.7,8.5-0.5,8.3,5l-2.3,62.2c-0.2,5.5-4.3,12.2-9,15
		l-119,68.2c-4.8,2.7-8.8,0.5-9-5L795.1,914.4z"/>
</g>
<polygon class="st3" points="797.1,973.6 796.8,964.1 934.5,886.8 934.5,896.5 "/>
<ellipse transform="matrix(0.3916 -0.9201 0.9201 0.3916 -314.0064 1343.5879)" class="st4" cx="859" cy="909.2" rx="11.3" ry="6.4"/>
<ellipse transform="matrix(0.3916 -0.9201 0.9201 0.3916 -291.2591 1354.7268)" class="st4" cx="878.8" cy="897.6" rx="11.3" ry="6.4"/>
<ellipse transform="matrix(0.3916 -0.9201 0.9201 0.3916 -269.343 1365.5607)" class="st4" cx="898" cy="886.5" rx="11.3" ry="6.4"/>
<ellipse transform="matrix(0.3916 -0.9201 0.9201 0.3916 -247.8076 1376.6859)" class="st4" cx="917.2" cy="875.7" rx="11.3" ry="6.4"/>
<g class="st5">
	<path d="M854.3,908.7l1.2-0.7c0.3-0.1,0.5-0.2,0.7-0.2c0.2,0,0.3,0.1,0.4,0.2c0.1,0.1,0.2,0.3,0.2,0.5c0,0.2,0.1,0.4,0.1,0.7v0.3
		c0,0.2,0,0.4,0,0.5c0,0.2-0.1,0.3-0.1,0.4s-0.1,0.3-0.2,0.4c-0.1,0.1-0.1,0.2-0.2,0.4c0.2,0,0.3,0.1,0.4,0.3
		c0.1,0.2,0.1,0.5,0.1,0.9v0.4c0,0.7-0.1,1.2-0.4,1.7c-0.2,0.5-0.6,0.9-1.1,1.2l-1.1,0.6V908.7z M855.1,911.3l0.4-0.2
		c0.3-0.2,0.4-0.3,0.5-0.6c0.1-0.2,0.1-0.5,0.1-0.9c0-0.3-0.1-0.6-0.2-0.7c-0.1-0.1-0.3-0.1-0.5,0.1l-0.3,0.2V911.3z M855.1,914.6
		l0.3-0.2c0.2-0.1,0.3-0.2,0.4-0.3c0.1-0.1,0.2-0.2,0.2-0.4c0-0.1,0.1-0.3,0.1-0.4c0-0.2,0-0.3,0-0.5c0-0.2,0-0.3,0-0.5
		c0-0.1,0-0.2-0.1-0.3c0-0.1-0.1-0.1-0.2-0.1c-0.1,0-0.2,0-0.4,0.1l-0.4,0.2V914.6z"/>
	<path d="M860.2,911.1c0,0.2,0,0.5-0.1,0.7c-0.1,0.2-0.2,0.5-0.3,0.7c-0.1,0.2-0.3,0.4-0.4,0.6c-0.2,0.2-0.3,0.3-0.5,0.4
		s-0.3,0.2-0.5,0.2c-0.2,0-0.3,0-0.4-0.1c-0.1-0.1-0.2-0.2-0.3-0.4s-0.1-0.4-0.1-0.6v-5.7l0.8-0.5v5.6c0,0.3,0,0.4,0.1,0.5
		c0.1,0.1,0.2,0.1,0.4,0c0.1-0.1,0.3-0.2,0.4-0.4c0.1-0.2,0.1-0.4,0.1-0.7v-5.6l0.8-0.5V911.1z"/>
	<path d="M863.5,905.5l-0.8,0.5v-0.2c0-0.2,0-0.4-0.1-0.6c-0.1-0.1-0.2-0.1-0.4,0c-0.1,0.1-0.2,0.1-0.3,0.2s-0.1,0.2-0.2,0.3
		s-0.1,0.2-0.1,0.3c0,0.1,0,0.2,0,0.4c0,0.1,0,0.3,0,0.4c0,0.1,0,0.2,0.1,0.2c0,0.1,0.1,0.1,0.1,0.1c0.1,0,0.1,0,0.2,0l0.6,0
		c0.2,0,0.3,0,0.4,0.1c0.1,0.1,0.2,0.2,0.3,0.3s0.1,0.3,0.1,0.5c0,0.2,0,0.4,0,0.7c0,0.3,0,0.6-0.1,0.9c0,0.3-0.1,0.6-0.2,0.8
		c-0.1,0.3-0.2,0.5-0.4,0.7s-0.4,0.4-0.6,0.5c-0.2,0.1-0.4,0.2-0.5,0.2c-0.2,0-0.3,0-0.4-0.1c-0.1-0.1-0.2-0.2-0.3-0.4
		s-0.1-0.4-0.1-0.6v-0.4l0.8-0.5v0.3c0,0.2,0,0.3,0.1,0.5c0.1,0.1,0.2,0.1,0.4,0c0.1-0.1,0.2-0.2,0.3-0.3c0.1-0.1,0.1-0.2,0.2-0.3
		c0-0.1,0.1-0.2,0.1-0.4c0-0.1,0-0.3,0-0.5c0-0.2,0-0.4,0-0.5c0-0.1,0-0.2-0.1-0.3c0-0.1-0.1-0.1-0.1-0.1c-0.1,0-0.1,0-0.2,0l-0.6,0
		c-0.3,0-0.6-0.1-0.7-0.3c-0.1-0.2-0.2-0.6-0.2-1.1c0-0.3,0-0.6,0.1-0.8c0.1-0.3,0.1-0.5,0.3-0.8c0.1-0.2,0.3-0.5,0.4-0.7
		c0.2-0.2,0.4-0.4,0.6-0.5c0.2-0.1,0.4-0.2,0.5-0.2c0.2,0,0.3,0,0.4,0.1c0.1,0.1,0.2,0.2,0.3,0.4s0.1,0.3,0.1,0.6V905.5z"/>
</g>
<g class="st5">
	<path d="M878.1,894.9l-1.2,0.7v-1.3l3.5-2v1.3l-1.2,0.7v8.5l-1.1,0.6V894.9z"/>
</g>
<g class="st5">
	<path d="M895.5,882.8l1-0.6l1.4,4.4l0,0l1.3-6l1-0.6v9.8l-1.1,0.6v-6l0,0l-1,4.8l-0.5,0.3l-1-3.6l0,0v6l-1.1,0.6V882.8z"/>
</g>
<g class="st5">
	<path d="M912.2,875.2l1.3-0.7c0.9-0.5,1.4-0.1,1.4,1.4c0,0.4-0.1,0.8-0.2,1.2s-0.3,0.7-0.5,1.1l0.9,2.9l-0.8,0.5l-0.7-2.7L913,879
		v3.2l-0.8,0.5V875.2z M913,878l0.5-0.3c0.1-0.1,0.3-0.2,0.3-0.3c0.1-0.1,0.1-0.2,0.2-0.3c0-0.1,0.1-0.3,0.1-0.4s0-0.3,0-0.5
		c0-0.2,0-0.3,0-0.5c0-0.1,0-0.2-0.1-0.3c0-0.1-0.1-0.1-0.2-0.1c-0.1,0-0.2,0-0.4,0.1l-0.4,0.2V878z"/>
	<path d="M915.5,873.3l2.4-1.4v1l-1.6,0.9v2.2l1.4-0.8v1l-1.4,0.8v2.2l1.6-0.9v1.1l-2.4,1.4V873.3z"/>
	<path d="M918.4,871.6l1.3-0.7c0.9-0.5,1.4-0.1,1.4,1.4c0,0.4-0.1,0.8-0.2,1.2s-0.3,0.7-0.5,1.1l0.9,2.9l-0.8,0.5l-0.7-2.7l-0.5,0.3
		v3.2l-0.8,0.5V871.6z M919.2,874.5l0.5-0.3c0.1-0.1,0.3-0.2,0.3-0.3c0.1-0.1,0.1-0.2,0.2-0.3c0-0.1,0.1-0.3,0.1-0.4
		c0-0.2,0-0.3,0-0.5c0-0.2,0-0.3,0-0.5c0-0.1,0-0.2-0.1-0.3c-0.1-0.1-0.1-0.1-0.2-0.1c-0.1,0-0.2,0-0.4,0.1l-0.4,0.2V874.5z"/>
</g>
<g>
	<path d="M818.5,902.4v14.9l6.2-3.6v11l-6.2,3.6v13.9c0,1.7,0.1,2.7,0.4,3.1c0.4,0.6,1,0.7,1.9,0.1c0.8-0.5,2-1.5,3.5-3l0.8,9.9
		c-2.8,2.4-5.4,4.3-7.8,5.7c-2.8,1.6-4.9,2.3-6.2,2.1s-2.3-1.1-2.9-2.7c-0.6-1.6-1-4.6-1-9v-13.8l0,0v-11l0,0v-11L818.5,902.4z"/>
</g>
<polygon points="831.7,925.2 831.7,916.5 838.2,912.7 838.2,921.5 844.8,917.6 844.8,926.3 838.2,930.1 838.2,938.8 831.6,942.6 
	831.7,934 825.1,937.7 825.1,929 "/>
<path class="st4" d="M797.1,973.6"/>
<polygon class="st6" points="797.1,973.6 789.7,969.9 789.4,960.3 796.8,964.1 "/>
<polygon class="st0" points="928.2,857.9 873.2,889.6 878.2,864.4 933.2,832.6 "/>
<g class="st5">
	<path d="M888,872l-2.8,1.6l-1-2.2c-0.3-0.7-0.5-1.1-0.8-1.4c-0.2-0.3-0.4-0.4-0.6-0.4c-0.2,0-0.4,0.1-0.7,0.2l-0.4,0.2l-0.6,5.9
		l-2.5,1.5l1.4-14.1l3.9-2.2c1.4-0.8,2.4-1,2.9-0.4c0.5,0.5,0.8,1.3,0.8,2.3c0,1-0.2,1.9-0.6,2.7c-0.4,0.8-1,1.5-1.8,2.1
		c0.4,0.1,0.7,0.2,0.9,0.5c0.2,0.3,0.5,0.8,0.7,1.4L888,872z M885,864.3c0-0.5-0.1-0.9-0.4-1.1c-0.3-0.2-0.8-0.1-1.7,0.4l-0.4,0.2
		l-0.4,4.1l1-0.6c0.7-0.4,1.2-0.9,1.5-1.5C884.8,865.3,885,864.8,885,864.3z"/>
	<path d="M898.4,866l-2.7,1.5l-0.3-2.8l-3,1.8l-1,3.5l-2.6,1.5l5-16.2l2.7-1.6L898.4,866z M895.3,863l-0.5-4.8l-1.7,6.1L895.3,863z"
		/>
	<path d="M909.2,846.4l-0.3,2.9l-3.2,1.9l-1.2,11.3l-2.5,1.5l1.2-11.3l-3.2,1.9l0.3-2.9L909.2,846.4z"/>
	<path d="M919.2,844.7c0,0.8-0.1,1.6-0.4,2.4c-0.2,0.8-0.6,1.6-1.2,2.3c-0.5,0.7-1.2,1.3-2,1.8l-2.1,1.2l-0.5,5l-2.6,1.5l1.5-14.1
		l3.7-2.2c1.2-0.7,2.1-0.8,2.7-0.4C919,842.7,919.2,843.5,919.2,844.7z M916.6,846.4c0-0.4-0.1-0.8-0.2-1c-0.2-0.3-0.4-0.4-0.7-0.4
		c-0.3,0-0.7,0.1-1.1,0.3l-0.2,0.1l-0.5,5l0.7-0.4c0.7-0.4,1.2-0.9,1.5-1.5C916.4,847.9,916.6,847.2,916.6,846.4z"/>
</g>
<g>
	<path class="st7" d="M855.3,878.3c0,0,3.5-3.5,6.5-1.8l3.5-2v2l1.2-0.6l-0.3,1.1l1.1-0.6l-0.2,1c0,0,1.4-0.5,1.5,0
		c0.1,0.4-3.3,5.3-0.8,7.7l2.4,2.9"/>
	<path class="st8" d="M861.3,873.1c1.1-1.9,2.6-3.4,4.1-4.3c3.6-2.1,6.6,0.1,6.6,5c0,2.9-1,6.1-2.7,8.6"/>
	<path class="st8" d="M865.4,886.4c-3.6,2.1-6.6-0.1-6.6-5c0-0.8,0.1-1.6,0.2-2.4"/>
</g>
<line class="st0" x1="981.2" y1="787" x2="981.2" y2="787"/>
<line class="st0" x1="781.2" y1="987" x2="781.2" y2="987"/>
<line class="st0" x1="981.2" y1="987" x2="981.2" y2="987"/>
</svg>
